<?xml version="1.0" encoding="utf-8"?>
<!-- Generator: Adobe Illustrator 18.0.0, SVG Export Plug-In . SVG Version: 6.00 Build 0)  -->
<!DOCTYPE svg PUBLIC "-//W3C//DTD SVG 1.1//EN" "http://www.w3.org/Graphics/SVG/1.1/DTD/svg11.dtd">
<svg version="1.1" xmlns="http://www.w3.org/2000/svg" xmlns:xlink="http://www.w3.org/1999/xlink" x="0px" y="0px"
	 viewBox="0 0 231.5 554.8" enable-background="new 0 0 231.5 554.8" xml:space="preserve">
<g id="Hybrid" display="none">
	<rect x="2.3" y="6.1" display="inline" fill="#EFEFEF" stroke="#63666A" stroke-miterlimit="10" width="256.5" height="244.3"/>
	<rect x="2.3" y="6.3" display="inline" fill="#004C97" width="255.9" height="23.2"/>
	<g display="inline">
		<path fill="#FFFFFF" d="M18,18.9c0,2.5-1.2,3.8-3.5,3.8c-2.3,0-3.4-1.2-3.4-3.7v-4.9h1.9V19c0,1.4,0.5,2,1.6,2c1,0,1.6-0.7,1.6-2
			v-4.9H18V18.9z"/>
		<path fill="#FFFFFF" d="M19.4,22.2v-1.9c0.3,0.3,0.7,0.5,1.1,0.6s0.8,0.2,1.2,0.2c0.2,0,0.4,0,0.6-0.1s0.3-0.1,0.4-0.2
			s0.2-0.2,0.3-0.3s0.1-0.2,0.1-0.3c0-0.2,0-0.3-0.1-0.4s-0.2-0.2-0.4-0.4s-0.4-0.2-0.6-0.3s-0.5-0.2-0.7-0.3
			c-0.7-0.3-1.1-0.6-1.5-1s-0.5-0.9-0.5-1.4c0-0.4,0.1-0.8,0.3-1.1s0.4-0.6,0.7-0.8s0.7-0.4,1.1-0.4s0.8-0.1,1.3-0.1
			c0.4,0,0.8,0,1.2,0.1s0.6,0.1,0.9,0.2v1.8c-0.1-0.1-0.3-0.2-0.5-0.3s-0.3-0.1-0.5-0.2s-0.4-0.1-0.5-0.1s-0.3,0-0.5,0
			c-0.2,0-0.4,0-0.6,0.1s-0.3,0.1-0.4,0.2s-0.2,0.2-0.3,0.3s-0.1,0.2-0.1,0.3c0,0.1,0,0.3,0.1,0.4s0.2,0.2,0.3,0.3s0.3,0.2,0.5,0.3
			s0.4,0.2,0.7,0.3c0.3,0.1,0.6,0.3,0.9,0.4s0.5,0.3,0.7,0.5s0.3,0.4,0.4,0.7s0.2,0.6,0.2,0.9c0,0.5-0.1,0.9-0.3,1.2
			s-0.4,0.6-0.7,0.8s-0.7,0.3-1.1,0.4s-0.8,0.1-1.3,0.1c-0.5,0-0.9,0-1.3-0.1S19.7,22.4,19.4,22.2z"/>
		<path fill="#FFFFFF" d="M28.4,19.7v2.9h-1.9v-8.4h3c2.1,0,3.2,0.9,3.2,2.7c0,0.8-0.3,1.5-0.9,2s-1.4,0.8-2.4,0.8H28.4z M28.4,15.6
			v2.6h0.7c1,0,1.5-0.4,1.5-1.3c0-0.9-0.5-1.3-1.5-1.3H28.4z"/>
		<path fill="#FFFFFF" d="M39.8,15.7h-2.4v6.9h-1.9v-6.9h-2.4v-1.5h6.7V15.7z"/>
		<path fill="#FFFFFF" d="M44,22.7c-1.2,0-2.2-0.4-2.9-1.2s-1.1-1.8-1.1-3.1c0-1.3,0.4-2.4,1.2-3.2s1.8-1.2,3.1-1.2
			c1.2,0,2.2,0.4,2.9,1.2s1.1,1.8,1.1,3.1c0,1.3-0.4,2.4-1.2,3.2S45.3,22.7,44,22.7z M44.1,15.6c-0.7,0-1.2,0.2-1.6,0.7
			s-0.6,1.2-0.6,2c0,0.8,0.2,1.5,0.6,2s0.9,0.7,1.5,0.7c0.7,0,1.2-0.2,1.6-0.7s0.6-1.1,0.6-2c0-0.9-0.2-1.5-0.6-2
			S44.7,15.6,44.1,15.6z"/>
	</g>
	<rect x="14.1" y="77.5" display="inline" fill="#FFFFFF" stroke="#A7A8AA" stroke-miterlimit="10" width="233.6" height="157"/>
	<rect x="20.9" y="83.2" display="inline" fill="#009CDE" width="219.3" height="14.1"/>
	<rect x="28.6" y="116.4" display="inline" fill="#E8E8E8" width="204.6" height="15.9"/>
	<rect x="171.5" y="211.6" display="inline" fill="#004C97" width="62" height="15.8"/>
	<rect x="28.2" y="106.4" display="inline" fill="#A7A8AA" width="96.2" height="5.3"/>
	<rect x="28.7" y="149.6" display="inline" fill="#E8E8E8" width="205.5" height="15.9"/>
	<rect x="28.9" y="139.6" display="inline" fill="#A7A8AA" width="58.7" height="5.3"/>
	<rect x="28.7" y="185.3" display="inline" fill="#E8E8E8" width="205.5" height="15.9"/>
	<rect x="28.9" y="175.3" display="inline" fill="#A7A8AA" width="85.2" height="5.3"/>
	<rect x="301.8" y="7.7" display="inline" fill="#EFEFEF" stroke="#63666A" stroke-miterlimit="10" width="256.5" height="534.4"/>
	<rect x="301.8" y="6" display="inline" fill="#004C97" width="255.9" height="23.2"/>
	<g display="inline">
		<path fill="#FFFFFF" d="M317.5,18.6c0,2.5-1.2,3.8-3.5,3.8c-2.3,0-3.4-1.2-3.4-3.7v-4.9h1.9v4.9c0,1.4,0.5,2,1.6,2
			c1,0,1.6-0.7,1.6-2v-4.9h1.9V18.6z"/>
		<path fill="#FFFFFF" d="M318.9,21.9V20c0.3,0.3,0.7,0.5,1.1,0.6s0.8,0.2,1.2,0.2c0.2,0,0.4,0,0.6-0.1s0.3-0.1,0.4-0.2
			s0.2-0.2,0.3-0.3s0.1-0.2,0.1-0.3c0-0.2,0-0.3-0.1-0.4s-0.2-0.2-0.4-0.4s-0.4-0.2-0.6-0.3s-0.5-0.2-0.7-0.3
			c-0.7-0.3-1.1-0.6-1.5-1s-0.5-0.9-0.5-1.4c0-0.4,0.1-0.8,0.3-1.1s0.4-0.6,0.7-0.8s0.7-0.4,1.1-0.4s0.8-0.1,1.3-0.1
			c0.4,0,0.8,0,1.2,0.1s0.6,0.1,0.9,0.2v1.8c-0.1-0.1-0.3-0.2-0.5-0.3s-0.3-0.1-0.5-0.2s-0.4-0.1-0.5-0.1s-0.3,0-0.5,0
			c-0.2,0-0.4,0-0.6,0.1s-0.3,0.1-0.4,0.2s-0.2,0.2-0.3,0.3s-0.1,0.2-0.1,0.3c0,0.1,0,0.3,0.1,0.4s0.2,0.2,0.3,0.3s0.3,0.2,0.5,0.3
			s0.4,0.2,0.7,0.3c0.3,0.1,0.6,0.3,0.9,0.4s0.5,0.3,0.7,0.5s0.3,0.4,0.4,0.7s0.2,0.6,0.2,0.9c0,0.5-0.1,0.9-0.3,1.2
			s-0.4,0.6-0.7,0.8s-0.7,0.3-1.1,0.4s-0.8,0.1-1.3,0.1c-0.5,0-0.9,0-1.3-0.1S319.2,22.1,318.9,21.9z"/>
		<path fill="#FFFFFF" d="M327.9,19.3v2.9H326v-8.4h3c2.1,0,3.2,0.9,3.2,2.7c0,0.8-0.3,1.5-0.9,2s-1.4,0.8-2.4,0.8H327.9z
			 M327.9,15.3v2.6h0.7c1,0,1.5-0.4,1.5-1.3c0-0.9-0.5-1.3-1.5-1.3H327.9z"/>
		<path fill="#FFFFFF" d="M339.3,15.4h-2.4v6.9H335v-6.9h-2.4v-1.5h6.7V15.4z"/>
		<path fill="#FFFFFF" d="M343.5,22.4c-1.2,0-2.2-0.4-2.9-1.2s-1.1-1.8-1.1-3.1c0-1.3,0.4-2.4,1.2-3.2s1.8-1.2,3.1-1.2
			c1.2,0,2.2,0.4,2.9,1.2s1.1,1.8,1.1,3.1c0,1.3-0.4,2.4-1.2,3.2S344.8,22.4,343.5,22.4z M343.6,15.3c-0.7,0-1.2,0.2-1.6,0.7
			s-0.6,1.2-0.6,2c0,0.8,0.2,1.5,0.6,2s0.9,0.7,1.5,0.7c0.7,0,1.2-0.2,1.6-0.7s0.6-1.1,0.6-2c0-0.9-0.2-1.5-0.6-2
			S344.3,15.3,343.6,15.3z"/>
	</g>
	<rect x="313.7" y="77.1" display="inline" fill="#FFFFFF" stroke="#A7A8AA" stroke-miterlimit="10" width="233.6" height="140.4"/>
	<rect x="320.4" y="82.9" display="inline" fill="#009CDE" width="219.3" height="14.1"/>
	<rect x="484.3" y="512.3" display="inline" fill="#004C97" width="62" height="15.8"/>
	<g display="inline">
		<rect x="346.3" y="124.1" fill="#E8E8E8" width="84.9" height="5.8"/>
		<rect x="331.3" y="110.1" fill="#A7A8AA" width="60.7" height="5.3"/>
		<circle fill="#004C97" cx="336.1" cy="126.8" r="4.8"/>
		<rect x="345.7" y="139.8" fill="#E8E8E8" width="61.9" height="5.8"/>
		<circle fill="#E8E8E8" cx="335.5" cy="142.6" r="4.8"/>
		<rect x="345.3" y="155.8" fill="#E8E8E8" width="118.1" height="5.8"/>
		<circle fill="#E8E8E8" cx="335.1" cy="158.6" r="4.8"/>
		<rect x="345.3" y="172.3" fill="#E8E8E8" width="39.1" height="5.8"/>
		<circle fill="#E8E8E8" cx="335.1" cy="175.1" r="4.8"/>
	</g>
	<rect x="601.4" y="12.4" display="inline" fill="#EFEFEF" stroke="#63666A" stroke-miterlimit="10" width="256.5" height="241.1"/>
	<rect x="601.4" y="6.7" display="inline" fill="#004C97" width="255.9" height="23.2"/>
	<g display="inline">
		<path fill="#FFFFFF" d="M617,19.2c0,2.5-1.2,3.8-3.5,3.8c-2.3,0-3.4-1.2-3.4-3.7v-4.9h1.9v4.9c0,1.4,0.5,2,1.6,2
			c1,0,1.6-0.7,1.6-2v-4.9h1.9V19.2z"/>
		<path fill="#FFFFFF" d="M618.4,22.6v-1.9c0.3,0.3,0.7,0.5,1.1,0.6s0.8,0.2,1.2,0.2c0.2,0,0.4,0,0.6-0.1s0.3-0.1,0.4-0.2
			s0.2-0.2,0.3-0.3s0.1-0.2,0.1-0.3c0-0.2,0-0.3-0.1-0.4s-0.2-0.2-0.4-0.4s-0.4-0.2-0.6-0.3s-0.5-0.2-0.7-0.3
			c-0.7-0.3-1.1-0.6-1.5-1s-0.5-0.9-0.5-1.4c0-0.4,0.1-0.8,0.3-1.1s0.4-0.6,0.7-0.8s0.7-0.4,1.1-0.4s0.8-0.1,1.3-0.1
			c0.4,0,0.8,0,1.2,0.1s0.6,0.1,0.9,0.2v1.8c-0.1-0.1-0.3-0.2-0.5-0.3S623,16,622.8,16s-0.4-0.1-0.5-0.1s-0.3,0-0.5,0
			c-0.2,0-0.4,0-0.6,0.1s-0.3,0.1-0.4,0.2s-0.2,0.2-0.3,0.3s-0.1,0.2-0.1,0.3c0,0.1,0,0.3,0.1,0.4s0.2,0.2,0.3,0.3s0.3,0.2,0.5,0.3
			s0.4,0.2,0.7,0.3c0.3,0.1,0.6,0.3,0.9,0.4s0.5,0.3,0.7,0.5s0.3,0.4,0.4,0.7s0.2,0.6,0.2,0.9c0,0.5-0.1,0.9-0.3,1.2
			s-0.4,0.6-0.7,0.8s-0.7,0.3-1.1,0.4s-0.8,0.1-1.3,0.1c-0.5,0-0.9,0-1.3-0.1S618.7,22.7,618.4,22.6z"/>
		<path fill="#FFFFFF" d="M627.4,20v2.9h-1.9v-8.4h3c2.1,0,3.2,0.9,3.2,2.7c0,0.8-0.3,1.5-0.9,2s-1.4,0.8-2.4,0.8H627.4z
			 M627.4,15.9v2.6h0.7c1,0,1.5-0.4,1.5-1.3c0-0.9-0.5-1.3-1.5-1.3H627.4z"/>
		<path fill="#FFFFFF" d="M638.8,16h-2.4v6.9h-1.9V16h-2.4v-1.5h6.7V16z"/>
		<path fill="#FFFFFF" d="M643,23c-1.2,0-2.2-0.4-2.9-1.2S639,20,639,18.8c0-1.3,0.4-2.4,1.2-3.2s1.8-1.2,3.1-1.2
			c1.2,0,2.2,0.4,2.9,1.2s1.1,1.8,1.1,3.1c0,1.3-0.4,2.4-1.2,3.2S644.3,23,643,23z M643.1,16c-0.7,0-1.2,0.2-1.6,0.7s-0.6,1.2-0.6,2
			c0,0.8,0.2,1.5,0.6,2s0.9,0.7,1.5,0.7c0.7,0,1.2-0.2,1.6-0.7s0.6-1.1,0.6-2c0-0.9-0.2-1.5-0.6-2S643.8,16,643.1,16z"/>
	</g>
	<rect x="613.2" y="76.8" display="inline" fill="#FFFFFF" stroke="#A7A8AA" stroke-miterlimit="10" width="233.6" height="157"/>
	<rect x="620" y="82.6" display="inline" fill="#009CDE" width="219.3" height="14.1"/>
	<rect x="770.5" y="211" display="inline" fill="#004C97" width="62" height="15.8"/>
	<rect x="631.4" y="115.3" display="inline" fill="#E8E8E8" width="193.7" height="57.1"/>
	<rect x="630.3" y="105.3" display="inline" fill="#A7A8AA" width="60.7" height="5.3"/>
	<rect x="900.9" y="13.7" display="inline" fill="#EFEFEF" stroke="#63666A" stroke-miterlimit="10" width="256.5" height="240.4"/>
	<rect x="900.9" y="6" display="inline" fill="#004C97" width="255.9" height="23.2"/>
	<g display="inline">
		<path fill="#FFFFFF" d="M916.5,18.6c0,2.5-1.2,3.8-3.5,3.8c-2.3,0-3.4-1.2-3.4-3.7v-4.9h1.9v4.9c0,1.4,0.5,2,1.6,2
			c1,0,1.6-0.7,1.6-2v-4.9h1.9V18.6z"/>
		<path fill="#FFFFFF" d="M917.9,21.9V20c0.3,0.3,0.7,0.5,1.1,0.6s0.8,0.2,1.2,0.2c0.2,0,0.4,0,0.6-0.1s0.3-0.1,0.4-0.2
			s0.2-0.2,0.3-0.3s0.1-0.2,0.1-0.3c0-0.2,0-0.3-0.1-0.4s-0.2-0.2-0.4-0.4s-0.4-0.2-0.6-0.3s-0.5-0.2-0.7-0.3
			c-0.7-0.3-1.1-0.6-1.5-1s-0.5-0.9-0.5-1.4c0-0.4,0.1-0.8,0.3-1.1s0.4-0.6,0.7-0.8s0.7-0.4,1.1-0.4s0.8-0.1,1.3-0.1
			c0.4,0,0.8,0,1.2,0.1s0.6,0.1,0.9,0.2v1.8c-0.1-0.1-0.3-0.2-0.5-0.3s-0.3-0.1-0.5-0.2s-0.4-0.1-0.5-0.1s-0.3,0-0.5,0
			c-0.2,0-0.4,0-0.6,0.1s-0.3,0.1-0.4,0.2s-0.2,0.2-0.3,0.3s-0.1,0.2-0.1,0.3c0,0.1,0,0.3,0.1,0.4s0.2,0.2,0.3,0.3s0.3,0.2,0.5,0.3
			s0.4,0.2,0.7,0.3c0.3,0.1,0.6,0.3,0.9,0.4s0.5,0.3,0.7,0.5s0.3,0.4,0.4,0.7s0.2,0.6,0.2,0.9c0,0.5-0.1,0.9-0.3,1.2
			s-0.4,0.6-0.7,0.8s-0.7,0.3-1.1,0.4s-0.8,0.1-1.3,0.1c-0.5,0-0.9,0-1.3-0.1S918.2,22.1,917.9,21.9z"/>
		<path fill="#FFFFFF" d="M926.9,19.3v2.9h-1.9v-8.4h3c2.1,0,3.2,0.9,3.2,2.7c0,0.8-0.3,1.5-0.9,2s-1.4,0.8-2.4,0.8H926.9z
			 M926.9,15.3v2.6h0.7c1,0,1.5-0.4,1.5-1.3c0-0.9-0.5-1.3-1.5-1.3H926.9z"/>
		<path fill="#FFFFFF" d="M938.3,15.4h-2.4v6.9H934v-6.9h-2.4v-1.5h6.7V15.4z"/>
		<path fill="#FFFFFF" d="M942.6,22.4c-1.2,0-2.2-0.4-2.9-1.2s-1.1-1.8-1.1-3.1c0-1.3,0.4-2.4,1.2-3.2s1.8-1.2,3.1-1.2
			c1.2,0,2.2,0.4,2.9,1.2s1.1,1.8,1.1,3.1c0,1.3-0.4,2.4-1.2,3.2S943.8,22.4,942.6,22.4z M942.6,15.3c-0.7,0-1.2,0.2-1.6,0.7
			s-0.6,1.2-0.6,2c0,0.8,0.2,1.5,0.6,2s0.9,0.7,1.5,0.7c0.7,0,1.2-0.2,1.6-0.7s0.6-1.1,0.6-2c0-0.9-0.2-1.5-0.6-2
			S943.3,15.3,942.6,15.3z"/>
	</g>
	<rect x="912.7" y="78.1" display="inline" fill="#FFFFFF" stroke="#A7A8AA" stroke-miterlimit="10" width="233.6" height="157"/>
	<rect x="919.5" y="83.9" display="inline" fill="#009CDE" width="219.3" height="14.1"/>
	<rect x="1070" y="212.3" display="inline" fill="#004C97" width="62" height="15.8"/>
	<rect x="945.4" y="121.3" display="inline" fill="#E8E8E8" width="108.4" height="5.8"/>
	<rect x="930.4" y="107.3" display="inline" fill="#A7A8AA" width="60.7" height="5.3"/>
	<rect x="944.7" y="137" display="inline" fill="#E8E8E8" width="61.9" height="5.8"/>
	<rect x="944.4" y="153" display="inline" fill="#E8E8E8" width="163.6" height="5.8"/>
	<rect x="944.4" y="169.5" display="inline" fill="#E8E8E8" width="30.7" height="5.8"/>
	<rect x="931.4" y="119.3" display="inline" fill="#004C97" width="9.5" height="9.5"/>
	<rect x="931.4" y="135.2" display="inline" fill="#E8E8E8" width="9.5" height="9.5"/>
	<rect x="931.2" y="151.2" display="inline" fill="#E8E8E8" width="9.5" height="9.5"/>
	<rect x="931.4" y="167.7" display="inline" fill="#E8E8E8" width="9.5" height="9.5"/>
	<path display="inline" fill="#A7A8AA" d="M291.3,95.9c1.1,1.9,1.7,4.1,1.7,6.4c0,2.3-0.6,4.4-1.7,6.4c-1.1,1.9-2.7,3.5-4.6,4.6
		c-1.9,1.1-4.1,1.7-6.4,1.7c-2.3,0-4.4-0.6-6.4-1.7c-1.9-1.1-3.5-2.7-4.6-4.6c-1.1-1.9-1.7-4.1-1.7-6.4c0-2.3,0.6-4.4,1.7-6.4
		c1.1-1.9,2.7-3.5,4.6-4.6c1.9-1.1,4.1-1.7,6.4-1.7c2.3,0,4.4,0.6,6.4,1.7C288.6,92.4,290.2,94,291.3,95.9z M288.9,102.3
		c0-0.3-0.1-0.5-0.3-0.7l-1.5-1.5l-6-6c-0.2-0.2-0.4-0.3-0.7-0.3c-0.3,0-0.5,0.1-0.7,0.3l-1.5,1.5c-0.2,0.2-0.3,0.4-0.3,0.7
		c0,0.3,0.1,0.5,0.3,0.7l3.1,3.1h-8.3c-0.3,0-0.5,0.1-0.7,0.3c-0.2,0.2-0.3,0.5-0.3,0.7v2.1c0,0.3,0.1,0.5,0.3,0.7
		c0.2,0.2,0.5,0.3,0.7,0.3h8.3l-3.1,3.1c-0.2,0.2-0.3,0.5-0.3,0.7s0.1,0.5,0.3,0.7l1.5,1.5c0.2,0.2,0.4,0.3,0.7,0.3
		c0.3,0,0.5-0.1,0.7-0.3l6-6l1.5-1.5C288.8,102.8,288.9,102.6,288.9,102.3z"/>
	<path display="inline" fill="#A7A8AA" d="M590.8,95.9c1.1,1.9,1.7,4.1,1.7,6.4c0,2.3-0.6,4.4-1.7,6.4c-1.1,1.9-2.7,3.5-4.6,4.6
		c-1.9,1.1-4.1,1.7-6.4,1.7c-2.3,0-4.4-0.6-6.4-1.7c-1.9-1.1-3.5-2.7-4.6-4.6c-1.1-1.9-1.7-4.1-1.7-6.4c0-2.3,0.6-4.4,1.7-6.4
		c1.1-1.9,2.7-3.5,4.6-4.6c1.9-1.1,4.1-1.7,6.4-1.7c2.3,0,4.4,0.6,6.4,1.7C588.2,92.4,589.7,94,590.8,95.9z M588.4,102.3
		c0-0.3-0.1-0.5-0.3-0.7l-1.5-1.5l-6-6c-0.2-0.2-0.4-0.3-0.7-0.3c-0.3,0-0.5,0.1-0.7,0.3l-1.5,1.5c-0.2,0.2-0.3,0.4-0.3,0.7
		c0,0.3,0.1,0.5,0.3,0.7l3.1,3.1h-8.3c-0.3,0-0.5,0.1-0.7,0.3c-0.2,0.2-0.3,0.5-0.3,0.7v2.1c0,0.3,0.1,0.5,0.3,0.7
		c0.2,0.2,0.5,0.3,0.7,0.3h8.3l-3.1,3.1c-0.2,0.2-0.3,0.5-0.3,0.7s0.1,0.5,0.3,0.7l1.5,1.5c0.2,0.2,0.4,0.3,0.7,0.3
		c0.3,0,0.5-0.1,0.7-0.3l6-6l1.5-1.5C588.3,102.8,588.4,102.6,588.4,102.3z"/>
	<path display="inline" fill="#A7A8AA" d="M890.4,95.9c1.1,1.9,1.7,4.1,1.7,6.4c0,2.3-0.6,4.4-1.7,6.4c-1.1,1.9-2.7,3.5-4.6,4.6
		c-1.9,1.1-4.1,1.7-6.4,1.7c-2.3,0-4.4-0.6-6.4-1.7c-1.9-1.1-3.5-2.7-4.6-4.6c-1.1-1.9-1.7-4.1-1.7-6.4c0-2.3,0.6-4.4,1.7-6.4
		c1.1-1.9,2.7-3.5,4.6-4.6c1.9-1.1,4.1-1.7,6.4-1.7c2.3,0,4.4,0.6,6.4,1.7C887.7,92.4,889.2,94,890.4,95.9z M887.9,102.3
		c0-0.3-0.1-0.5-0.3-0.7l-1.5-1.5l-6-6c-0.2-0.2-0.4-0.3-0.7-0.3c-0.3,0-0.5,0.1-0.7,0.3l-1.5,1.5c-0.2,0.2-0.3,0.4-0.3,0.7
		c0,0.3,0.1,0.5,0.3,0.7l3.1,3.1H872c-0.3,0-0.5,0.1-0.7,0.3c-0.2,0.2-0.3,0.5-0.3,0.7v2.1c0,0.3,0.1,0.5,0.3,0.7
		c0.2,0.2,0.5,0.3,0.7,0.3h8.3l-3.1,3.1c-0.2,0.2-0.3,0.5-0.3,0.7s0.1,0.5,0.3,0.7l1.5,1.5c0.2,0.2,0.4,0.3,0.7,0.3
		c0.3,0,0.5-0.1,0.7-0.3l6-6l1.5-1.5C887.8,102.8,887.9,102.6,887.9,102.3z"/>
	<g display="inline">
		<polygon fill="#D9D9D6" stroke="#FFFFFF" stroke-miterlimit="10" points="248.3,61 189,61 189,45.4 248.3,45.4 248.3,53.2 		"/>
		<polygon fill="#D9D9D6" stroke="#FFFFFF" stroke-miterlimit="10" points="190.2,61 130.8,61 130.8,45.4 190.2,45.4 198.1,53.2 		
			"/>
		<polygon fill="#D9D9D6" stroke="#FFFFFF" stroke-miterlimit="10" points="132.3,61 72.9,61 72.9,45.4 132.3,45.4 140.2,53.2 		"/>
		<polygon fill="#003865" stroke="#FFFFFF" stroke-miterlimit="10" points="74,61 14.7,61 14.7,45.4 74,45.4 82,53.2 		"/>
	</g>
	
		<rect x="313.7" y="232.7" display="inline" fill="#FFFFFF" stroke="#A7A8AA" stroke-miterlimit="10" width="233.6" height="119.7"/>
	<rect x="320.4" y="238.4" display="inline" fill="#009CDE" width="219.3" height="14.1"/>
	<rect x="331.9" y="271.1" display="inline" fill="#E8E8E8" width="193.7" height="57.1"/>
	<rect x="330.8" y="261.1" display="inline" fill="#A7A8AA" width="60.7" height="5.3"/>
	<g display="inline">
		<rect x="313.7" y="370.8" fill="#FFFFFF" stroke="#A7A8AA" stroke-miterlimit="10" width="233.6" height="126.4"/>
		<rect x="320.4" y="376.6" fill="#009CDE" width="219.3" height="14.1"/>
		<rect x="346.3" y="414" fill="#E8E8E8" width="108.4" height="5.8"/>
		<rect x="331.3" y="400" fill="#A7A8AA" width="60.7" height="5.3"/>
		<rect x="345.7" y="429.7" fill="#E8E8E8" width="61.9" height="5.8"/>
		<rect x="345.3" y="445.7" fill="#E8E8E8" width="163.6" height="5.8"/>
		<rect x="345.3" y="462.2" fill="#E8E8E8" width="30.7" height="5.8"/>
		<rect x="332.3" y="412" fill="#004C97" width="9.5" height="9.5"/>
		<rect x="332.3" y="427.9" fill="#E8E8E8" width="9.5" height="9.5"/>
		<rect x="332.2" y="443.9" fill="#E8E8E8" width="9.5" height="9.5"/>
		<rect x="332.3" y="460.4" fill="#E8E8E8" width="9.5" height="9.5"/>
	</g>
	<g display="inline">
		<polygon fill="#D9D9D6" stroke="#FFFFFF" stroke-miterlimit="10" points="546.6,61 487.3,61 487.3,45.4 546.6,45.4 546.6,53.2 		
			"/>
		<polygon fill="#D9D9D6" stroke="#FFFFFF" stroke-miterlimit="10" points="488.5,61 429.1,61 429.1,45.4 488.5,45.4 496.4,53.2 		
			"/>
		<polygon fill="#003865" stroke="#FFFFFF" stroke-miterlimit="10" points="430.6,61 371.2,61 371.2,45.4 430.6,45.4 438.5,53.2 		
			"/>
		<polygon fill="#D9D9D6" stroke="#FFFFFF" stroke-miterlimit="10" points="372.3,61 313,61 313,45.4 372.3,45.4 380.3,53.2 		"/>
	</g>
	<g display="inline">
		<polygon fill="#D9D9D6" stroke="#FFFFFF" stroke-miterlimit="10" points="846.4,62.6 787.1,62.6 787.1,47 846.4,47 846.4,54.8 		
			"/>
		<polygon fill="#003865" stroke="#FFFFFF" stroke-miterlimit="10" points="788.3,62.6 728.9,62.6 728.9,47 788.3,47 796.2,54.8 		
			"/>
		<polygon fill="#D9D9D6" stroke="#FFFFFF" stroke-miterlimit="10" points="730.4,62.6 671.1,62.6 671.1,47 730.4,47 738.4,54.8 		
			"/>
		<polygon fill="#D9D9D6" stroke="#FFFFFF" stroke-miterlimit="10" points="672.1,62.6 612.8,62.6 612.8,47 672.1,47 680.1,54.8 		
			"/>
	</g>
	<g display="inline">
		<polygon fill="#003865" stroke="#FFFFFF" stroke-miterlimit="10" points="1146.3,62.6 1087,62.6 1087,47 1146.3,47 1146.3,54.8 		
			"/>
		<polygon fill="#D9D9D6" stroke="#FFFFFF" stroke-miterlimit="10" points="1088.2,62.6 1028.8,62.6 1028.8,47 1088.2,47 
			1096.1,54.8 		"/>
		<polygon fill="#D9D9D6" stroke="#FFFFFF" stroke-miterlimit="10" points="1030.3,62.6 971,62.6 971,47 1030.3,47 1038.3,54.8 		
			"/>
		<polygon fill="#D9D9D6" stroke="#FFFFFF" stroke-miterlimit="10" points="972,62.6 912.7,62.6 912.7,47 972,47 980,54.8 		"/>
	</g>
</g>
<g id="Accordian_Form" display="none">
	<rect x="2" y="50.6" display="inline" fill="#EFEFEF" stroke="#63666A" stroke-miterlimit="10" width="256.5" height="217.7"/>
	<rect x="2" y="50.9" display="inline" fill="#004C97" width="255.9" height="23.2"/>
	<g display="inline">
		<path fill="#FFFFFF" d="M17.7,63.5c0,2.5-1.2,3.8-3.5,3.8c-2.3,0-3.4-1.2-3.4-3.7v-4.9h1.9v4.9c0,1.4,0.5,2,1.6,2
			c1,0,1.6-0.7,1.6-2v-4.9h1.9V63.5z"/>
		<path fill="#FFFFFF" d="M19.1,66.8v-1.9c0.3,0.3,0.7,0.5,1.1,0.6s0.8,0.2,1.2,0.2c0.2,0,0.4,0,0.6-0.1s0.3-0.1,0.4-0.2
			s0.2-0.2,0.3-0.3s0.1-0.2,0.1-0.3c0-0.2,0-0.3-0.1-0.4s-0.2-0.2-0.4-0.4s-0.4-0.2-0.6-0.3s-0.5-0.2-0.7-0.3
			c-0.7-0.3-1.1-0.6-1.5-1s-0.5-0.9-0.5-1.4c0-0.4,0.1-0.8,0.3-1.1s0.4-0.6,0.7-0.8s0.7-0.4,1.1-0.4s0.8-0.1,1.3-0.1
			c0.4,0,0.8,0,1.2,0.1s0.6,0.1,0.9,0.2v1.8c-0.1-0.1-0.3-0.2-0.5-0.3s-0.3-0.1-0.5-0.2s-0.4-0.1-0.5-0.1s-0.3,0-0.5,0
			c-0.2,0-0.4,0-0.6,0.1s-0.3,0.1-0.4,0.2s-0.2,0.2-0.3,0.3S21,60.8,21,60.9c0,0.1,0,0.3,0.1,0.4s0.2,0.2,0.3,0.3s0.3,0.2,0.5,0.3
			s0.4,0.2,0.7,0.3c0.3,0.1,0.6,0.3,0.9,0.4s0.5,0.3,0.7,0.5s0.3,0.4,0.4,0.7c0.1,0.3,0.2,0.6,0.2,0.9c0,0.5-0.1,0.9-0.3,1.2
			s-0.4,0.6-0.7,0.8s-0.7,0.3-1.1,0.4s-0.8,0.1-1.3,0.1c-0.5,0-0.9,0-1.3-0.1S19.4,66.9,19.1,66.8z"/>
		<path fill="#FFFFFF" d="M28.1,64.2v2.9h-1.9v-8.4h3c2.1,0,3.2,0.9,3.2,2.7c0,0.8-0.3,1.5-0.9,2S30,64.2,29,64.2H28.1z M28.1,60.2
			v2.6h0.7c1,0,1.5-0.4,1.5-1.3c0-0.9-0.5-1.3-1.5-1.3H28.1z"/>
		<path fill="#FFFFFF" d="M39.5,60.2h-2.4v6.9h-1.9v-6.9h-2.4v-1.5h6.7V60.2z"/>
		<path fill="#FFFFFF" d="M43.7,67.3c-1.2,0-2.2-0.4-2.9-1.2s-1.1-1.8-1.1-3.1c0-1.3,0.4-2.4,1.2-3.2s1.8-1.2,3.1-1.2
			c1.2,0,2.2,0.4,2.9,1.2s1.1,1.8,1.1,3.1c0,1.3-0.4,2.4-1.2,3.2S44.9,67.3,43.7,67.3z M43.8,60.2c-0.7,0-1.2,0.2-1.6,0.7
			s-0.6,1.2-0.6,2c0,0.8,0.2,1.5,0.6,2s0.9,0.7,1.5,0.7c0.7,0,1.2-0.2,1.6-0.7s0.6-1.1,0.6-2c0-0.9-0.2-1.5-0.6-2
			S44.4,60.2,43.8,60.2z"/>
	</g>
	<rect x="13.8" y="92" display="inline" fill="#FFFFFF" stroke="#A7A8AA" stroke-miterlimit="10" width="233.6" height="157"/>
	<rect x="20.6" y="97.8" display="inline" fill="#009CDE" width="219.3" height="14.1"/>
	<rect x="28.3" y="131" display="inline" fill="#E8E8E8" width="204.6" height="15.9"/>
	<rect x="171.2" y="226.2" display="inline" fill="#004C97" width="62" height="15.8"/>
	<rect x="27.9" y="121" display="inline" fill="#A7A8AA" width="96.2" height="5.3"/>
	<rect x="28.4" y="164.2" display="inline" fill="#E8E8E8" width="205.5" height="15.9"/>
	<rect x="28.5" y="154.2" display="inline" fill="#A7A8AA" width="58.7" height="5.3"/>
	<rect x="28.4" y="199.9" display="inline" fill="#E8E8E8" width="205.5" height="15.9"/>
	<rect x="28.5" y="189.9" display="inline" fill="#A7A8AA" width="85.2" height="5.3"/>
	<rect x="301.5" y="50.3" display="inline" fill="#EFEFEF" stroke="#63666A" stroke-miterlimit="10" width="256.5" height="234.4"/>
	<rect x="301.5" y="50.6" display="inline" fill="#004C97" width="255.9" height="23.2"/>
	<g display="inline">
		<path fill="#FFFFFF" d="M317.2,63.1c0,2.5-1.2,3.8-3.5,3.8c-2.3,0-3.4-1.2-3.4-3.7v-4.9h1.9v4.9c0,1.4,0.5,2,1.6,2
			c1,0,1.6-0.7,1.6-2v-4.9h1.9V63.1z"/>
		<path fill="#FFFFFF" d="M318.6,66.5v-1.9c0.3,0.3,0.7,0.5,1.1,0.6s0.8,0.2,1.2,0.2c0.2,0,0.4,0,0.6-0.1s0.3-0.1,0.4-0.2
			s0.2-0.2,0.3-0.3s0.1-0.2,0.1-0.3c0-0.2,0-0.3-0.1-0.4s-0.2-0.2-0.4-0.4s-0.4-0.2-0.6-0.3s-0.5-0.2-0.7-0.3
			c-0.7-0.3-1.1-0.6-1.5-1s-0.5-0.9-0.5-1.4c0-0.4,0.1-0.8,0.3-1.1s0.4-0.6,0.7-0.8s0.7-0.4,1.1-0.4s0.8-0.1,1.3-0.1
			c0.4,0,0.8,0,1.2,0.1s0.6,0.1,0.9,0.2v1.8c-0.1-0.1-0.3-0.2-0.5-0.3s-0.3-0.1-0.5-0.2s-0.4-0.1-0.5-0.1s-0.3,0-0.5,0
			c-0.2,0-0.4,0-0.6,0.1s-0.3,0.1-0.4,0.2s-0.2,0.2-0.3,0.3s-0.1,0.2-0.1,0.3c0,0.1,0,0.3,0.1,0.4s0.2,0.2,0.3,0.3s0.3,0.2,0.5,0.3
			s0.4,0.2,0.7,0.3c0.3,0.1,0.6,0.3,0.9,0.4s0.5,0.3,0.7,0.5s0.3,0.4,0.4,0.7s0.2,0.6,0.2,0.9c0,0.5-0.1,0.9-0.3,1.2
			s-0.4,0.6-0.7,0.8s-0.7,0.3-1.1,0.4s-0.8,0.1-1.3,0.1c-0.5,0-0.9,0-1.3-0.1S318.9,66.6,318.6,66.5z"/>
		<path fill="#FFFFFF" d="M327.6,63.9v2.9h-1.9v-8.4h3c2.1,0,3.2,0.9,3.2,2.7c0,0.8-0.3,1.5-0.9,2s-1.4,0.8-2.4,0.8H327.6z
			 M327.6,59.8v2.6h0.7c1,0,1.5-0.4,1.5-1.3c0-0.9-0.5-1.3-1.5-1.3H327.6z"/>
		<path fill="#FFFFFF" d="M339,59.9h-2.4v6.9h-1.9v-6.9h-2.4v-1.5h6.7V59.9z"/>
		<path fill="#FFFFFF" d="M343.2,66.9c-1.2,0-2.2-0.4-2.9-1.2s-1.1-1.8-1.1-3.1c0-1.3,0.4-2.4,1.2-3.2s1.8-1.2,3.1-1.2
			c1.2,0,2.2,0.4,2.9,1.2s1.1,1.8,1.1,3.1c0,1.3-0.4,2.4-1.2,3.2S344.5,66.9,343.2,66.9z M343.3,59.9c-0.7,0-1.2,0.2-1.6,0.7
			s-0.6,1.2-0.6,2c0,0.8,0.2,1.5,0.6,2s0.9,0.7,1.5,0.7c0.7,0,1.2-0.2,1.6-0.7s0.6-1.1,0.6-2c0-0.9-0.2-1.5-0.6-2
			S344,59.9,343.3,59.9z"/>
	</g>
	
		<rect x="313.4" y="129.7" display="inline" fill="#FFFFFF" stroke="#A7A8AA" stroke-miterlimit="10" width="233.6" height="140.4"/>
	<rect x="320.1" y="135.5" display="inline" fill="#009CDE" width="219.3" height="14.1"/>
	<rect x="470.7" y="243.9" display="inline" fill="#004C97" width="62" height="15.8"/>
	<g display="inline">
		<rect x="346" y="176.6" fill="#E8E8E8" width="84.9" height="5.8"/>
		<rect x="331" y="162.6" fill="#A7A8AA" width="60.7" height="5.3"/>
		<circle fill="#004C97" cx="335.8" cy="179.4" r="4.8"/>
		<rect x="345.4" y="192.4" fill="#E8E8E8" width="61.9" height="5.8"/>
		<circle fill="#004C97" cx="335.2" cy="195.1" r="4.8"/>
		<rect x="345" y="208.4" fill="#E8E8E8" width="118.1" height="5.8"/>
		<circle fill="#004C97" cx="334.8" cy="211.1" r="4.8"/>
		<rect x="345" y="224.9" fill="#E8E8E8" width="39.1" height="5.8"/>
		<circle fill="#004C97" cx="334.8" cy="227.6" r="4.8"/>
	</g>
	<rect x="601" y="51" display="inline" fill="#EFEFEF" stroke="#63666A" stroke-miterlimit="10" width="256.5" height="287.1"/>
	<rect x="601" y="51.2" display="inline" fill="#004C97" width="255.9" height="23.2"/>
	<g display="inline">
		<path fill="#FFFFFF" d="M616.7,63.8c0,2.5-1.2,3.8-3.5,3.8c-2.3,0-3.4-1.2-3.4-3.7V59h1.9v4.9c0,1.4,0.5,2,1.6,2
			c1,0,1.6-0.7,1.6-2V59h1.9V63.8z"/>
		<path fill="#FFFFFF" d="M618.1,67.1v-1.9c0.3,0.3,0.7,0.5,1.1,0.6s0.8,0.2,1.2,0.2c0.2,0,0.4,0,0.6-0.1s0.3-0.1,0.4-0.2
			s0.2-0.2,0.3-0.3s0.1-0.2,0.1-0.3c0-0.2,0-0.3-0.1-0.4s-0.2-0.2-0.4-0.4s-0.4-0.2-0.6-0.3s-0.5-0.2-0.7-0.3
			c-0.7-0.3-1.1-0.6-1.5-1s-0.5-0.9-0.5-1.4c0-0.4,0.1-0.8,0.3-1.1s0.4-0.6,0.7-0.8s0.7-0.4,1.1-0.4s0.8-0.1,1.3-0.1
			c0.4,0,0.8,0,1.2,0.1s0.6,0.1,0.9,0.2V61c-0.1-0.1-0.3-0.2-0.5-0.3s-0.3-0.1-0.5-0.2s-0.4-0.1-0.5-0.1s-0.3,0-0.5,0
			c-0.2,0-0.4,0-0.6,0.1s-0.3,0.1-0.4,0.2s-0.2,0.2-0.3,0.3s-0.1,0.2-0.1,0.3c0,0.1,0,0.3,0.1,0.4s0.2,0.2,0.3,0.3s0.3,0.2,0.5,0.3
			s0.4,0.2,0.7,0.3c0.3,0.1,0.6,0.3,0.9,0.4s0.5,0.3,0.7,0.5s0.3,0.4,0.4,0.7c0.1,0.3,0.2,0.6,0.2,0.9c0,0.5-0.1,0.9-0.3,1.2
			s-0.4,0.6-0.7,0.8s-0.7,0.3-1.1,0.4s-0.8,0.1-1.3,0.1c-0.5,0-0.9,0-1.3-0.1S618.4,67.3,618.1,67.1z"/>
		<path fill="#FFFFFF" d="M627.1,64.5v2.9h-1.9V59h3c2.1,0,3.2,0.9,3.2,2.7c0,0.8-0.3,1.5-0.9,2c-0.6,0.5-1.4,0.8-2.4,0.8H627.1z
			 M627.1,60.5v2.6h0.7c1,0,1.5-0.4,1.5-1.3c0-0.9-0.5-1.3-1.5-1.3H627.1z"/>
		<path fill="#FFFFFF" d="M638.5,60.6h-2.4v6.9h-1.9v-6.9h-2.4V59h6.7V60.6z"/>
		<path fill="#FFFFFF" d="M642.7,67.6c-1.2,0-2.2-0.4-2.9-1.2s-1.1-1.8-1.1-3.1c0-1.3,0.4-2.4,1.2-3.2s1.8-1.2,3.1-1.2
			c1.2,0,2.2,0.4,2.9,1.2s1.1,1.8,1.1,3.1c0,1.3-0.4,2.4-1.2,3.2S644,67.6,642.7,67.6z M642.8,60.5c-0.7,0-1.2,0.2-1.6,0.7
			s-0.6,1.2-0.6,2c0,0.8,0.2,1.5,0.6,2s0.9,0.7,1.5,0.7c0.7,0,1.2-0.2,1.6-0.7s0.6-1.1,0.6-2c0-0.9-0.2-1.5-0.6-2
			S643.5,60.5,642.8,60.5z"/>
	</g>
	<rect x="612.9" y="161.4" display="inline" fill="#FFFFFF" stroke="#A7A8AA" stroke-miterlimit="10" width="233.6" height="157"/>
	<rect x="619.7" y="167.1" display="inline" fill="#009CDE" width="219.3" height="14.1"/>
	<rect x="770.2" y="295.5" display="inline" fill="#004C97" width="62" height="15.8"/>
	<rect x="631.1" y="199.8" display="inline" fill="#E8E8E8" width="193.7" height="57.1"/>
	<rect x="630" y="189.8" display="inline" fill="#A7A8AA" width="60.7" height="5.3"/>
	<rect x="900.6" y="50.3" display="inline" fill="#EFEFEF" stroke="#63666A" stroke-miterlimit="10" width="256.5" height="332.4"/>
	<rect x="900.6" y="50.6" display="inline" fill="#004C97" width="255.9" height="23.2"/>
	<g display="inline">
		<path fill="#FFFFFF" d="M916.2,63.1c0,2.5-1.2,3.8-3.5,3.8c-2.3,0-3.4-1.2-3.4-3.7v-4.9h1.9v4.9c0,1.4,0.5,2,1.6,2
			c1,0,1.6-0.7,1.6-2v-4.9h1.9V63.1z"/>
		<path fill="#FFFFFF" d="M917.6,66.5v-1.9c0.3,0.3,0.7,0.5,1.1,0.6s0.8,0.2,1.2,0.2c0.2,0,0.4,0,0.6-0.1s0.3-0.1,0.4-0.2
			s0.2-0.2,0.3-0.3s0.1-0.2,0.1-0.3c0-0.2,0-0.3-0.1-0.4s-0.2-0.2-0.4-0.4s-0.4-0.2-0.6-0.3s-0.5-0.2-0.7-0.3
			c-0.7-0.3-1.1-0.6-1.5-1s-0.5-0.9-0.5-1.4c0-0.4,0.1-0.8,0.3-1.1s0.4-0.6,0.7-0.8s0.7-0.4,1.1-0.4s0.8-0.1,1.3-0.1
			c0.4,0,0.8,0,1.2,0.1s0.6,0.1,0.9,0.2v1.8c-0.1-0.1-0.3-0.2-0.5-0.3s-0.3-0.1-0.5-0.2s-0.4-0.1-0.5-0.1s-0.3,0-0.5,0
			c-0.2,0-0.4,0-0.6,0.1s-0.3,0.1-0.4,0.2s-0.2,0.2-0.3,0.3s-0.1,0.2-0.1,0.3c0,0.1,0,0.3,0.1,0.4s0.2,0.2,0.3,0.3s0.3,0.2,0.5,0.3
			s0.4,0.2,0.7,0.3c0.3,0.1,0.6,0.3,0.9,0.4s0.5,0.3,0.7,0.5s0.3,0.4,0.4,0.7s0.2,0.6,0.2,0.9c0,0.5-0.1,0.9-0.3,1.2
			s-0.4,0.6-0.7,0.8s-0.7,0.3-1.1,0.4s-0.8,0.1-1.3,0.1c-0.5,0-0.9,0-1.3-0.1S917.9,66.6,917.6,66.5z"/>
		<path fill="#FFFFFF" d="M926.6,63.9v2.9h-1.9v-8.4h3c2.1,0,3.2,0.9,3.2,2.7c0,0.8-0.3,1.5-0.9,2s-1.4,0.8-2.4,0.8H926.6z
			 M926.6,59.8v2.6h0.7c1,0,1.5-0.4,1.5-1.3c0-0.9-0.5-1.3-1.5-1.3H926.6z"/>
		<path fill="#FFFFFF" d="M938,59.9h-2.4v6.9h-1.9v-6.9h-2.4v-1.5h6.7V59.9z"/>
		<path fill="#FFFFFF" d="M942.3,66.9c-1.2,0-2.2-0.4-2.9-1.2s-1.1-1.8-1.1-3.1c0-1.3,0.4-2.4,1.2-3.2s1.8-1.2,3.1-1.2
			c1.2,0,2.2,0.4,2.9,1.2s1.1,1.8,1.1,3.1c0,1.3-0.4,2.4-1.2,3.2S943.5,66.9,942.3,66.9z M942.3,59.9c-0.7,0-1.2,0.2-1.6,0.7
			s-0.6,1.2-0.6,2c0,0.8,0.2,1.5,0.6,2s0.9,0.7,1.5,0.7c0.7,0,1.2-0.2,1.6-0.7s0.6-1.1,0.6-2c0-0.9-0.2-1.5-0.6-2
			S943,59.9,942.3,59.9z"/>
	</g>
	<rect x="912.4" y="206.7" display="inline" fill="#FFFFFF" stroke="#A7A8AA" stroke-miterlimit="10" width="233.6" height="157"/>
	<rect x="919.2" y="212.5" display="inline" fill="#009CDE" width="219.3" height="14.1"/>
	<rect x="1069.7" y="340.9" display="inline" fill="#004C97" width="62" height="15.8"/>
	<rect x="945.1" y="249.8" display="inline" fill="#E8E8E8" width="108.4" height="5.8"/>
	<rect x="930.1" y="235.8" display="inline" fill="#A7A8AA" width="60.7" height="5.3"/>
	<rect x="944.4" y="265.6" display="inline" fill="#E8E8E8" width="61.9" height="5.8"/>
	<rect x="944.1" y="281.6" display="inline" fill="#E8E8E8" width="163.6" height="5.8"/>
	<rect x="944.1" y="298.1" display="inline" fill="#E8E8E8" width="30.7" height="5.8"/>
	<rect x="931.1" y="247.8" display="inline" fill="#004C97" width="9.5" height="9.5"/>
	<rect x="931.1" y="263.8" display="inline" fill="#E8E8E8" width="9.5" height="9.5"/>
	<rect x="930.9" y="279.7" display="inline" fill="#E8E8E8" width="9.5" height="9.5"/>
	<rect x="931.1" y="296.2" display="inline" fill="#E8E8E8" width="9.5" height="9.5"/>
	<path display="inline" fill="#A7A8AA" d="M291,140.5c1.1,1.9,1.7,4.1,1.7,6.4c0,2.3-0.6,4.4-1.7,6.4c-1.1,1.9-2.7,3.5-4.6,4.6
		c-1.9,1.1-4.1,1.7-6.4,1.7c-2.3,0-4.4-0.6-6.4-1.7c-1.9-1.1-3.5-2.7-4.6-4.6c-1.1-1.9-1.7-4.1-1.7-6.4c0-2.3,0.6-4.4,1.7-6.4
		c1.1-1.9,2.7-3.5,4.6-4.6c1.9-1.1,4.1-1.7,6.4-1.7c2.3,0,4.4,0.6,6.4,1.7C288.3,137,289.9,138.5,291,140.5z M288.6,146.8
		c0-0.3-0.1-0.5-0.3-0.7l-1.5-1.5l-6-6c-0.2-0.2-0.4-0.3-0.7-0.3c-0.3,0-0.5,0.1-0.7,0.3l-1.5,1.5c-0.2,0.2-0.3,0.4-0.3,0.7
		c0,0.3,0.1,0.5,0.3,0.7l3.1,3.1h-8.3c-0.3,0-0.5,0.1-0.7,0.3c-0.2,0.2-0.3,0.5-0.3,0.7v2.1c0,0.3,0.1,0.5,0.3,0.7
		c0.2,0.2,0.5,0.3,0.7,0.3h8.3l-3.1,3.1c-0.2,0.2-0.3,0.5-0.3,0.7c0,0.3,0.1,0.5,0.3,0.7l1.5,1.5c0.2,0.2,0.4,0.3,0.7,0.3
		c0.3,0,0.5-0.1,0.7-0.3l6-6l1.5-1.5C288.5,147.4,288.6,147.1,288.6,146.8z"/>
	<path display="inline" fill="#A7A8AA" d="M590.5,140.5c1.1,1.9,1.7,4.1,1.7,6.4c0,2.3-0.6,4.4-1.7,6.4c-1.1,1.9-2.7,3.5-4.6,4.6
		c-1.9,1.1-4.1,1.7-6.4,1.7c-2.3,0-4.4-0.6-6.4-1.7c-1.9-1.1-3.5-2.7-4.6-4.6c-1.1-1.9-1.7-4.1-1.7-6.4c0-2.3,0.6-4.4,1.7-6.4
		c1.1-1.9,2.7-3.5,4.6-4.6c1.9-1.1,4.1-1.7,6.4-1.7c2.3,0,4.4,0.6,6.4,1.7C587.9,137,589.4,138.5,590.5,140.5z M588.1,146.8
		c0-0.3-0.1-0.5-0.3-0.7l-1.5-1.5l-6-6c-0.2-0.2-0.4-0.3-0.7-0.3c-0.3,0-0.5,0.1-0.7,0.3l-1.5,1.5c-0.2,0.2-0.3,0.4-0.3,0.7
		c0,0.3,0.1,0.5,0.3,0.7l3.1,3.1h-8.3c-0.3,0-0.5,0.1-0.7,0.3c-0.2,0.2-0.3,0.5-0.3,0.7v2.1c0,0.3,0.1,0.5,0.3,0.7
		c0.2,0.2,0.5,0.3,0.7,0.3h8.3l-3.1,3.1c-0.2,0.2-0.3,0.5-0.3,0.7c0,0.3,0.1,0.5,0.3,0.7l1.5,1.5c0.2,0.2,0.4,0.3,0.7,0.3
		c0.3,0,0.5-0.1,0.7-0.3l6-6l1.5-1.5C588,147.4,588.1,147.1,588.1,146.8z"/>
	<path display="inline" fill="#A7A8AA" d="M890.1,140.5c1.1,1.9,1.7,4.1,1.7,6.4c0,2.3-0.6,4.4-1.7,6.4c-1.1,1.9-2.7,3.5-4.6,4.6
		c-1.9,1.1-4.1,1.7-6.4,1.7c-2.3,0-4.4-0.6-6.4-1.7c-1.9-1.1-3.5-2.7-4.6-4.6c-1.1-1.9-1.7-4.1-1.7-6.4c0-2.3,0.6-4.4,1.7-6.4
		c1.1-1.9,2.7-3.5,4.6-4.6c1.9-1.1,4.1-1.7,6.4-1.7c2.3,0,4.4,0.6,6.4,1.7C887.4,137,888.9,138.5,890.1,140.5z M887.6,146.8
		c0-0.3-0.1-0.5-0.3-0.7l-1.5-1.5l-6-6c-0.2-0.2-0.4-0.3-0.7-0.3c-0.3,0-0.5,0.1-0.7,0.3l-1.5,1.5c-0.2,0.2-0.3,0.4-0.3,0.7
		c0,0.3,0.1,0.5,0.3,0.7l3.1,3.1h-8.3c-0.3,0-0.5,0.1-0.7,0.3c-0.2,0.2-0.3,0.5-0.3,0.7v2.1c0,0.3,0.1,0.5,0.3,0.7
		c0.2,0.2,0.5,0.3,0.7,0.3h8.3l-3.1,3.1c-0.2,0.2-0.3,0.5-0.3,0.7c0,0.3,0.1,0.5,0.3,0.7l1.5,1.5c0.2,0.2,0.4,0.3,0.7,0.3
		c0.3,0,0.5-0.1,0.7-0.3l6-6l1.5-1.5C887.5,147.4,887.6,147.1,887.6,146.8z"/>
	<g display="inline">
		<rect x="312.7" y="85.8" fill="#FFFFFF" stroke="#A7A8AA" stroke-miterlimit="10" width="233.6" height="27"/>
		<rect x="319.4" y="92.2" fill="#009CDE" width="219.8" height="14.1"/>
		<rect x="319.4" y="92.2" fill="#003865" width="17.4" height="14.1"/>
	</g>
	<g display="inline">
		<rect x="614.4" y="84.3" fill="#FFFFFF" stroke="#A7A8AA" stroke-miterlimit="10" width="233.6" height="27"/>
		<rect x="621.2" y="90.6" fill="#009CDE" width="219.8" height="14.1"/>
		<rect x="621.2" y="90.6" fill="#003865" width="17.4" height="14.1"/>
	</g>
	<g display="inline">
		<rect x="613.7" y="121.3" fill="#FFFFFF" stroke="#A7A8AA" stroke-miterlimit="10" width="233.6" height="27"/>
		<rect x="620.4" y="127.7" fill="#009CDE" width="219.8" height="14.1"/>
		<rect x="620.4" y="127.7" fill="#003865" width="17.4" height="14.1"/>
	</g>
	<g display="inline">
		<rect x="912.4" y="85.8" fill="#FFFFFF" stroke="#A7A8AA" stroke-miterlimit="10" width="233.6" height="27"/>
		<rect x="919.1" y="92.2" fill="#009CDE" width="219.8" height="14.1"/>
		<rect x="919.1" y="92.2" fill="#003865" width="17.4" height="14.1"/>
	</g>
	<g display="inline">
		<rect x="911.6" y="122.9" fill="#FFFFFF" stroke="#A7A8AA" stroke-miterlimit="10" width="233.6" height="27"/>
		<rect x="918.3" y="129.2" fill="#009CDE" width="219.8" height="14.1"/>
		<rect x="918.3" y="129.2" fill="#003865" width="17.4" height="14.1"/>
	</g>
	<g display="inline">
		<rect x="912.4" y="163.6" fill="#FFFFFF" stroke="#A7A8AA" stroke-miterlimit="10" width="233.6" height="27"/>
		<rect x="919.1" y="170" fill="#009CDE" width="219.8" height="14.1"/>
		<rect x="919.1" y="170" fill="#003865" width="17.4" height="14.1"/>
	</g>
</g>
<g id="Wizard" display="none">
	<g display="inline">
		<rect x="4.6" y="6.4" fill="#EFEFEF" stroke="#63666A" stroke-miterlimit="10" width="256.5" height="243.7"/>
		<rect x="4.6" y="6.7" fill="#004C97" width="255.9" height="23.2"/>
		<g>
			<path fill="#FFFFFF" d="M20.2,19.2c0,2.5-1.2,3.8-3.5,3.8c-2.3,0-3.4-1.2-3.4-3.7v-4.9h1.9v4.9c0,1.4,0.5,2,1.6,2
				c1,0,1.6-0.7,1.6-2v-4.9h1.9V19.2z"/>
			<path fill="#FFFFFF" d="M21.6,22.5v-1.9c0.3,0.3,0.7,0.5,1.1,0.6s0.8,0.2,1.2,0.2c0.2,0,0.4,0,0.6-0.1s0.3-0.1,0.4-0.2
				s0.2-0.2,0.3-0.3s0.1-0.2,0.1-0.3c0-0.2,0-0.3-0.1-0.4S25,20,24.8,19.9s-0.4-0.2-0.6-0.3s-0.5-0.2-0.7-0.3
				c-0.7-0.3-1.1-0.6-1.5-1s-0.5-0.9-0.5-1.4c0-0.4,0.1-0.8,0.3-1.1s0.4-0.6,0.7-0.8s0.7-0.4,1.1-0.4s0.8-0.1,1.3-0.1
				c0.4,0,0.8,0,1.2,0.1s0.6,0.1,0.9,0.2v1.8c-0.1-0.1-0.3-0.2-0.5-0.3S26.2,16,26,15.9s-0.4-0.1-0.5-0.1s-0.3,0-0.5,0
				c-0.2,0-0.4,0-0.6,0.1S24.1,16,24,16s-0.2,0.2-0.3,0.3s-0.1,0.2-0.1,0.3c0,0.1,0,0.3,0.1,0.4s0.2,0.2,0.3,0.3s0.3,0.2,0.5,0.3
				s0.4,0.2,0.7,0.3c0.3,0.1,0.6,0.3,0.9,0.4s0.5,0.3,0.7,0.5s0.3,0.4,0.4,0.7s0.2,0.6,0.2,0.9c0,0.5-0.1,0.9-0.3,1.2
				s-0.4,0.6-0.7,0.8s-0.7,0.3-1.1,0.4S24.5,23,24,23c-0.5,0-0.9,0-1.3-0.1S21.9,22.7,21.6,22.5z"/>
			<path fill="#FFFFFF" d="M30.6,20v2.9h-1.9v-8.4h3c2.1,0,3.2,0.9,3.2,2.7c0,0.8-0.3,1.5-0.9,2S32.6,20,31.5,20H30.6z M30.6,15.9
				v2.6h0.7c1,0,1.5-0.4,1.5-1.3c0-0.9-0.5-1.3-1.5-1.3H30.6z"/>
			<path fill="#FFFFFF" d="M42,16h-2.4v6.9h-1.9V16h-2.4v-1.5H42V16z"/>
			<path fill="#FFFFFF" d="M46.2,23c-1.2,0-2.2-0.4-2.9-1.2s-1.1-1.8-1.1-3.1c0-1.3,0.4-2.4,1.2-3.2s1.8-1.2,3.1-1.2
				c1.2,0,2.2,0.4,2.9,1.2s1.1,1.8,1.1,3.1c0,1.3-0.4,2.4-1.2,3.2S47.5,23,46.2,23z M46.3,15.9c-0.7,0-1.2,0.2-1.6,0.7
				s-0.6,1.2-0.6,2c0,0.8,0.2,1.5,0.6,2s0.9,0.7,1.5,0.7c0.7,0,1.2-0.2,1.6-0.7s0.6-1.1,0.6-2c0-0.9-0.2-1.5-0.6-2
				S47,15.9,46.3,15.9z"/>
		</g>
		<rect x="16.4" y="73.8" fill="#FFFFFF" stroke="#A7A8AA" stroke-miterlimit="10" width="233.6" height="157"/>
		<rect x="23.2" y="79.5" fill="#009CDE" width="219.3" height="14.1"/>
		<rect x="30.8" y="112.7" fill="#E8E8E8" width="204.6" height="15.9"/>
		<rect x="173.7" y="207.9" fill="#004C97" width="62" height="15.8"/>
		<rect x="30.4" y="102.7" fill="#A7A8AA" width="96.2" height="5.3"/>
		<rect x="31" y="146" fill="#E8E8E8" width="205.5" height="15.9"/>
		<rect x="31.1" y="136" fill="#A7A8AA" width="58.7" height="5.3"/>
		<rect x="31" y="181.6" fill="#E8E8E8" width="205.5" height="15.9"/>
		<rect x="31.1" y="171.6" fill="#A7A8AA" width="85.2" height="5.3"/>
		<polygon fill="#D9D9D6" stroke="#FFFFFF" stroke-miterlimit="10" points="250,56.1 190.7,56.1 190.7,40.5 250,40.5 250,48.3 		"/>
		<polygon fill="#D9D9D6" stroke="#FFFFFF" stroke-miterlimit="10" points="191.9,56.1 132.5,56.1 132.5,40.5 191.9,40.5 
			199.8,48.3 		"/>
		<polygon fill="#D9D9D6" stroke="#FFFFFF" stroke-miterlimit="10" points="134,56.1 74.7,56.1 74.7,40.5 134,40.5 142,48.3 		"/>
		<polygon fill="#003865" stroke="#FFFFFF" stroke-miterlimit="10" points="75.7,56.1 16.4,56.1 16.4,40.5 75.7,40.5 83.7,48.3 		
			"/>
	</g>
	<g display="inline">
		<rect x="304.1" y="6.1" fill="#EFEFEF" stroke="#63666A" stroke-miterlimit="10" width="256.5" height="243.7"/>
		<rect x="304.1" y="6.3" fill="#004C97" width="255.9" height="23.2"/>
		<g>
			<path fill="#FFFFFF" d="M319.7,18.9c0,2.5-1.2,3.8-3.5,3.8c-2.3,0-3.4-1.2-3.4-3.7v-4.9h1.9V19c0,1.4,0.5,2,1.6,2
				c1,0,1.6-0.7,1.6-2v-4.9h1.9V18.9z"/>
			<path fill="#FFFFFF" d="M321.1,22.2v-1.9c0.3,0.3,0.7,0.5,1.1,0.6s0.8,0.2,1.2,0.2c0.2,0,0.4,0,0.6-0.1s0.3-0.1,0.4-0.2
				s0.2-0.2,0.3-0.3s0.1-0.2,0.1-0.3c0-0.2,0-0.3-0.1-0.4s-0.2-0.2-0.4-0.4s-0.4-0.2-0.6-0.3s-0.5-0.2-0.7-0.3
				c-0.7-0.3-1.1-0.6-1.5-1s-0.5-0.9-0.5-1.4c0-0.4,0.1-0.8,0.3-1.1s0.4-0.6,0.7-0.8s0.7-0.4,1.1-0.4s0.8-0.1,1.3-0.1
				c0.4,0,0.8,0,1.2,0.1s0.6,0.1,0.9,0.2v1.8c-0.1-0.1-0.3-0.2-0.5-0.3s-0.3-0.1-0.5-0.2s-0.4-0.1-0.5-0.1s-0.3,0-0.5,0
				c-0.2,0-0.4,0-0.6,0.1s-0.3,0.1-0.4,0.2s-0.2,0.2-0.3,0.3s-0.1,0.2-0.1,0.3c0,0.1,0,0.3,0.1,0.4s0.2,0.2,0.3,0.3s0.3,0.2,0.5,0.3
				s0.4,0.2,0.7,0.3c0.3,0.1,0.6,0.3,0.9,0.4s0.5,0.3,0.7,0.5s0.3,0.4,0.4,0.7s0.2,0.6,0.2,0.9c0,0.5-0.1,0.9-0.3,1.2
				s-0.4,0.6-0.7,0.8s-0.7,0.3-1.1,0.4s-0.8,0.1-1.3,0.1c-0.5,0-0.9,0-1.3-0.1S321.4,22.4,321.1,22.2z"/>
			<path fill="#FFFFFF" d="M330.1,19.6v2.9h-1.9v-8.4h3c2.1,0,3.2,0.9,3.2,2.7c0,0.8-0.3,1.5-0.9,2s-1.4,0.8-2.4,0.8H330.1z
				 M330.1,15.6v2.6h0.7c1,0,1.5-0.4,1.5-1.3c0-0.9-0.5-1.3-1.5-1.3H330.1z"/>
			<path fill="#FFFFFF" d="M341.5,15.7h-2.4v6.9h-1.9v-6.9h-2.4v-1.5h6.7V15.7z"/>
			<path fill="#FFFFFF" d="M345.8,22.7c-1.2,0-2.2-0.4-2.9-1.2s-1.1-1.8-1.1-3.1c0-1.3,0.4-2.4,1.2-3.2s1.8-1.2,3.1-1.2
				c1.2,0,2.2,0.4,2.9,1.2s1.1,1.8,1.1,3.1c0,1.3-0.4,2.4-1.2,3.2S347,22.7,345.8,22.7z M345.8,15.6c-0.7,0-1.2,0.2-1.6,0.7
				s-0.6,1.2-0.6,2c0,0.8,0.2,1.5,0.6,2s0.9,0.7,1.5,0.7c0.7,0,1.2-0.2,1.6-0.7s0.6-1.1,0.6-2c0-0.9-0.2-1.5-0.6-2
				S346.5,15.6,345.8,15.6z"/>
		</g>
		<rect x="315.9" y="73.5" fill="#FFFFFF" stroke="#A7A8AA" stroke-miterlimit="10" width="233.6" height="157"/>
		<rect x="322.7" y="79.2" fill="#009CDE" width="219.3" height="14.1"/>
		<rect x="473.2" y="207.6" fill="#004C97" width="62" height="15.8"/>
		<polygon fill="#D9D9D6" stroke="#FFFFFF" stroke-miterlimit="10" points="549.5,55.8 490.2,55.8 490.2,40.2 549.5,40.2 549.5,48 
					"/>
		<polygon fill="#D9D9D6" stroke="#FFFFFF" stroke-miterlimit="10" points="491.4,55.8 432,55.8 432,40.2 491.4,40.2 499.3,48 		"/>
		<polygon fill="#003865" stroke="#FFFFFF" stroke-miterlimit="10" points="433.5,55.8 374.2,55.8 374.2,40.2 433.5,40.2 441.5,48 
					"/>
		<polygon fill="#D9D9D6" stroke="#FFFFFF" stroke-miterlimit="10" points="375.2,55.8 315.9,55.8 315.9,40.2 375.2,40.2 383.2,48 
					"/>
		<g>
			<rect x="348.6" y="120.4" fill="#E8E8E8" width="84.9" height="5.8"/>
			<rect x="333.6" y="106.4" fill="#A7A8AA" width="60.7" height="5.3"/>
			<circle fill="#004C97" cx="338.3" cy="123.1" r="4.8"/>
			<rect x="348" y="136.1" fill="#E8E8E8" width="61.9" height="5.8"/>
			<circle fill="#E8E8E8" cx="337.7" cy="138.9" r="4.8"/>
			<rect x="347.6" y="152.1" fill="#E8E8E8" width="118.1" height="5.8"/>
			<circle fill="#E8E8E8" cx="337.3" cy="154.9" r="4.8"/>
			<rect x="347.6" y="168.6" fill="#E8E8E8" width="39.1" height="5.8"/>
			<circle fill="#E8E8E8" cx="337.3" cy="171.4" r="4.8"/>
		</g>
	</g>
	<g display="inline">
		<rect x="603.6" y="6.7" fill="#EFEFEF" stroke="#63666A" stroke-miterlimit="10" width="256.5" height="243.7"/>
		<rect x="603.6" y="7" fill="#004C97" width="255.9" height="23.2"/>
		<g>
			<path fill="#FFFFFF" d="M619.2,19.6c0,2.5-1.2,3.8-3.5,3.8c-2.3,0-3.4-1.2-3.4-3.7v-4.9h1.9v4.9c0,1.4,0.5,2,1.6,2
				c1,0,1.6-0.7,1.6-2v-4.9h1.9V19.6z"/>
			<path fill="#FFFFFF" d="M620.7,22.9V21c0.3,0.3,0.7,0.5,1.1,0.6s0.8,0.2,1.2,0.2c0.2,0,0.4,0,0.6-0.1s0.3-0.1,0.4-0.2
				s0.2-0.2,0.3-0.3s0.1-0.2,0.1-0.3c0-0.2,0-0.3-0.1-0.4s-0.2-0.2-0.4-0.4s-0.4-0.2-0.6-0.3s-0.5-0.2-0.7-0.3
				c-0.7-0.3-1.1-0.6-1.5-1s-0.5-0.9-0.5-1.4c0-0.4,0.1-0.8,0.3-1.1s0.4-0.6,0.7-0.8s0.7-0.4,1.1-0.4s0.8-0.1,1.3-0.1
				c0.4,0,0.8,0,1.2,0.1s0.6,0.1,0.9,0.2v1.8c-0.1-0.1-0.3-0.2-0.5-0.3s-0.3-0.1-0.5-0.2s-0.4-0.1-0.5-0.1s-0.3,0-0.5,0
				c-0.2,0-0.4,0-0.6,0.1s-0.3,0.1-0.4,0.2s-0.2,0.2-0.3,0.3s-0.1,0.2-0.1,0.3c0,0.1,0,0.3,0.1,0.4s0.2,0.2,0.3,0.3s0.3,0.2,0.5,0.3
				s0.4,0.2,0.7,0.3c0.3,0.1,0.6,0.3,0.9,0.4s0.5,0.3,0.7,0.5s0.3,0.4,0.4,0.7s0.2,0.6,0.2,0.9c0,0.5-0.1,0.9-0.3,1.2
				s-0.4,0.6-0.7,0.8s-0.7,0.3-1.1,0.4s-0.8,0.1-1.3,0.1c-0.5,0-0.9,0-1.3-0.1S621,23,620.7,22.9z"/>
			<path fill="#FFFFFF" d="M629.7,20.3v2.9h-1.9v-8.4h3c2.1,0,3.2,0.9,3.2,2.7c0,0.8-0.3,1.5-0.9,2s-1.4,0.8-2.4,0.8H629.7z
				 M629.7,16.2v2.6h0.7c1,0,1.5-0.4,1.5-1.3c0-0.9-0.5-1.3-1.5-1.3H629.7z"/>
			<path fill="#FFFFFF" d="M641,16.3h-2.4v6.9h-1.9v-6.9h-2.4v-1.5h6.7V16.3z"/>
			<path fill="#FFFFFF" d="M645.3,23.3c-1.2,0-2.2-0.4-2.9-1.2s-1.1-1.8-1.1-3.1c0-1.3,0.4-2.4,1.2-3.2s1.8-1.2,3.1-1.2
				c1.2,0,2.2,0.4,2.9,1.2s1.1,1.8,1.1,3.1c0,1.3-0.4,2.4-1.2,3.2S646.5,23.3,645.3,23.3z M645.4,16.3c-0.7,0-1.2,0.2-1.6,0.7
				s-0.6,1.2-0.6,2c0,0.8,0.2,1.5,0.6,2s0.9,0.7,1.5,0.7c0.7,0,1.2-0.2,1.6-0.7s0.6-1.1,0.6-2c0-0.9-0.2-1.5-0.6-2
				S646,16.3,645.4,16.3z"/>
		</g>
		<rect x="615.4" y="74.1" fill="#FFFFFF" stroke="#A7A8AA" stroke-miterlimit="10" width="233.6" height="157"/>
		<rect x="622.2" y="79.9" fill="#009CDE" width="219.3" height="14.1"/>
		<rect x="772.8" y="208.3" fill="#004C97" width="62" height="15.8"/>
		<polygon fill="#D9D9D6" stroke="#FFFFFF" stroke-miterlimit="10" points="849.1,56.4 789.7,56.4 789.7,40.8 849.1,40.8 849,48.6 
					"/>
		<polygon fill="#003865" stroke="#FFFFFF" stroke-miterlimit="10" points="790.9,56.4 731.6,56.4 731.6,40.8 790.9,40.8 
			798.9,48.6 		"/>
		<polygon fill="#D9D9D6" stroke="#FFFFFF" stroke-miterlimit="10" points="733,56.4 673.7,56.4 673.7,40.8 733,40.8 741,48.6 		"/>
		<polygon fill="#D9D9D6" stroke="#FFFFFF" stroke-miterlimit="10" points="674.8,56.4 615.4,56.4 615.4,40.8 674.8,40.8 
			682.7,48.6 		"/>
		<rect x="633.7" y="112.6" fill="#E8E8E8" width="193.7" height="57.1"/>
		<rect x="632.5" y="102.6" fill="#A7A8AA" width="60.7" height="5.3"/>
	</g>
	<g display="inline">
		<rect x="903.1" y="6.1" fill="#EFEFEF" stroke="#63666A" stroke-miterlimit="10" width="256.5" height="243.7"/>
		<rect x="903.1" y="6.3" fill="#004C97" width="255.9" height="23.2"/>
		<g>
			<path fill="#FFFFFF" d="M918.7,18.9c0,2.5-1.2,3.8-3.5,3.8c-2.3,0-3.4-1.2-3.4-3.7v-4.9h1.9V19c0,1.4,0.5,2,1.6,2
				c1,0,1.6-0.7,1.6-2v-4.9h1.9V18.9z"/>
			<path fill="#FFFFFF" d="M920.2,22.2v-1.9c0.3,0.3,0.7,0.5,1.1,0.6s0.8,0.2,1.2,0.2c0.2,0,0.4,0,0.6-0.1s0.3-0.1,0.4-0.2
				s0.2-0.2,0.3-0.3s0.1-0.2,0.1-0.3c0-0.2,0-0.3-0.1-0.4s-0.2-0.2-0.4-0.4s-0.4-0.2-0.6-0.3s-0.5-0.2-0.7-0.3
				c-0.7-0.3-1.1-0.6-1.5-1s-0.5-0.9-0.5-1.4c0-0.4,0.1-0.8,0.3-1.1s0.4-0.6,0.7-0.8s0.7-0.4,1.1-0.4s0.8-0.1,1.3-0.1
				c0.4,0,0.8,0,1.2,0.1s0.6,0.1,0.9,0.2v1.8c-0.1-0.1-0.3-0.2-0.5-0.3s-0.3-0.1-0.5-0.2s-0.4-0.1-0.5-0.1s-0.3,0-0.5,0
				c-0.2,0-0.4,0-0.6,0.1s-0.3,0.1-0.4,0.2s-0.2,0.2-0.3,0.3s-0.1,0.2-0.1,0.3c0,0.1,0,0.3,0.1,0.4s0.2,0.2,0.3,0.3s0.3,0.2,0.5,0.3
				s0.4,0.2,0.7,0.3c0.3,0.1,0.6,0.3,0.9,0.4s0.5,0.3,0.7,0.5s0.3,0.4,0.4,0.7s0.2,0.6,0.2,0.9c0,0.5-0.1,0.9-0.3,1.2
				s-0.4,0.6-0.7,0.8s-0.7,0.3-1.1,0.4s-0.8,0.1-1.3,0.1c-0.5,0-0.9,0-1.3-0.1S920.5,22.4,920.2,22.2z"/>
			<path fill="#FFFFFF" d="M929.2,19.6v2.9h-1.9v-8.4h3c2.1,0,3.2,0.9,3.2,2.7c0,0.8-0.3,1.5-0.9,2s-1.4,0.8-2.4,0.8H929.2z
				 M929.2,15.6v2.6h0.7c1,0,1.5-0.4,1.5-1.3c0-0.9-0.5-1.3-1.5-1.3H929.2z"/>
			<path fill="#FFFFFF" d="M940.6,15.7h-2.4v6.9h-1.9v-6.9h-2.4v-1.5h6.7V15.7z"/>
			<path fill="#FFFFFF" d="M944.8,22.7c-1.2,0-2.2-0.4-2.9-1.2s-1.1-1.8-1.1-3.1c0-1.3,0.4-2.4,1.2-3.2s1.8-1.2,3.1-1.2
				c1.2,0,2.2,0.4,2.9,1.2s1.1,1.8,1.1,3.1c0,1.3-0.4,2.4-1.2,3.2S946,22.7,944.8,22.7z M944.9,15.6c-0.7,0-1.2,0.2-1.6,0.7
				s-0.6,1.2-0.6,2c0,0.8,0.2,1.5,0.6,2s0.9,0.7,1.5,0.7c0.7,0,1.2-0.2,1.6-0.7s0.6-1.1,0.6-2c0-0.9-0.2-1.5-0.6-2
				S945.5,15.6,944.9,15.6z"/>
		</g>
		<rect x="914.9" y="73.5" fill="#FFFFFF" stroke="#A7A8AA" stroke-miterlimit="10" width="233.6" height="157"/>
		<rect x="921.7" y="79.2" fill="#009CDE" width="219.3" height="14.1"/>
		<rect x="1072.3" y="207.6" fill="#004C97" width="62" height="15.8"/>
		<polygon fill="#003865" stroke="#FFFFFF" stroke-miterlimit="10" points="1148.6,55.8 1089.2,55.8 1089.2,40.2 1148.6,40.2 
			1148.6,48 		"/>
		<polygon fill="#D9D9D6" stroke="#FFFFFF" stroke-miterlimit="10" points="1090.4,55.8 1031.1,55.8 1031.1,40.2 1090.4,40.2 
			1098.4,48 		"/>
		<polygon fill="#D9D9D6" stroke="#FFFFFF" stroke-miterlimit="10" points="1032.6,55.8 973.2,55.8 973.2,40.2 1032.6,40.2 
			1040.5,48 		"/>
		<polygon fill="#D9D9D6" stroke="#FFFFFF" stroke-miterlimit="10" points="974.3,55.8 914.9,55.8 914.9,40.2 974.3,40.2 982.2,48 
					"/>
		<rect x="947.6" y="116.6" fill="#E8E8E8" width="108.4" height="5.8"/>
		<rect x="932.6" y="102.6" fill="#A7A8AA" width="60.7" height="5.3"/>
		<rect x="947" y="132.3" fill="#E8E8E8" width="61.9" height="5.8"/>
		<rect x="946.6" y="148.3" fill="#E8E8E8" width="163.6" height="5.8"/>
		<rect x="946.6" y="164.8" fill="#E8E8E8" width="30.7" height="5.8"/>
		<rect x="933.6" y="114.6" fill="#004C97" width="9.5" height="9.5"/>
		<rect x="933.6" y="130.5" fill="#E8E8E8" width="9.5" height="9.5"/>
		<rect x="933.5" y="146.5" fill="#E8E8E8" width="9.5" height="9.5"/>
		<rect x="933.6" y="163" fill="#E8E8E8" width="9.5" height="9.5"/>
	</g>
	<g display="inline">
		<path fill="#A7A8AA" d="M293.6,122.2c1.1,1.9,1.7,4.1,1.7,6.4c0,2.3-0.6,4.4-1.7,6.4c-1.1,1.9-2.7,3.5-4.6,4.6
			c-1.9,1.1-4.1,1.7-6.4,1.7c-2.3,0-4.4-0.6-6.4-1.7c-1.9-1.1-3.5-2.7-4.6-4.6c-1.1-1.9-1.7-4.1-1.7-6.4c0-2.3,0.6-4.4,1.7-6.4
			c1.1-1.9,2.7-3.5,4.6-4.6c1.9-1.1,4.1-1.7,6.4-1.7c2.3,0,4.4,0.6,6.4,1.7C290.9,118.7,292.4,120.3,293.6,122.2z M291.1,128.6
			c0-0.3-0.1-0.5-0.3-0.7l-1.5-1.5l-6-6c-0.2-0.2-0.4-0.3-0.7-0.3c-0.3,0-0.5,0.1-0.7,0.3l-1.5,1.5c-0.2,0.2-0.3,0.4-0.3,0.7
			c0,0.3,0.1,0.5,0.3,0.7l3.1,3.1h-8.3c-0.3,0-0.5,0.1-0.7,0.3c-0.2,0.2-0.3,0.5-0.3,0.7v2.1c0,0.3,0.1,0.5,0.3,0.7
			c0.2,0.2,0.5,0.3,0.7,0.3h8.3l-3.1,3.1c-0.2,0.2-0.3,0.5-0.3,0.7c0,0.3,0.1,0.5,0.3,0.7l1.5,1.5c0.2,0.2,0.4,0.3,0.7,0.3
			c0.3,0,0.5-0.1,0.7-0.3l6-6l1.5-1.5C291,129.1,291.1,128.9,291.1,128.6z"/>
	</g>
	<g display="inline">
		<path fill="#A7A8AA" d="M593.1,122.2c1.1,1.9,1.7,4.1,1.7,6.4c0,2.3-0.6,4.4-1.7,6.4c-1.1,1.9-2.7,3.5-4.6,4.6
			c-1.9,1.1-4.1,1.7-6.4,1.7c-2.3,0-4.4-0.6-6.4-1.7c-1.9-1.1-3.5-2.7-4.6-4.6c-1.1-1.9-1.7-4.1-1.7-6.4c0-2.3,0.6-4.4,1.7-6.4
			c1.1-1.9,2.7-3.5,4.6-4.6c1.9-1.1,4.1-1.7,6.4-1.7c2.3,0,4.4,0.6,6.4,1.7C590.4,118.7,591.9,120.3,593.1,122.2z M590.6,128.6
			c0-0.3-0.1-0.5-0.3-0.7l-1.5-1.5l-6-6c-0.2-0.2-0.4-0.3-0.7-0.3c-0.3,0-0.5,0.1-0.7,0.3l-1.5,1.5c-0.2,0.2-0.3,0.4-0.3,0.7
			c0,0.3,0.1,0.5,0.3,0.7l3.1,3.1h-8.3c-0.3,0-0.5,0.1-0.7,0.3c-0.2,0.2-0.3,0.5-0.3,0.7v2.1c0,0.3,0.1,0.5,0.3,0.7
			c0.2,0.2,0.5,0.3,0.7,0.3h8.3l-3.1,3.1c-0.2,0.2-0.3,0.5-0.3,0.7c0,0.3,0.1,0.5,0.3,0.7l1.5,1.5c0.2,0.2,0.4,0.3,0.7,0.3
			c0.3,0,0.5-0.1,0.7-0.3l6-6l1.5-1.5C590.5,129.1,590.6,128.9,590.6,128.6z"/>
	</g>
	<g display="inline">
		<path fill="#A7A8AA" d="M892.6,122.2c1.1,1.9,1.7,4.1,1.7,6.4c0,2.3-0.6,4.4-1.7,6.4c-1.1,1.9-2.7,3.5-4.6,4.6
			c-1.9,1.1-4.1,1.7-6.4,1.7c-2.3,0-4.4-0.6-6.4-1.7c-1.9-1.1-3.5-2.7-4.6-4.6c-1.1-1.9-1.7-4.1-1.7-6.4c0-2.3,0.6-4.4,1.7-6.4
			c1.1-1.9,2.7-3.5,4.6-4.6c1.9-1.1,4.1-1.7,6.4-1.7c2.3,0,4.4,0.6,6.4,1.7C889.9,118.7,891.5,120.3,892.6,122.2z M890.1,128.6
			c0-0.3-0.1-0.5-0.3-0.7l-1.5-1.5l-6-6c-0.2-0.2-0.4-0.3-0.7-0.3c-0.3,0-0.5,0.1-0.7,0.3l-1.5,1.5c-0.2,0.2-0.3,0.4-0.3,0.7
			c0,0.3,0.1,0.5,0.3,0.7l3.1,3.1h-8.3c-0.3,0-0.5,0.1-0.7,0.3c-0.2,0.2-0.3,0.5-0.3,0.7v2.1c0,0.3,0.1,0.5,0.3,0.7
			c0.2,0.2,0.5,0.3,0.7,0.3h8.3l-3.1,3.1c-0.2,0.2-0.3,0.5-0.3,0.7c0,0.3,0.1,0.5,0.3,0.7l1.5,1.5c0.2,0.2,0.4,0.3,0.7,0.3
			c0.3,0,0.5-0.1,0.7-0.3l6-6l1.5-1.5C890,129.1,890.1,128.9,890.1,128.6z"/>
	</g>
</g>
<g id="Single_Page">
	<rect x="0.5" y="0.5" fill="#EFEFEF" stroke="#63666A" stroke-miterlimit="10" width="230.5" height="553.8"/>
	<rect x="0.5" y="0.5" fill="#004C97" width="230.5" height="23.2"/>
	<g>
		<path fill="#FFFFFF" d="M22.2,13c0,2.3-1.1,3.5-3.2,3.5c-2.1,0-3.1-1.1-3.1-3.4V8.6h1.7v4.5c0,1.2,0.5,1.9,1.5,1.9
			c1,0,1.4-0.6,1.4-1.8V8.6h1.7V13z"/>
		<path fill="#FFFFFF" d="M23.5,16v-1.7c0.3,0.3,0.7,0.5,1,0.6s0.7,0.2,1.1,0.2c0.2,0,0.4,0,0.6-0.1c0.2,0,0.3-0.1,0.4-0.2
			c0.1-0.1,0.2-0.2,0.2-0.2c0.1-0.1,0.1-0.2,0.1-0.3c0-0.2,0-0.3-0.1-0.4c-0.1-0.1-0.2-0.2-0.4-0.3c-0.1-0.1-0.3-0.2-0.5-0.3
			c-0.2-0.1-0.4-0.2-0.7-0.3c-0.6-0.3-1.1-0.6-1.3-0.9c-0.3-0.4-0.4-0.8-0.4-1.3c0-0.4,0.1-0.7,0.2-1c0.2-0.3,0.4-0.5,0.7-0.7
			c0.3-0.2,0.6-0.3,1-0.4c0.4-0.1,0.8-0.1,1.2-0.1c0.4,0,0.8,0,1.1,0.1s0.6,0.1,0.9,0.2v1.6c-0.1-0.1-0.3-0.2-0.4-0.2
			c-0.2-0.1-0.3-0.1-0.5-0.2s-0.3-0.1-0.5-0.1c-0.2,0-0.3,0-0.5,0c-0.2,0-0.4,0-0.5,0.1s-0.3,0.1-0.4,0.2c-0.1,0.1-0.2,0.1-0.3,0.2
			c-0.1,0.1-0.1,0.2-0.1,0.3c0,0.1,0,0.2,0.1,0.3c0.1,0.1,0.2,0.2,0.3,0.3c0.1,0.1,0.3,0.2,0.5,0.3s0.4,0.2,0.6,0.3
			c0.3,0.1,0.6,0.3,0.8,0.4c0.2,0.1,0.5,0.3,0.6,0.5c0.2,0.2,0.3,0.4,0.4,0.6c0.1,0.2,0.1,0.5,0.1,0.8c0,0.4-0.1,0.8-0.2,1.1
			c-0.2,0.3-0.4,0.5-0.7,0.7c-0.3,0.2-0.6,0.3-1,0.4c-0.4,0.1-0.8,0.1-1.2,0.1c-0.4,0-0.8,0-1.2-0.1C24.1,16.3,23.8,16.2,23.5,16z"
			/>
		<path fill="#FFFFFF" d="M31.8,13.7v2.7H30V8.6h2.7c1.9,0,2.9,0.8,2.9,2.5c0,0.8-0.3,1.4-0.8,1.9c-0.6,0.5-1.3,0.7-2.2,0.7H31.8z
			 M31.8,9.9v2.4h0.7c0.9,0,1.4-0.4,1.4-1.2c0-0.8-0.5-1.2-1.4-1.2H31.8z"/>
		<path fill="#FFFFFF" d="M42.2,10H40v6.3h-1.7V10h-2.2V8.6h6.1V10z"/>
		<path fill="#FFFFFF" d="M46.1,16.4c-1.1,0-2-0.4-2.7-1.1c-0.7-0.7-1-1.7-1-2.8c0-1.2,0.4-2.2,1.1-3c0.7-0.8,1.6-1.1,2.8-1.1
			c1.1,0,2,0.4,2.7,1.1c0.7,0.7,1,1.7,1,2.8c0,1.2-0.4,2.2-1.1,2.9C48.2,16.1,47.2,16.4,46.1,16.4z M46.2,10c-0.6,0-1.1,0.2-1.5,0.7
			c-0.4,0.5-0.5,1.1-0.5,1.8c0,0.8,0.2,1.4,0.5,1.8c0.4,0.4,0.8,0.7,1.4,0.7c0.6,0,1.1-0.2,1.4-0.6c0.4-0.4,0.5-1,0.5-1.8
			c0-0.8-0.2-1.4-0.5-1.9C47.2,10.2,46.8,10,46.2,10z"/>
	</g>
	<rect x="13.5" y="36.1" fill="#FFFFFF" stroke="#A7A8AA" stroke-miterlimit="10" width="204.4" height="100.6"/>
	<rect x="13.5" y="148.1" fill="#FFFFFF" stroke="#A7A8AA" stroke-miterlimit="10" width="204.4" height="130"/>
	<rect x="13.5" y="296.8" fill="#FFFFFF" stroke="#A7A8AA" stroke-miterlimit="10" width="204.4" height="100.6"/>
	<rect x="13.5" y="411.6" fill="#FFFFFF" stroke="#A7A8AA" stroke-miterlimit="10" width="204.4" height="100.6"/>
	<rect x="140.2" y="523" fill="#004C97" width="77.7" height="16.7"/>
	<rect x="19.9" y="41.4" fill="#009CDE" width="192" height="13"/>
	<rect x="19.9" y="154.4" fill="#009CDE" width="192" height="13"/>
	<rect x="19.9" y="303.9" fill="#009CDE" width="192" height="13"/>
	<rect x="19.9" y="416.3" fill="#009CDE" width="192" height="13"/>
	<rect x="27.2" y="75.5" fill="#E8E8E8" width="179.7" height="14.6"/>
	<rect x="26.8" y="66.3" fill="#A7A8AA" width="91.2" height="4.9"/>
	<rect x="27.3" y="109.7" fill="#E8E8E8" width="177.7" height="14.6"/>
	<rect x="27.4" y="100.5" fill="#A7A8AA" width="55.7" height="4.9"/>
	<rect x="26.3" y="333.5" fill="#E8E8E8" width="177.7" height="52.4"/>
	<rect x="26.4" y="324.3" fill="#A7A8AA" width="55.7" height="4.9"/>
	<rect x="40.2" y="187.8" fill="#E8E8E8" width="77.9" height="5.3"/>
	<rect x="26.4" y="175" fill="#A7A8AA" width="55.7" height="4.9"/>
	<circle fill="#004C97" cx="30.3" cy="190.4" r="4.4"/>
	<rect x="39.6" y="202.3" fill="#E8E8E8" width="56.8" height="5.3"/>
	<circle fill="#E8E8E8" cx="30.3" cy="204.8" r="4.4"/>
	<rect x="39.3" y="217" fill="#E8E8E8" width="108.4" height="5.3"/>
	<circle fill="#E8E8E8" cx="30.3" cy="219.5" r="4.4"/>
	<rect x="39.3" y="450.8" fill="#E8E8E8" width="77.9" height="5.3"/>
	<rect x="25.5" y="437.9" fill="#A7A8AA" width="55.7" height="4.9"/>
	<rect x="38.7" y="465.3" fill="#E8E8E8" width="56.8" height="5.3"/>
	<rect x="38.3" y="479.9" fill="#E8E8E8" width="108.4" height="5.3"/>
	<rect x="38.3" y="495.1" fill="#E8E8E8" width="35.9" height="5.3"/>
	<rect x="26.4" y="449" fill="#004C97" width="8.7" height="8.7"/>
	<rect x="26.4" y="463.6" fill="#E8E8E8" width="8.7" height="8.7"/>
	<rect x="26.3" y="478.2" fill="#E8E8E8" width="8.7" height="8.7"/>
	<rect x="26.4" y="493.4" fill="#E8E8E8" width="8.7" height="8.7"/>
	<rect x="26.5" y="249.4" fill="#E8E8E8" width="179.7" height="14.6"/>
	<rect x="26.1" y="240.2" fill="#A7A8AA" width="91.2" height="4.9"/>
</g>
</svg>
