<?xml version="1.0" encoding="utf-8"?>
<!-- Generator: Adobe Illustrator 18.0.0, SVG Export Plug-In . SVG Version: 6.00 Build 0)  -->
<!DOCTYPE svg PUBLIC "-//W3C//DTD SVG 1.1//EN" "http://www.w3.org/Graphics/SVG/1.1/DTD/svg11.dtd">
<svg version="1.1" xmlns="http://www.w3.org/2000/svg" xmlns:xlink="http://www.w3.org/1999/xlink" x="0px" y="0px"
	 viewBox="0 0 1156.1 333.4" enable-background="new 0 0 1156.1 333.4" xml:space="preserve">
<g id="Hybrid" display="none">
	<rect x="0.8" y="-43.7" display="inline" fill="#EFEFEF" stroke="#63666A" stroke-miterlimit="10" width="256.5" height="244.3"/>
	<rect x="0.8" y="-43.5" display="inline" fill="#004C97" width="255.9" height="23.2"/>
	<g display="inline">
		<path fill="#FFFFFF" d="M16.4-30.9c0,2.5-1.2,3.8-3.5,3.8c-2.3,0-3.4-1.2-3.4-3.7v-4.9h1.9v4.9c0,1.4,0.5,2,1.6,2
			c1,0,1.6-0.7,1.6-2v-4.9h1.9V-30.9z"/>
		<path fill="#FFFFFF" d="M17.9-27.6v-1.9c0.3,0.3,0.7,0.5,1.1,0.6s0.8,0.2,1.2,0.2c0.2,0,0.4,0,0.6-0.1s0.3-0.1,0.4-0.2
			s0.2-0.2,0.3-0.3s0.1-0.2,0.1-0.3c0-0.2,0-0.3-0.1-0.4s-0.2-0.2-0.4-0.4s-0.4-0.2-0.6-0.3s-0.5-0.2-0.7-0.3
			c-0.7-0.3-1.1-0.6-1.5-1c-0.3-0.4-0.5-0.9-0.5-1.4c0-0.4,0.1-0.8,0.3-1.1s0.4-0.6,0.7-0.8s0.7-0.4,1.1-0.4s0.8-0.1,1.3-0.1
			c0.4,0,0.8,0,1.2,0.1s0.6,0.1,0.9,0.2v1.8c-0.1-0.1-0.3-0.2-0.5-0.3s-0.3-0.1-0.5-0.2s-0.4-0.1-0.5-0.1s-0.3,0-0.5,0
			c-0.2,0-0.4,0-0.6,0.1s-0.3,0.1-0.4,0.2s-0.2,0.2-0.3,0.3s-0.1,0.2-0.1,0.3c0,0.1,0,0.3,0.1,0.4s0.2,0.2,0.3,0.3s0.3,0.2,0.5,0.3
			s0.4,0.2,0.7,0.3c0.3,0.1,0.6,0.3,0.9,0.4s0.5,0.3,0.7,0.5s0.3,0.4,0.4,0.7s0.2,0.6,0.2,0.9c0,0.5-0.1,0.9-0.3,1.2
			s-0.4,0.6-0.7,0.8s-0.7,0.3-1.1,0.4s-0.8,0.1-1.3,0.1c-0.5,0-0.9,0-1.3-0.1S18.2-27.4,17.9-27.6z"/>
		<path fill="#FFFFFF" d="M26.9-30.2v2.9H25v-8.4h3c2.1,0,3.2,0.9,3.2,2.7c0,0.8-0.3,1.5-0.9,2s-1.4,0.8-2.4,0.8H26.9z M26.9-34.2
			v2.6h0.7c1,0,1.5-0.4,1.5-1.3c0-0.9-0.5-1.3-1.5-1.3H26.9z"/>
		<path fill="#FFFFFF" d="M38.3-34.1h-2.4v6.9H34v-6.9h-2.4v-1.5h6.7V-34.1z"/>
		<path fill="#FFFFFF" d="M42.5-27.1c-1.2,0-2.2-0.4-2.9-1.2s-1.1-1.8-1.1-3.1c0-1.3,0.4-2.4,1.2-3.2s1.8-1.2,3.1-1.2
			c1.2,0,2.2,0.4,2.9,1.2s1.1,1.8,1.1,3.1c0,1.3-0.4,2.4-1.2,3.2S43.7-27.1,42.5-27.1z M42.6-34.2c-0.7,0-1.2,0.2-1.6,0.7
			s-0.6,1.2-0.6,2c0,0.8,0.2,1.5,0.6,2s0.9,0.7,1.5,0.7c0.7,0,1.2-0.2,1.6-0.7s0.6-1.1,0.6-2c0-0.9-0.2-1.5-0.6-2
			S43.2-34.2,42.6-34.2z"/>
	</g>
	<rect x="12.6" y="27.6" display="inline" fill="#FFFFFF" stroke="#A7A8AA" stroke-miterlimit="10" width="233.6" height="157"/>
	<rect x="19.4" y="33.4" display="inline" fill="#009CDE" width="219.3" height="14.1"/>
	<rect x="27.1" y="66.6" display="inline" fill="#E8E8E8" width="204.6" height="15.9"/>
	<rect x="170" y="161.8" display="inline" fill="#004C97" width="62" height="15.8"/>
	<rect x="26.6" y="56.6" display="inline" fill="#A7A8AA" width="96.2" height="5.3"/>
	<rect x="27.2" y="99.8" display="inline" fill="#E8E8E8" width="205.5" height="15.9"/>
	<rect x="27.3" y="89.8" display="inline" fill="#A7A8AA" width="58.7" height="5.3"/>
	<rect x="27.2" y="135.5" display="inline" fill="#E8E8E8" width="205.5" height="15.9"/>
	<rect x="27.3" y="125.5" display="inline" fill="#A7A8AA" width="85.2" height="5.3"/>
	
		<rect x="300.3" y="-42.1" display="inline" fill="#EFEFEF" stroke="#63666A" stroke-miterlimit="10" width="256.5" height="534.4"/>
	<rect x="300.3" y="-43.8" display="inline" fill="#004C97" width="255.9" height="23.2"/>
	<g display="inline">
		<path fill="#FFFFFF" d="M316-31.2c0,2.5-1.2,3.8-3.5,3.8c-2.3,0-3.4-1.2-3.4-3.7V-36h1.9v4.9c0,1.4,0.5,2,1.6,2c1,0,1.6-0.7,1.6-2
			V-36h1.9V-31.2z"/>
		<path fill="#FFFFFF" d="M317.4-27.9v-1.9c0.3,0.3,0.7,0.5,1.1,0.6s0.8,0.2,1.2,0.2c0.2,0,0.4,0,0.6-0.1s0.3-0.1,0.4-0.2
			s0.2-0.2,0.3-0.3s0.1-0.2,0.1-0.3c0-0.2,0-0.3-0.1-0.4s-0.2-0.2-0.4-0.4s-0.4-0.2-0.6-0.3s-0.5-0.2-0.7-0.3
			c-0.7-0.3-1.1-0.6-1.5-1c-0.3-0.4-0.5-0.9-0.5-1.4c0-0.4,0.1-0.8,0.3-1.1s0.4-0.6,0.7-0.8s0.7-0.4,1.1-0.4s0.8-0.1,1.3-0.1
			c0.4,0,0.8,0,1.2,0.1s0.6,0.1,0.9,0.2v1.8c-0.1-0.1-0.3-0.2-0.5-0.3s-0.3-0.1-0.5-0.2s-0.4-0.1-0.5-0.1s-0.3,0-0.5,0
			c-0.2,0-0.4,0-0.6,0.1s-0.3,0.1-0.4,0.2s-0.2,0.2-0.3,0.3s-0.1,0.2-0.1,0.3c0,0.1,0,0.3,0.1,0.4s0.2,0.2,0.3,0.3s0.3,0.2,0.5,0.3
			s0.4,0.2,0.7,0.3c0.3,0.1,0.6,0.3,0.9,0.4c0.3,0.2,0.5,0.3,0.7,0.5s0.3,0.4,0.4,0.7s0.2,0.6,0.2,0.9c0,0.5-0.1,0.9-0.3,1.2
			s-0.4,0.6-0.7,0.8s-0.7,0.3-1.1,0.4s-0.8,0.1-1.3,0.1c-0.5,0-0.9,0-1.3-0.1S317.7-27.8,317.4-27.9z"/>
		<path fill="#FFFFFF" d="M326.4-30.5v2.9h-1.9V-36h3c2.1,0,3.2,0.9,3.2,2.7c0,0.8-0.3,1.5-0.9,2s-1.4,0.8-2.4,0.8H326.4z
			 M326.4-34.5v2.6h0.7c1,0,1.5-0.4,1.5-1.3c0-0.9-0.5-1.3-1.5-1.3H326.4z"/>
		<path fill="#FFFFFF" d="M337.8-34.5h-2.4v6.9h-1.9v-6.9h-2.4V-36h6.7V-34.5z"/>
		<path fill="#FFFFFF" d="M342-27.4c-1.2,0-2.2-0.4-2.9-1.2s-1.1-1.8-1.1-3.1c0-1.3,0.4-2.4,1.2-3.2s1.8-1.2,3.1-1.2
			c1.2,0,2.2,0.4,2.9,1.2s1.1,1.8,1.1,3.1c0,1.3-0.4,2.4-1.2,3.2S343.2-27.4,342-27.4z M342.1-34.5c-0.7,0-1.2,0.2-1.6,0.7
			s-0.6,1.2-0.6,2c0,0.8,0.2,1.5,0.6,2s0.9,0.7,1.5,0.7c0.7,0,1.2-0.2,1.6-0.7s0.6-1.1,0.6-2c0-0.9-0.2-1.5-0.6-2
			S342.7-34.5,342.1-34.5z"/>
	</g>
	<rect x="312.1" y="27.3" display="inline" fill="#FFFFFF" stroke="#A7A8AA" stroke-miterlimit="10" width="233.6" height="140.4"/>
	<rect x="318.9" y="33.1" display="inline" fill="#009CDE" width="219.3" height="14.1"/>
	<rect x="482.8" y="462.5" display="inline" fill="#004C97" width="62" height="15.8"/>
	<g display="inline">
		<rect x="344.8" y="74.2" fill="#E8E8E8" width="84.9" height="5.8"/>
		<rect x="329.8" y="60.2" fill="#A7A8AA" width="60.7" height="5.3"/>
		<circle fill="#004C97" cx="334.6" cy="77" r="4.8"/>
		<rect x="344.2" y="90" fill="#E8E8E8" width="61.9" height="5.8"/>
		<circle fill="#E8E8E8" cx="334" cy="92.7" r="4.8"/>
		<rect x="343.8" y="106" fill="#E8E8E8" width="118.1" height="5.8"/>
		<circle fill="#E8E8E8" cx="333.6" cy="108.7" r="4.8"/>
		<rect x="343.8" y="122.5" fill="#E8E8E8" width="39.1" height="5.8"/>
		<circle fill="#E8E8E8" cx="333.6" cy="125.2" r="4.8"/>
	</g>
	
		<rect x="599.8" y="-37.4" display="inline" fill="#EFEFEF" stroke="#63666A" stroke-miterlimit="10" width="256.5" height="241.1"/>
	<rect x="599.8" y="-43.1" display="inline" fill="#004C97" width="255.9" height="23.2"/>
	<g display="inline">
		<path fill="#FFFFFF" d="M615.5-30.6c0,2.5-1.2,3.8-3.5,3.8c-2.3,0-3.4-1.2-3.4-3.7v-4.9h1.9v4.9c0,1.4,0.5,2,1.6,2
			c1,0,1.6-0.7,1.6-2v-4.9h1.9V-30.6z"/>
		<path fill="#FFFFFF" d="M616.9-27.3v-1.9c0.3,0.3,0.7,0.5,1.1,0.6s0.8,0.2,1.2,0.2c0.2,0,0.4,0,0.6-0.1s0.3-0.1,0.4-0.2
			s0.2-0.2,0.3-0.3s0.1-0.2,0.1-0.3c0-0.2,0-0.3-0.1-0.4s-0.2-0.2-0.4-0.4s-0.4-0.2-0.6-0.3s-0.5-0.2-0.7-0.3
			c-0.7-0.3-1.1-0.6-1.5-1s-0.5-0.9-0.5-1.4c0-0.4,0.1-0.8,0.3-1.1s0.4-0.6,0.7-0.8s0.7-0.4,1.1-0.4s0.8-0.1,1.3-0.1
			c0.4,0,0.8,0,1.2,0.1s0.6,0.1,0.9,0.2v1.8c-0.1-0.1-0.3-0.2-0.5-0.3s-0.3-0.1-0.5-0.2s-0.4-0.1-0.5-0.1s-0.3,0-0.5,0
			c-0.2,0-0.4,0-0.6,0.1s-0.3,0.1-0.4,0.2s-0.2,0.2-0.3,0.3s-0.1,0.2-0.1,0.3c0,0.1,0,0.3,0.1,0.4s0.2,0.2,0.3,0.3s0.3,0.2,0.5,0.3
			s0.4,0.2,0.7,0.3c0.3,0.1,0.6,0.3,0.9,0.4s0.5,0.3,0.7,0.5s0.3,0.4,0.4,0.7s0.2,0.6,0.2,0.9c0,0.5-0.1,0.9-0.3,1.2
			s-0.4,0.6-0.7,0.8s-0.7,0.3-1.1,0.4s-0.8,0.1-1.3,0.1c-0.5,0-0.9,0-1.3-0.1S617.2-27.1,616.9-27.3z"/>
		<path fill="#FFFFFF" d="M625.9-29.8v2.9H624v-8.4h3c2.1,0,3.2,0.9,3.2,2.7c0,0.8-0.3,1.5-0.9,2s-1.4,0.8-2.4,0.8H625.9z
			 M625.9-33.9v2.6h0.7c1,0,1.5-0.4,1.5-1.3c0-0.9-0.5-1.3-1.5-1.3H625.9z"/>
		<path fill="#FFFFFF" d="M637.3-33.8h-2.4v6.9H633v-6.9h-2.4v-1.5h6.7V-33.8z"/>
		<path fill="#FFFFFF" d="M641.5-26.8c-1.2,0-2.2-0.4-2.9-1.2s-1.1-1.8-1.1-3.1c0-1.3,0.4-2.4,1.2-3.2s1.8-1.2,3.1-1.2
			c1.2,0,2.2,0.4,2.9,1.2s1.1,1.8,1.1,3.1c0,1.3-0.4,2.4-1.2,3.2S642.8-26.8,641.5-26.8z M641.6-33.9c-0.7,0-1.2,0.2-1.6,0.7
			s-0.6,1.2-0.6,2c0,0.8,0.2,1.5,0.6,2s0.9,0.7,1.5,0.7c0.7,0,1.2-0.2,1.6-0.7s0.6-1.1,0.6-2c0-0.9-0.2-1.5-0.6-2
			S642.3-33.9,641.6-33.9z"/>
	</g>
	<rect x="611.7" y="27" display="inline" fill="#FFFFFF" stroke="#A7A8AA" stroke-miterlimit="10" width="233.6" height="157"/>
	<rect x="618.4" y="32.7" display="inline" fill="#009CDE" width="219.3" height="14.1"/>
	<rect x="769" y="161.1" display="inline" fill="#004C97" width="62" height="15.8"/>
	<rect x="629.9" y="65.5" display="inline" fill="#E8E8E8" width="193.7" height="57.1"/>
	<rect x="628.8" y="55.5" display="inline" fill="#A7A8AA" width="60.7" height="5.3"/>
	
		<rect x="899.3" y="-36.1" display="inline" fill="#EFEFEF" stroke="#63666A" stroke-miterlimit="10" width="256.5" height="240.4"/>
	<rect x="899.3" y="-43.8" display="inline" fill="#004C97" width="255.9" height="23.2"/>
	<g display="inline">
		<path fill="#FFFFFF" d="M915-31.2c0,2.5-1.2,3.8-3.5,3.8c-2.3,0-3.4-1.2-3.4-3.7V-36h1.9v4.9c0,1.4,0.5,2,1.6,2c1,0,1.6-0.7,1.6-2
			V-36h1.9V-31.2z"/>
		<path fill="#FFFFFF" d="M916.4-27.9v-1.9c0.3,0.3,0.7,0.5,1.1,0.6s0.8,0.2,1.2,0.2c0.2,0,0.4,0,0.6-0.1s0.3-0.1,0.4-0.2
			s0.2-0.2,0.3-0.3s0.1-0.2,0.1-0.3c0-0.2,0-0.3-0.1-0.4s-0.2-0.2-0.4-0.4s-0.4-0.2-0.6-0.3s-0.5-0.2-0.7-0.3
			c-0.7-0.3-1.1-0.6-1.5-1c-0.3-0.4-0.5-0.9-0.5-1.4c0-0.4,0.1-0.8,0.3-1.1s0.4-0.6,0.7-0.8s0.7-0.4,1.1-0.4s0.8-0.1,1.3-0.1
			c0.4,0,0.8,0,1.2,0.1s0.6,0.1,0.9,0.2v1.8c-0.1-0.1-0.3-0.2-0.5-0.3s-0.3-0.1-0.5-0.2s-0.4-0.1-0.5-0.1s-0.3,0-0.5,0
			c-0.2,0-0.4,0-0.6,0.1s-0.3,0.1-0.4,0.2s-0.2,0.2-0.3,0.3s-0.1,0.2-0.1,0.3c0,0.1,0,0.3,0.1,0.4s0.2,0.2,0.3,0.3s0.3,0.2,0.5,0.3
			s0.4,0.2,0.7,0.3c0.3,0.1,0.6,0.3,0.9,0.4c0.3,0.2,0.5,0.3,0.7,0.5s0.3,0.4,0.4,0.7s0.2,0.6,0.2,0.9c0,0.5-0.1,0.9-0.3,1.2
			s-0.4,0.6-0.7,0.8s-0.7,0.3-1.1,0.4s-0.8,0.1-1.3,0.1c-0.5,0-0.9,0-1.3-0.1S916.7-27.8,916.4-27.9z"/>
		<path fill="#FFFFFF" d="M925.4-30.5v2.9h-1.9V-36h3c2.1,0,3.2,0.9,3.2,2.7c0,0.8-0.3,1.5-0.9,2s-1.4,0.8-2.4,0.8H925.4z
			 M925.4-34.5v2.6h0.7c1,0,1.5-0.4,1.5-1.3c0-0.9-0.5-1.3-1.5-1.3H925.4z"/>
		<path fill="#FFFFFF" d="M936.8-34.5h-2.4v6.9h-1.9v-6.9h-2.4V-36h6.7V-34.5z"/>
		<path fill="#FFFFFF" d="M941-27.4c-1.2,0-2.2-0.4-2.9-1.2s-1.1-1.8-1.1-3.1c0-1.3,0.4-2.4,1.2-3.2s1.8-1.2,3.1-1.2
			c1.2,0,2.2,0.4,2.9,1.2s1.1,1.8,1.1,3.1c0,1.3-0.4,2.4-1.2,3.2S942.3-27.4,941-27.4z M941.1-34.5c-0.7,0-1.2,0.2-1.6,0.7
			s-0.6,1.2-0.6,2c0,0.8,0.2,1.5,0.6,2s0.9,0.7,1.5,0.7c0.7,0,1.2-0.2,1.6-0.7s0.6-1.1,0.6-2c0-0.9-0.2-1.5-0.6-2
			S941.8-34.5,941.1-34.5z"/>
	</g>
	<rect x="911.2" y="28.3" display="inline" fill="#FFFFFF" stroke="#A7A8AA" stroke-miterlimit="10" width="233.6" height="157"/>
	<rect x="918" y="34.1" display="inline" fill="#009CDE" width="219.3" height="14.1"/>
	<rect x="1068.5" y="162.5" display="inline" fill="#004C97" width="62" height="15.8"/>
	<rect x="943.8" y="71.5" display="inline" fill="#E8E8E8" width="108.4" height="5.8"/>
	<rect x="928.8" y="57.5" display="inline" fill="#A7A8AA" width="60.7" height="5.3"/>
	<rect x="943.2" y="87.2" display="inline" fill="#E8E8E8" width="61.9" height="5.8"/>
	<rect x="942.8" y="103.2" display="inline" fill="#E8E8E8" width="163.6" height="5.8"/>
	<rect x="942.8" y="119.7" display="inline" fill="#E8E8E8" width="30.7" height="5.8"/>
	<rect x="929.8" y="69.5" display="inline" fill="#004C97" width="9.5" height="9.5"/>
	<rect x="929.8" y="85.4" display="inline" fill="#E8E8E8" width="9.5" height="9.5"/>
	<rect x="929.7" y="101.4" display="inline" fill="#E8E8E8" width="9.5" height="9.5"/>
	<rect x="929.8" y="117.9" display="inline" fill="#E8E8E8" width="9.5" height="9.5"/>
	<path display="inline" fill="#A7A8AA" d="M289.8,46.1c1.1,1.9,1.7,4.1,1.7,6.4c0,2.3-0.6,4.4-1.7,6.4s-2.7,3.5-4.6,4.6
		c-1.9,1.1-4.1,1.7-6.4,1.7c-2.3,0-4.4-0.6-6.4-1.7c-1.9-1.1-3.5-2.7-4.6-4.6s-1.7-4.1-1.7-6.4c0-2.3,0.6-4.4,1.7-6.4
		s2.7-3.5,4.6-4.6c1.9-1.1,4.1-1.7,6.4-1.7c2.3,0,4.4,0.6,6.4,1.7C287.1,42.6,288.7,44.1,289.8,46.1z M287.4,52.5
		c0-0.3-0.1-0.5-0.3-0.7l-1.5-1.5l-6-6c-0.2-0.2-0.4-0.3-0.7-0.3c-0.3,0-0.5,0.1-0.7,0.3l-1.5,1.5c-0.2,0.2-0.3,0.4-0.3,0.7
		c0,0.3,0.1,0.5,0.3,0.7l3.1,3.1h-8.3c-0.3,0-0.5,0.1-0.7,0.3c-0.2,0.2-0.3,0.5-0.3,0.7v2.1c0,0.3,0.1,0.5,0.3,0.7
		c0.2,0.2,0.5,0.3,0.7,0.3h8.3l-3.1,3.1c-0.2,0.2-0.3,0.5-0.3,0.7s0.1,0.5,0.3,0.7l1.5,1.5c0.2,0.2,0.4,0.3,0.7,0.3
		c0.3,0,0.5-0.1,0.7-0.3l6-6l1.5-1.5C287.3,53,287.4,52.8,287.4,52.5z"/>
	<path display="inline" fill="#A7A8AA" d="M589.3,46.1c1.1,1.9,1.7,4.1,1.7,6.4c0,2.3-0.6,4.4-1.7,6.4s-2.7,3.5-4.6,4.6
		c-1.9,1.1-4.1,1.7-6.4,1.7c-2.3,0-4.4-0.6-6.4-1.7c-1.9-1.1-3.5-2.7-4.6-4.6s-1.7-4.1-1.7-6.4c0-2.3,0.6-4.4,1.7-6.4
		s2.7-3.5,4.6-4.6c1.9-1.1,4.1-1.7,6.4-1.7c2.3,0,4.4,0.6,6.4,1.7C586.6,42.6,588.2,44.1,589.3,46.1z M586.9,52.5
		c0-0.3-0.1-0.5-0.3-0.7l-1.5-1.5l-6-6c-0.2-0.2-0.4-0.3-0.7-0.3c-0.3,0-0.5,0.1-0.7,0.3l-1.5,1.5c-0.2,0.2-0.3,0.4-0.3,0.7
		c0,0.3,0.1,0.5,0.3,0.7l3.1,3.1h-8.3c-0.3,0-0.5,0.1-0.7,0.3c-0.2,0.2-0.3,0.5-0.3,0.7v2.1c0,0.3,0.1,0.5,0.3,0.7
		c0.2,0.2,0.5,0.3,0.7,0.3h8.3l-3.1,3.1c-0.2,0.2-0.3,0.5-0.3,0.7s0.1,0.5,0.3,0.7l1.5,1.5c0.2,0.2,0.4,0.3,0.7,0.3
		c0.3,0,0.5-0.1,0.7-0.3l6-6l1.5-1.5C586.8,53,586.9,52.8,586.9,52.5z"/>
	<path display="inline" fill="#A7A8AA" d="M888.8,46.1c1.1,1.9,1.7,4.1,1.7,6.4c0,2.3-0.6,4.4-1.7,6.4s-2.7,3.5-4.6,4.6
		c-1.9,1.1-4.1,1.7-6.4,1.7c-2.3,0-4.4-0.6-6.4-1.7c-1.9-1.1-3.5-2.7-4.6-4.6s-1.7-4.1-1.7-6.4c0-2.3,0.6-4.4,1.7-6.4
		s2.7-3.5,4.6-4.6c1.9-1.1,4.1-1.7,6.4-1.7c2.3,0,4.4,0.6,6.4,1.7C886.2,42.6,887.7,44.1,888.8,46.1z M886.4,52.5
		c0-0.3-0.1-0.5-0.3-0.7l-1.5-1.5l-6-6c-0.2-0.2-0.4-0.3-0.7-0.3c-0.3,0-0.5,0.1-0.7,0.3l-1.5,1.5c-0.2,0.2-0.3,0.4-0.3,0.7
		c0,0.3,0.1,0.5,0.3,0.7l3.1,3.1h-8.3c-0.3,0-0.5,0.1-0.7,0.3c-0.2,0.2-0.3,0.5-0.3,0.7v2.1c0,0.3,0.1,0.5,0.3,0.7
		c0.2,0.2,0.5,0.3,0.7,0.3h8.3l-3.1,3.1c-0.2,0.2-0.3,0.5-0.3,0.7s0.1,0.5,0.3,0.7l1.5,1.5c0.2,0.2,0.4,0.3,0.7,0.3
		c0.3,0,0.5-0.1,0.7-0.3l6-6l1.5-1.5C886.3,53,886.4,52.8,886.4,52.5z"/>
	<g display="inline">
		<polygon fill="#D9D9D6" stroke="#FFFFFF" stroke-miterlimit="10" points="246.8,11.2 187.4,11.2 187.4,-4.4 246.8,-4.4 246.8,3.4 
					"/>
		<polygon fill="#D9D9D6" stroke="#FFFFFF" stroke-miterlimit="10" points="188.6,11.2 129.3,11.2 129.3,-4.4 188.6,-4.4 196.6,3.4 
					"/>
		<polygon fill="#D9D9D6" stroke="#FFFFFF" stroke-miterlimit="10" points="130.8,11.2 71.4,11.2 71.4,-4.4 130.8,-4.4 138.7,3.4 		
			"/>
		<polygon fill="#003865" stroke="#FFFFFF" stroke-miterlimit="10" points="72.5,11.2 13.1,11.2 13.1,-4.4 72.5,-4.4 80.5,3.4 		"/>
	</g>
	
		<rect x="312.1" y="182.8" display="inline" fill="#FFFFFF" stroke="#A7A8AA" stroke-miterlimit="10" width="233.6" height="119.7"/>
	<rect x="318.9" y="188.6" display="inline" fill="#009CDE" width="219.3" height="14.1"/>
	<rect x="330.4" y="221.3" display="inline" fill="#E8E8E8" width="193.7" height="57.1"/>
	<rect x="329.3" y="211.3" display="inline" fill="#A7A8AA" width="60.7" height="5.3"/>
	<g display="inline">
		<rect x="312.1" y="321" fill="#FFFFFF" stroke="#A7A8AA" stroke-miterlimit="10" width="233.6" height="126.4"/>
		<rect x="318.9" y="326.8" fill="#009CDE" width="219.3" height="14.1"/>
		<rect x="344.8" y="364.1" fill="#E8E8E8" width="108.4" height="5.8"/>
		<rect x="329.8" y="350.1" fill="#A7A8AA" width="60.7" height="5.3"/>
		<rect x="344.2" y="379.9" fill="#E8E8E8" width="61.9" height="5.8"/>
		<rect x="343.8" y="395.9" fill="#E8E8E8" width="163.6" height="5.8"/>
		<rect x="343.8" y="412.4" fill="#E8E8E8" width="30.7" height="5.8"/>
		<rect x="330.8" y="362.1" fill="#004C97" width="9.5" height="9.5"/>
		<rect x="330.8" y="378.1" fill="#E8E8E8" width="9.5" height="9.5"/>
		<rect x="330.7" y="394.1" fill="#E8E8E8" width="9.5" height="9.5"/>
		<rect x="330.8" y="410.6" fill="#E8E8E8" width="9.5" height="9.5"/>
	</g>
	<g display="inline">
		<polygon fill="#D9D9D6" stroke="#FFFFFF" stroke-miterlimit="10" points="545.1,11.2 485.7,11.2 485.7,-4.4 545.1,-4.4 545.1,3.4 
					"/>
		<polygon fill="#D9D9D6" stroke="#FFFFFF" stroke-miterlimit="10" points="486.9,11.2 427.6,11.2 427.6,-4.4 486.9,-4.4 494.9,3.4 
					"/>
		<polygon fill="#003865" stroke="#FFFFFF" stroke-miterlimit="10" points="429.1,11.2 369.7,11.2 369.7,-4.4 429.1,-4.4 437,3.4 		
			"/>
		<polygon fill="#D9D9D6" stroke="#FFFFFF" stroke-miterlimit="10" points="370.8,11.2 311.4,11.2 311.4,-4.4 370.8,-4.4 378.7,3.4 
					"/>
	</g>
	<g display="inline">
		<polygon fill="#D9D9D6" stroke="#FFFFFF" stroke-miterlimit="10" points="844.9,12.8 785.6,12.8 785.6,-2.8 844.9,-2.8 844.9,5 		
			"/>
		<polygon fill="#003865" stroke="#FFFFFF" stroke-miterlimit="10" points="786.8,12.8 727.4,12.8 727.4,-2.8 786.8,-2.8 794.7,5 		
			"/>
		<polygon fill="#D9D9D6" stroke="#FFFFFF" stroke-miterlimit="10" points="728.9,12.8 669.5,12.8 669.5,-2.8 728.9,-2.8 736.8,5 		
			"/>
		<polygon fill="#D9D9D6" stroke="#FFFFFF" stroke-miterlimit="10" points="670.6,12.8 611.3,12.8 611.3,-2.8 670.6,-2.8 678.6,5 		
			"/>
	</g>
	<g display="inline">
		<polygon fill="#003865" stroke="#FFFFFF" stroke-miterlimit="10" points="1144.8,12.8 1085.5,12.8 1085.5,-2.8 1144.8,-2.8 
			1144.8,5 		"/>
		<polygon fill="#D9D9D6" stroke="#FFFFFF" stroke-miterlimit="10" points="1086.7,12.8 1027.3,12.8 1027.3,-2.8 1086.7,-2.8 
			1094.6,5 		"/>
		<polygon fill="#D9D9D6" stroke="#FFFFFF" stroke-miterlimit="10" points="1028.8,12.8 969.4,12.8 969.4,-2.8 1028.8,-2.8 
			1036.7,5 		"/>
		<polygon fill="#D9D9D6" stroke="#FFFFFF" stroke-miterlimit="10" points="970.5,12.8 911.2,12.8 911.2,-2.8 970.5,-2.8 978.5,5 		
			"/>
	</g>
</g>
<g id="Accordian_Form">
	<rect x="0.5" y="0.8" fill="#EFEFEF" stroke="#63666A" stroke-miterlimit="10" width="256.5" height="217.7"/>
	<rect x="0.5" y="1.1" fill="#004C97" width="255.9" height="23.2"/>
	<g>
		<path fill="#FFFFFF" d="M16.1,13.6c0,2.5-1.2,3.8-3.5,3.8c-2.3,0-3.4-1.2-3.4-3.7V8.9h1.9v4.9c0,1.4,0.5,2,1.6,2
			c1,0,1.6-0.7,1.6-2V8.9h1.9V13.6z"/>
		<path fill="#FFFFFF" d="M17.6,17v-1.9c0.3,0.3,0.7,0.5,1.1,0.6s0.8,0.2,1.2,0.2c0.2,0,0.4,0,0.6-0.1s0.3-0.1,0.4-0.2
			s0.2-0.2,0.3-0.3s0.1-0.2,0.1-0.3c0-0.2,0-0.3-0.1-0.4s-0.2-0.2-0.4-0.4s-0.4-0.2-0.6-0.3s-0.5-0.2-0.7-0.3
			c-0.7-0.3-1.1-0.6-1.5-1s-0.5-0.9-0.5-1.4c0-0.4,0.1-0.8,0.3-1.1s0.4-0.6,0.7-0.8s0.7-0.4,1.1-0.4s0.8-0.1,1.3-0.1
			c0.4,0,0.8,0,1.2,0.1s0.6,0.1,0.9,0.2v1.8c-0.1-0.1-0.3-0.2-0.5-0.3s-0.3-0.1-0.5-0.2s-0.4-0.1-0.5-0.1s-0.3,0-0.5,0
			c-0.2,0-0.4,0-0.6,0.1s-0.3,0.1-0.4,0.2s-0.2,0.2-0.3,0.3s-0.1,0.2-0.1,0.3c0,0.1,0,0.3,0.1,0.4s0.2,0.2,0.3,0.3s0.3,0.2,0.5,0.3
			s0.4,0.2,0.7,0.3c0.3,0.1,0.6,0.3,0.9,0.4s0.5,0.3,0.7,0.5s0.3,0.4,0.4,0.7s0.2,0.6,0.2,0.9c0,0.5-0.1,0.9-0.3,1.2
			s-0.4,0.6-0.7,0.8s-0.7,0.3-1.1,0.4s-0.8,0.1-1.3,0.1c-0.5,0-0.9,0-1.3-0.1S17.9,17.1,17.6,17z"/>
		<path fill="#FFFFFF" d="M26.6,14.4v2.9h-1.9V8.9h3c2.1,0,3.2,0.9,3.2,2.7c0,0.8-0.3,1.5-0.9,2s-1.4,0.8-2.4,0.8H26.6z M26.6,10.3
			V13h0.7c1,0,1.5-0.4,1.5-1.3c0-0.9-0.5-1.3-1.5-1.3H26.6z"/>
		<path fill="#FFFFFF" d="M38,10.4h-2.4v6.9h-1.9v-6.9h-2.4V8.9H38V10.4z"/>
		<path fill="#FFFFFF" d="M42.2,17.4c-1.2,0-2.2-0.4-2.9-1.2s-1.1-1.8-1.1-3.1c0-1.3,0.4-2.4,1.2-3.2s1.8-1.2,3.1-1.2
			c1.2,0,2.2,0.4,2.9,1.2s1.1,1.8,1.1,3.1c0,1.3-0.4,2.4-1.2,3.2S43.4,17.4,42.2,17.4z M42.3,10.4c-0.7,0-1.2,0.2-1.6,0.7
			s-0.6,1.2-0.6,2c0,0.8,0.2,1.5,0.6,2s0.9,0.7,1.5,0.7c0.7,0,1.2-0.2,1.6-0.7s0.6-1.1,0.6-2c0-0.9-0.2-1.5-0.6-2
			S42.9,10.4,42.3,10.4z"/>
	</g>
	<rect x="12.3" y="42.2" fill="#FFFFFF" stroke="#A7A8AA" stroke-miterlimit="10" width="233.6" height="157"/>
	<rect x="19.1" y="48" fill="#009CDE" width="219.3" height="14.1"/>
	<rect x="26.8" y="81.1" fill="#E8E8E8" width="204.6" height="15.9"/>
	<rect x="169.7" y="176.4" fill="#004C97" width="62" height="15.8"/>
	<rect x="26.3" y="71.1" fill="#A7A8AA" width="96.2" height="5.3"/>
	<rect x="26.9" y="114.4" fill="#E8E8E8" width="205.5" height="15.9"/>
	<rect x="27" y="104.4" fill="#A7A8AA" width="58.7" height="5.3"/>
	<rect x="26.9" y="150.1" fill="#E8E8E8" width="205.5" height="15.9"/>
	<rect x="27" y="140.1" fill="#A7A8AA" width="85.2" height="5.3"/>
	<rect x="300" y="0.5" fill="#EFEFEF" stroke="#63666A" stroke-miterlimit="10" width="256.5" height="234.4"/>
	<rect x="300" y="0.8" fill="#004C97" width="255.9" height="23.2"/>
	<g>
		<path fill="#FFFFFF" d="M315.6,13.3c0,2.5-1.2,3.8-3.5,3.8c-2.3,0-3.4-1.2-3.4-3.7V8.6h1.9v4.9c0,1.4,0.5,2,1.6,2
			c1,0,1.6-0.7,1.6-2V8.6h1.9V13.3z"/>
		<path fill="#FFFFFF" d="M317.1,16.6v-1.9c0.3,0.3,0.7,0.5,1.1,0.6s0.8,0.2,1.2,0.2c0.2,0,0.4,0,0.6-0.1s0.3-0.1,0.4-0.2
			s0.2-0.2,0.3-0.3s0.1-0.2,0.1-0.3c0-0.2,0-0.3-0.1-0.4s-0.2-0.2-0.4-0.4s-0.4-0.2-0.6-0.3s-0.5-0.2-0.7-0.3
			c-0.7-0.3-1.1-0.6-1.5-1s-0.5-0.9-0.5-1.4c0-0.4,0.1-0.8,0.3-1.1s0.4-0.6,0.7-0.8s0.7-0.4,1.1-0.4s0.8-0.1,1.3-0.1
			c0.4,0,0.8,0,1.2,0.1s0.6,0.1,0.9,0.2v1.8c-0.1-0.1-0.3-0.2-0.5-0.3s-0.3-0.1-0.5-0.2s-0.4-0.1-0.5-0.1s-0.3,0-0.5,0
			c-0.2,0-0.4,0-0.6,0.1s-0.3,0.1-0.4,0.2s-0.2,0.2-0.3,0.3s-0.1,0.2-0.1,0.3c0,0.1,0,0.3,0.1,0.4s0.2,0.2,0.3,0.3s0.3,0.2,0.5,0.3
			s0.4,0.2,0.7,0.3c0.3,0.1,0.6,0.3,0.9,0.4s0.5,0.3,0.7,0.5s0.3,0.4,0.4,0.7s0.2,0.6,0.2,0.9c0,0.5-0.1,0.9-0.3,1.2
			s-0.4,0.6-0.7,0.8s-0.7,0.3-1.1,0.4s-0.8,0.1-1.3,0.1c-0.5,0-0.9,0-1.3-0.1S317.4,16.8,317.1,16.6z"/>
		<path fill="#FFFFFF" d="M326.1,14.1V17h-1.9V8.6h3c2.1,0,3.2,0.9,3.2,2.7c0,0.8-0.3,1.5-0.9,2s-1.4,0.8-2.4,0.8H326.1z M326.1,10
			v2.6h0.7c1,0,1.5-0.4,1.5-1.3c0-0.9-0.5-1.3-1.5-1.3H326.1z"/>
		<path fill="#FFFFFF" d="M337.5,10.1h-2.4V17h-1.9v-6.9h-2.4V8.6h6.7V10.1z"/>
		<path fill="#FFFFFF" d="M341.7,17.1c-1.2,0-2.2-0.4-2.9-1.2s-1.1-1.8-1.1-3.1c0-1.3,0.4-2.4,1.2-3.2s1.8-1.2,3.1-1.2
			c1.2,0,2.2,0.4,2.9,1.2s1.1,1.8,1.1,3.1c0,1.3-0.4,2.4-1.2,3.2S342.9,17.1,341.7,17.1z M341.8,10c-0.7,0-1.2,0.2-1.6,0.7
			s-0.6,1.2-0.6,2c0,0.8,0.2,1.5,0.6,2s0.9,0.7,1.5,0.7c0.7,0,1.2-0.2,1.6-0.7s0.6-1.1,0.6-2c0-0.9-0.2-1.5-0.6-2S342.4,10,341.8,10
			z"/>
	</g>
	<rect x="311.8" y="79.9" fill="#FFFFFF" stroke="#A7A8AA" stroke-miterlimit="10" width="233.6" height="140.4"/>
	<rect x="318.6" y="85.6" fill="#009CDE" width="219.3" height="14.1"/>
	<rect x="469.2" y="194.1" fill="#004C97" width="62" height="15.8"/>
	<g>
		<rect x="344.5" y="126.8" fill="#E8E8E8" width="84.9" height="5.8"/>
		<rect x="329.5" y="112.8" fill="#A7A8AA" width="60.7" height="5.3"/>
		<circle fill="#004C97" cx="334.3" cy="129.5" r="4.8"/>
		<rect x="343.9" y="142.5" fill="#E8E8E8" width="61.9" height="5.8"/>
		<circle fill="#004C97" cx="333.7" cy="145.3" r="4.8"/>
		<rect x="343.5" y="158.5" fill="#E8E8E8" width="118.1" height="5.8"/>
		<circle fill="#004C97" cx="333.3" cy="161.3" r="4.8"/>
		<rect x="343.5" y="175" fill="#E8E8E8" width="39.1" height="5.8"/>
		<circle fill="#004C97" cx="333.3" cy="177.8" r="4.8"/>
	</g>
	<rect x="599.5" y="1.2" fill="#EFEFEF" stroke="#63666A" stroke-miterlimit="10" width="256.5" height="287.1"/>
	<rect x="599.5" y="1.4" fill="#004C97" width="255.9" height="23.2"/>
	<g>
		<path fill="#FFFFFF" d="M615.2,14c0,2.5-1.2,3.8-3.5,3.8c-2.3,0-3.4-1.2-3.4-3.7V9.2h1.9v4.9c0,1.4,0.5,2,1.6,2c1,0,1.6-0.7,1.6-2
			V9.2h1.9V14z"/>
		<path fill="#FFFFFF" d="M616.6,17.3v-1.9c0.3,0.3,0.7,0.5,1.1,0.6s0.8,0.2,1.2,0.2c0.2,0,0.4,0,0.6-0.1s0.3-0.1,0.4-0.2
			s0.2-0.2,0.3-0.3s0.1-0.2,0.1-0.3c0-0.2,0-0.3-0.1-0.4s-0.2-0.2-0.4-0.4s-0.4-0.2-0.6-0.3s-0.5-0.2-0.7-0.3
			c-0.7-0.3-1.1-0.6-1.5-1s-0.5-0.9-0.5-1.4c0-0.4,0.1-0.8,0.3-1.1s0.4-0.6,0.7-0.8s0.7-0.4,1.1-0.4s0.8-0.1,1.3-0.1
			c0.4,0,0.8,0,1.2,0.1s0.6,0.1,0.9,0.2v1.8c-0.1-0.1-0.3-0.2-0.5-0.3s-0.3-0.1-0.5-0.2s-0.4-0.1-0.5-0.1s-0.3,0-0.5,0
			c-0.2,0-0.4,0-0.6,0.1s-0.3,0.1-0.4,0.2s-0.2,0.2-0.3,0.3s-0.1,0.2-0.1,0.3c0,0.1,0,0.3,0.1,0.4s0.2,0.2,0.3,0.3s0.3,0.2,0.5,0.3
			s0.4,0.2,0.7,0.3c0.3,0.1,0.6,0.3,0.9,0.4s0.5,0.3,0.7,0.5s0.3,0.4,0.4,0.7s0.2,0.6,0.2,0.9c0,0.5-0.1,0.9-0.3,1.2
			s-0.4,0.6-0.7,0.8s-0.7,0.3-1.1,0.4s-0.8,0.1-1.3,0.1c-0.5,0-0.9,0-1.3-0.1S616.9,17.5,616.6,17.3z"/>
		<path fill="#FFFFFF" d="M625.6,14.7v2.9h-1.9V9.2h3c2.1,0,3.2,0.9,3.2,2.7c0,0.8-0.3,1.5-0.9,2s-1.4,0.8-2.4,0.8H625.6z
			 M625.6,10.7v2.6h0.7c1,0,1.5-0.4,1.5-1.3c0-0.9-0.5-1.3-1.5-1.3H625.6z"/>
		<path fill="#FFFFFF" d="M637,10.8h-2.4v6.9h-1.9v-6.9h-2.4V9.2h6.7V10.8z"/>
		<path fill="#FFFFFF" d="M641.2,17.8c-1.2,0-2.2-0.4-2.9-1.2s-1.1-1.8-1.1-3.1c0-1.3,0.4-2.4,1.2-3.2s1.8-1.2,3.1-1.2
			c1.2,0,2.2,0.4,2.9,1.2s1.1,1.8,1.1,3.1c0,1.3-0.4,2.4-1.2,3.2S642.5,17.8,641.2,17.8z M641.3,10.7c-0.7,0-1.2,0.2-1.6,0.7
			s-0.6,1.2-0.6,2c0,0.8,0.2,1.5,0.6,2s0.9,0.7,1.5,0.7c0.7,0,1.2-0.2,1.6-0.7s0.6-1.1,0.6-2c0-0.9-0.2-1.5-0.6-2
			S642,10.7,641.3,10.7z"/>
	</g>
	<rect x="611.4" y="111.5" fill="#FFFFFF" stroke="#A7A8AA" stroke-miterlimit="10" width="233.6" height="157"/>
	<rect x="618.1" y="117.3" fill="#009CDE" width="219.3" height="14.1"/>
	<rect x="768.7" y="245.7" fill="#004C97" width="62" height="15.8"/>
	<rect x="629.6" y="150" fill="#E8E8E8" width="193.7" height="57.1"/>
	<rect x="628.5" y="140" fill="#A7A8AA" width="60.7" height="5.3"/>
	<rect x="899" y="0.5" fill="#EFEFEF" stroke="#63666A" stroke-miterlimit="10" width="256.5" height="332.4"/>
	<rect x="899" y="0.8" fill="#004C97" width="255.9" height="23.2"/>
	<g>
		<path fill="#FFFFFF" d="M914.7,13.3c0,2.5-1.2,3.8-3.5,3.8c-2.3,0-3.4-1.2-3.4-3.7V8.6h1.9v4.9c0,1.4,0.5,2,1.6,2
			c1,0,1.6-0.7,1.6-2V8.6h1.9V13.3z"/>
		<path fill="#FFFFFF" d="M916.1,16.6v-1.9c0.3,0.3,0.7,0.5,1.1,0.6s0.8,0.2,1.2,0.2c0.2,0,0.4,0,0.6-0.1s0.3-0.1,0.4-0.2
			s0.2-0.2,0.3-0.3s0.1-0.2,0.1-0.3c0-0.2,0-0.3-0.1-0.4s-0.2-0.2-0.4-0.4s-0.4-0.2-0.6-0.3s-0.5-0.2-0.7-0.3
			c-0.7-0.3-1.1-0.6-1.5-1s-0.5-0.9-0.5-1.4c0-0.4,0.1-0.8,0.3-1.1s0.4-0.6,0.7-0.8s0.7-0.4,1.1-0.4s0.8-0.1,1.3-0.1
			c0.4,0,0.8,0,1.2,0.1s0.6,0.1,0.9,0.2v1.8c-0.1-0.1-0.3-0.2-0.5-0.3s-0.3-0.1-0.5-0.2s-0.4-0.1-0.5-0.1s-0.3,0-0.5,0
			c-0.2,0-0.4,0-0.6,0.1s-0.3,0.1-0.4,0.2s-0.2,0.2-0.3,0.3s-0.1,0.2-0.1,0.3c0,0.1,0,0.3,0.1,0.4s0.2,0.2,0.3,0.3s0.3,0.2,0.5,0.3
			s0.4,0.2,0.7,0.3c0.3,0.1,0.6,0.3,0.9,0.4s0.5,0.3,0.7,0.5s0.3,0.4,0.4,0.7s0.2,0.6,0.2,0.9c0,0.5-0.1,0.9-0.3,1.2
			s-0.4,0.6-0.7,0.8s-0.7,0.3-1.1,0.4s-0.8,0.1-1.3,0.1c-0.5,0-0.9,0-1.3-0.1S916.4,16.8,916.1,16.6z"/>
		<path fill="#FFFFFF" d="M925.1,14.1V17h-1.9V8.6h3c2.1,0,3.2,0.9,3.2,2.7c0,0.8-0.3,1.5-0.9,2s-1.4,0.8-2.4,0.8H925.1z M925.1,10
			v2.6h0.7c1,0,1.5-0.4,1.5-1.3c0-0.9-0.5-1.3-1.5-1.3H925.1z"/>
		<path fill="#FFFFFF" d="M936.5,10.1h-2.4V17h-1.9v-6.9h-2.4V8.6h6.7V10.1z"/>
		<path fill="#FFFFFF" d="M940.7,17.1c-1.2,0-2.2-0.4-2.9-1.2s-1.1-1.8-1.1-3.1c0-1.3,0.4-2.4,1.2-3.2s1.8-1.2,3.1-1.2
			c1.2,0,2.2,0.4,2.9,1.2s1.1,1.8,1.1,3.1c0,1.3-0.4,2.4-1.2,3.2S942,17.1,940.7,17.1z M940.8,10c-0.7,0-1.2,0.2-1.6,0.7
			s-0.6,1.2-0.6,2c0,0.8,0.2,1.5,0.6,2s0.9,0.7,1.5,0.7c0.7,0,1.2-0.2,1.6-0.7s0.6-1.1,0.6-2c0-0.9-0.2-1.5-0.6-2S941.5,10,940.8,10
			z"/>
	</g>
	<rect x="910.9" y="156.9" fill="#FFFFFF" stroke="#A7A8AA" stroke-miterlimit="10" width="233.6" height="157"/>
	<rect x="917.7" y="162.6" fill="#009CDE" width="219.3" height="14.1"/>
	<rect x="1068.2" y="291.1" fill="#004C97" width="62" height="15.8"/>
	<rect x="943.5" y="200" fill="#E8E8E8" width="108.4" height="5.8"/>
	<rect x="928.5" y="186" fill="#A7A8AA" width="60.7" height="5.3"/>
	<rect x="942.9" y="215.8" fill="#E8E8E8" width="61.9" height="5.8"/>
	<rect x="942.5" y="231.8" fill="#E8E8E8" width="163.6" height="5.8"/>
	<rect x="942.5" y="248.3" fill="#E8E8E8" width="30.7" height="5.8"/>
	<rect x="929.5" y="198" fill="#004C97" width="9.5" height="9.5"/>
	<rect x="929.5" y="213.9" fill="#E8E8E8" width="9.5" height="9.5"/>
	<rect x="929.4" y="229.9" fill="#E8E8E8" width="9.5" height="9.5"/>
	<rect x="929.5" y="246.4" fill="#E8E8E8" width="9.5" height="9.5"/>
	<path fill="#A7A8AA" d="M289.5,90.7c1.1,1.9,1.7,4.1,1.7,6.4c0,2.3-0.6,4.4-1.7,6.4s-2.7,3.5-4.6,4.6c-1.9,1.1-4.1,1.7-6.4,1.7
		c-2.3,0-4.4-0.6-6.4-1.7c-1.9-1.1-3.5-2.7-4.6-4.6s-1.7-4.1-1.7-6.4c0-2.3,0.6-4.4,1.7-6.4c1.1-1.9,2.7-3.5,4.6-4.6
		c1.9-1.1,4.1-1.7,6.4-1.7c2.3,0,4.4,0.6,6.4,1.7C286.8,87.2,288.4,88.7,289.5,90.7z M287.1,97c0-0.3-0.1-0.5-0.3-0.7l-1.5-1.5l-6-6
		c-0.2-0.2-0.4-0.3-0.7-0.3c-0.3,0-0.5,0.1-0.7,0.3l-1.5,1.5c-0.2,0.2-0.3,0.4-0.3,0.7c0,0.3,0.1,0.5,0.3,0.7l3.1,3.1h-8.3
		c-0.3,0-0.5,0.1-0.7,0.3c-0.2,0.2-0.3,0.5-0.3,0.7v2.1c0,0.3,0.1,0.5,0.3,0.7c0.2,0.2,0.5,0.3,0.7,0.3h8.3l-3.1,3.1
		c-0.2,0.2-0.3,0.5-0.3,0.7s0.1,0.5,0.3,0.7l1.5,1.5c0.2,0.2,0.4,0.3,0.7,0.3c0.3,0,0.5-0.1,0.7-0.3l6-6l1.5-1.5
		C287,97.6,287.1,97.3,287.1,97z"/>
	<path fill="#A7A8AA" d="M589,90.7c1.1,1.9,1.7,4.1,1.7,6.4c0,2.3-0.6,4.4-1.7,6.4s-2.7,3.5-4.6,4.6c-1.9,1.1-4.1,1.7-6.4,1.7
		c-2.3,0-4.4-0.6-6.4-1.7c-1.9-1.1-3.5-2.7-4.6-4.6s-1.7-4.1-1.7-6.4c0-2.3,0.6-4.4,1.7-6.4c1.1-1.9,2.7-3.5,4.6-4.6
		c1.9-1.1,4.1-1.7,6.4-1.7c2.3,0,4.4,0.6,6.4,1.7C586.3,87.2,587.9,88.7,589,90.7z M586.6,97c0-0.3-0.1-0.5-0.3-0.7l-1.5-1.5l-6-6
		c-0.2-0.2-0.4-0.3-0.7-0.3c-0.3,0-0.5,0.1-0.7,0.3l-1.5,1.5c-0.2,0.2-0.3,0.4-0.3,0.7c0,0.3,0.1,0.5,0.3,0.7l3.1,3.1h-8.3
		c-0.3,0-0.5,0.1-0.7,0.3c-0.2,0.2-0.3,0.5-0.3,0.7v2.1c0,0.3,0.1,0.5,0.3,0.7c0.2,0.2,0.5,0.3,0.7,0.3h8.3l-3.1,3.1
		c-0.2,0.2-0.3,0.5-0.3,0.7s0.1,0.5,0.3,0.7l1.5,1.5c0.2,0.2,0.4,0.3,0.7,0.3c0.3,0,0.5-0.1,0.7-0.3l6-6l1.5-1.5
		C586.5,97.6,586.6,97.3,586.6,97z"/>
	<path fill="#A7A8AA" d="M888.5,90.7c1.1,1.9,1.7,4.1,1.7,6.4c0,2.3-0.6,4.4-1.7,6.4s-2.7,3.5-4.6,4.6c-1.9,1.1-4.1,1.7-6.4,1.7
		c-2.3,0-4.4-0.6-6.4-1.7c-1.9-1.1-3.5-2.7-4.6-4.6s-1.7-4.1-1.7-6.4c0-2.3,0.6-4.4,1.7-6.4c1.1-1.9,2.7-3.5,4.6-4.6
		c1.9-1.1,4.1-1.7,6.4-1.7c2.3,0,4.4,0.6,6.4,1.7C885.9,87.2,887.4,88.7,888.5,90.7z M886.1,97c0-0.3-0.1-0.5-0.3-0.7l-1.5-1.5l-6-6
		c-0.2-0.2-0.4-0.3-0.7-0.3c-0.3,0-0.5,0.1-0.7,0.3l-1.5,1.5c-0.2,0.2-0.3,0.4-0.3,0.7c0,0.3,0.1,0.5,0.3,0.7l3.1,3.1h-8.3
		c-0.3,0-0.5,0.1-0.7,0.3c-0.2,0.2-0.3,0.5-0.3,0.7v2.1c0,0.3,0.1,0.5,0.3,0.7c0.2,0.2,0.5,0.3,0.7,0.3h8.3l-3.1,3.1
		c-0.2,0.2-0.3,0.5-0.3,0.7s0.1,0.5,0.3,0.7l1.5,1.5c0.2,0.2,0.4,0.3,0.7,0.3c0.3,0,0.5-0.1,0.7-0.3l6-6l1.5-1.5
		C886,97.6,886.1,97.3,886.1,97z"/>
	<g>
		<rect x="311.1" y="36" fill="#FFFFFF" stroke="#A7A8AA" stroke-miterlimit="10" width="233.6" height="27"/>
		<rect x="317.9" y="42.4" fill="#009CDE" width="219.8" height="14.1"/>
		<rect x="317.9" y="42.4" fill="#003865" width="17.4" height="14.1"/>
	</g>
	<g>
		<rect x="612.9" y="34.5" fill="#FFFFFF" stroke="#A7A8AA" stroke-miterlimit="10" width="233.6" height="27"/>
		<rect x="619.6" y="40.8" fill="#009CDE" width="219.8" height="14.1"/>
		<rect x="619.6" y="40.8" fill="#003865" width="17.4" height="14.1"/>
	</g>
	<g>
		<rect x="612.1" y="71.5" fill="#FFFFFF" stroke="#A7A8AA" stroke-miterlimit="10" width="233.6" height="27"/>
		<rect x="618.9" y="77.8" fill="#009CDE" width="219.8" height="14.1"/>
		<rect x="618.9" y="77.8" fill="#003865" width="17.4" height="14.1"/>
	</g>
	<g>
		<rect x="910.9" y="36" fill="#FFFFFF" stroke="#A7A8AA" stroke-miterlimit="10" width="233.6" height="27"/>
		<rect x="917.6" y="42.4" fill="#009CDE" width="219.8" height="14.1"/>
		<rect x="917.6" y="42.4" fill="#003865" width="17.4" height="14.1"/>
	</g>
	<g>
		<rect x="910.1" y="73.1" fill="#FFFFFF" stroke="#A7A8AA" stroke-miterlimit="10" width="233.6" height="27"/>
		<rect x="916.8" y="79.4" fill="#009CDE" width="219.8" height="14.1"/>
		<rect x="916.8" y="79.4" fill="#003865" width="17.4" height="14.1"/>
	</g>
	<g>
		<rect x="910.9" y="113.8" fill="#FFFFFF" stroke="#A7A8AA" stroke-miterlimit="10" width="233.6" height="27"/>
		<rect x="917.6" y="120.2" fill="#009CDE" width="219.8" height="14.1"/>
		<rect x="917.6" y="120.2" fill="#003865" width="17.4" height="14.1"/>
	</g>
</g>
<g id="Wizard" display="none">
	<g display="inline">
		<rect x="3" y="-43.4" fill="#EFEFEF" stroke="#63666A" stroke-miterlimit="10" width="256.5" height="243.7"/>
		<rect x="3" y="-43.2" fill="#004C97" width="255.9" height="23.2"/>
		<g>
			<path fill="#FFFFFF" d="M18.7-30.6c0,2.5-1.2,3.8-3.5,3.8c-2.3,0-3.4-1.2-3.4-3.7v-4.9h1.9v4.9c0,1.4,0.5,2,1.6,2
				c1,0,1.6-0.7,1.6-2v-4.9h1.9V-30.6z"/>
			<path fill="#FFFFFF" d="M20.1-27.3v-1.9c0.3,0.3,0.7,0.5,1.1,0.6s0.8,0.2,1.2,0.2c0.2,0,0.4,0,0.6-0.1s0.3-0.1,0.4-0.2
				s0.2-0.2,0.3-0.3s0.1-0.2,0.1-0.3c0-0.2,0-0.3-0.1-0.4s-0.2-0.2-0.4-0.4s-0.4-0.2-0.6-0.3s-0.5-0.2-0.7-0.3
				c-0.7-0.3-1.1-0.6-1.5-1s-0.5-0.9-0.5-1.4c0-0.4,0.1-0.8,0.3-1.1s0.4-0.6,0.7-0.8s0.7-0.4,1.1-0.4s0.8-0.1,1.3-0.1
				c0.4,0,0.8,0,1.2,0.1s0.6,0.1,0.9,0.2v1.8c-0.1-0.1-0.3-0.2-0.5-0.3s-0.3-0.1-0.5-0.2S24.1-34,24-34s-0.3,0-0.5,0
				c-0.2,0-0.4,0-0.6,0.1s-0.3,0.1-0.4,0.2s-0.2,0.2-0.3,0.3s-0.1,0.2-0.1,0.3c0,0.1,0,0.3,0.1,0.4s0.2,0.2,0.3,0.3s0.3,0.2,0.5,0.3
				s0.4,0.2,0.7,0.3c0.3,0.1,0.6,0.3,0.9,0.4s0.5,0.3,0.7,0.5s0.3,0.4,0.4,0.7s0.2,0.6,0.2,0.9c0,0.5-0.1,0.9-0.3,1.2
				s-0.4,0.6-0.7,0.8s-0.7,0.3-1.1,0.4s-0.8,0.1-1.3,0.1c-0.5,0-0.9,0-1.3-0.1S20.4-27.1,20.1-27.3z"/>
			<path fill="#FFFFFF" d="M29.1-29.9v2.9h-1.9v-8.4h3c2.1,0,3.2,0.9,3.2,2.7c0,0.8-0.3,1.5-0.9,2c-0.6,0.5-1.4,0.8-2.4,0.8H29.1z
				 M29.1-33.9v2.6h0.7c1,0,1.5-0.4,1.5-1.3c0-0.9-0.5-1.3-1.5-1.3H29.1z"/>
			<path fill="#FFFFFF" d="M40.5-33.8h-2.4v6.9h-1.9v-6.9h-2.4v-1.5h6.7V-33.8z"/>
			<path fill="#FFFFFF" d="M44.7-26.8c-1.2,0-2.2-0.4-2.9-1.2s-1.1-1.8-1.1-3.1c0-1.3,0.4-2.4,1.2-3.2s1.8-1.2,3.1-1.2
				c1.2,0,2.2,0.4,2.9,1.2s1.1,1.8,1.1,3.1c0,1.3-0.4,2.4-1.2,3.2S46-26.8,44.7-26.8z M44.8-33.9c-0.7,0-1.2,0.2-1.6,0.7
				s-0.6,1.2-0.6,2c0,0.8,0.2,1.5,0.6,2s0.9,0.7,1.5,0.7c0.7,0,1.2-0.2,1.6-0.7s0.6-1.1,0.6-2c0-0.9-0.2-1.5-0.6-2
				S45.5-33.9,44.8-33.9z"/>
		</g>
		<rect x="14.9" y="24" fill="#FFFFFF" stroke="#A7A8AA" stroke-miterlimit="10" width="233.6" height="157"/>
		<rect x="21.6" y="29.7" fill="#009CDE" width="219.3" height="14.1"/>
		<rect x="29.3" y="62.9" fill="#E8E8E8" width="204.6" height="15.9"/>
		<rect x="172.2" y="158.1" fill="#004C97" width="62" height="15.8"/>
		<rect x="28.9" y="52.9" fill="#A7A8AA" width="96.2" height="5.3"/>
		<rect x="29.4" y="96.1" fill="#E8E8E8" width="205.5" height="15.9"/>
		<rect x="29.6" y="86.1" fill="#A7A8AA" width="58.7" height="5.3"/>
		<rect x="29.4" y="131.8" fill="#E8E8E8" width="205.5" height="15.9"/>
		<rect x="29.6" y="121.8" fill="#A7A8AA" width="85.2" height="5.3"/>
		<polygon fill="#D9D9D6" stroke="#FFFFFF" stroke-miterlimit="10" points="248.5,6.3 189.2,6.3 189.2,-9.3 248.5,-9.3 248.5,-1.5 
					"/>
		<polygon fill="#D9D9D6" stroke="#FFFFFF" stroke-miterlimit="10" points="190.4,6.3 131,6.3 131,-9.3 190.4,-9.3 198.3,-1.5 		"/>
		<polygon fill="#D9D9D6" stroke="#FFFFFF" stroke-miterlimit="10" points="132.5,6.3 73.1,6.3 73.1,-9.3 132.5,-9.3 140.4,-1.5 		
			"/>
		<polygon fill="#003865" stroke="#FFFFFF" stroke-miterlimit="10" points="74.2,6.3 14.9,6.3 14.9,-9.3 74.2,-9.3 82.2,-1.5 		"/>
	</g>
	<g display="inline">
		<rect x="302.6" y="-43.7" fill="#EFEFEF" stroke="#63666A" stroke-miterlimit="10" width="256.5" height="243.7"/>
		<rect x="302.6" y="-43.5" fill="#004C97" width="255.9" height="23.2"/>
		<g>
			<path fill="#FFFFFF" d="M318.2-30.9c0,2.5-1.2,3.8-3.5,3.8c-2.3,0-3.4-1.2-3.4-3.7v-4.9h1.9v4.9c0,1.4,0.5,2,1.6,2
				c1,0,1.6-0.7,1.6-2v-4.9h1.9V-30.9z"/>
			<path fill="#FFFFFF" d="M319.6-27.6v-1.9c0.3,0.3,0.7,0.5,1.1,0.6s0.8,0.2,1.2,0.2c0.2,0,0.4,0,0.6-0.1s0.3-0.1,0.4-0.2
				s0.2-0.2,0.3-0.3s0.1-0.2,0.1-0.3c0-0.2,0-0.3-0.1-0.4s-0.2-0.2-0.4-0.4s-0.4-0.2-0.6-0.3s-0.5-0.2-0.7-0.3
				c-0.7-0.3-1.1-0.6-1.5-1c-0.3-0.4-0.5-0.9-0.5-1.4c0-0.4,0.1-0.8,0.3-1.1s0.4-0.6,0.7-0.8s0.7-0.4,1.1-0.4s0.8-0.1,1.3-0.1
				c0.4,0,0.8,0,1.2,0.1s0.6,0.1,0.9,0.2v1.8c-0.1-0.1-0.3-0.2-0.5-0.3s-0.3-0.1-0.5-0.2s-0.4-0.1-0.5-0.1s-0.3,0-0.5,0
				c-0.2,0-0.4,0-0.6,0.1s-0.3,0.1-0.4,0.2s-0.2,0.2-0.3,0.3s-0.1,0.2-0.1,0.3c0,0.1,0,0.3,0.1,0.4s0.2,0.2,0.3,0.3s0.3,0.2,0.5,0.3
				s0.4,0.2,0.7,0.3c0.3,0.1,0.6,0.3,0.9,0.4s0.5,0.3,0.7,0.5s0.3,0.4,0.4,0.7s0.2,0.6,0.2,0.9c0,0.5-0.1,0.9-0.3,1.2
				s-0.4,0.6-0.7,0.8s-0.7,0.3-1.1,0.4s-0.8,0.1-1.3,0.1c-0.5,0-0.9,0-1.3-0.1S319.9-27.5,319.6-27.6z"/>
			<path fill="#FFFFFF" d="M328.6-30.2v2.9h-1.9v-8.4h3c2.1,0,3.2,0.9,3.2,2.7c0,0.8-0.3,1.5-0.9,2s-1.4,0.8-2.4,0.8H328.6z
				 M328.6-34.2v2.6h0.7c1,0,1.5-0.4,1.5-1.3c0-0.9-0.5-1.3-1.5-1.3H328.6z"/>
			<path fill="#FFFFFF" d="M340-34.1h-2.4v6.9h-1.9v-6.9h-2.4v-1.5h6.7V-34.1z"/>
			<path fill="#FFFFFF" d="M344.2-27.1c-1.2,0-2.2-0.4-2.9-1.2s-1.1-1.8-1.1-3.1c0-1.3,0.4-2.4,1.2-3.2s1.8-1.2,3.1-1.2
				c1.2,0,2.2,0.4,2.9,1.2s1.1,1.8,1.1,3.1c0,1.3-0.4,2.4-1.2,3.2S345.5-27.1,344.2-27.1z M344.3-34.2c-0.7,0-1.2,0.2-1.6,0.7
				s-0.6,1.2-0.6,2c0,0.8,0.2,1.5,0.6,2s0.9,0.7,1.5,0.7c0.7,0,1.2-0.2,1.6-0.7s0.6-1.1,0.6-2c0-0.9-0.2-1.5-0.6-2
				S345-34.2,344.3-34.2z"/>
		</g>
		<rect x="314.4" y="23.6" fill="#FFFFFF" stroke="#A7A8AA" stroke-miterlimit="10" width="233.6" height="157"/>
		<rect x="321.2" y="29.4" fill="#009CDE" width="219.3" height="14.1"/>
		<rect x="471.7" y="157.8" fill="#004C97" width="62" height="15.8"/>
		<polygon fill="#D9D9D6" stroke="#FFFFFF" stroke-miterlimit="10" points="548,6 488.7,6 488.7,-9.6 548,-9.6 548,-1.8 		"/>
		<polygon fill="#D9D9D6" stroke="#FFFFFF" stroke-miterlimit="10" points="489.9,6 430.5,6 430.5,-9.6 489.9,-9.6 497.8,-1.8 		"/>
		<polygon fill="#003865" stroke="#FFFFFF" stroke-miterlimit="10" points="432,6 372.7,6 372.7,-9.6 432,-9.6 440,-1.8 		"/>
		<polygon fill="#D9D9D6" stroke="#FFFFFF" stroke-miterlimit="10" points="373.7,6 314.4,6 314.4,-9.6 373.7,-9.6 381.7,-1.8 		"/>
		<g>
			<rect x="347" y="70.5" fill="#E8E8E8" width="84.9" height="5.8"/>
			<rect x="332.1" y="56.5" fill="#A7A8AA" width="60.7" height="5.3"/>
			<circle fill="#004C97" cx="336.8" cy="73.3" r="4.8"/>
			<rect x="346.4" y="86.3" fill="#E8E8E8" width="61.9" height="5.8"/>
			<circle fill="#E8E8E8" cx="336.2" cy="89.1" r="4.8"/>
			<rect x="346" y="102.3" fill="#E8E8E8" width="118.1" height="5.8"/>
			<circle fill="#E8E8E8" cx="335.8" cy="105.1" r="4.8"/>
			<rect x="346" y="118.8" fill="#E8E8E8" width="39.1" height="5.8"/>
			<circle fill="#E8E8E8" cx="335.8" cy="121.6" r="4.8"/>
		</g>
	</g>
	<g display="inline">
		<rect x="602.1" y="-43.1" fill="#EFEFEF" stroke="#63666A" stroke-miterlimit="10" width="256.5" height="243.7"/>
		<rect x="602.1" y="-42.8" fill="#004C97" width="255.9" height="23.2"/>
		<g>
			<path fill="#FFFFFF" d="M617.7-30.3c0,2.5-1.2,3.8-3.5,3.8c-2.3,0-3.4-1.2-3.4-3.7V-35h1.9v4.9c0,1.4,0.5,2,1.6,2
				c1,0,1.6-0.7,1.6-2V-35h1.9V-30.3z"/>
			<path fill="#FFFFFF" d="M619.1-27v-1.9c0.3,0.3,0.7,0.5,1.1,0.6s0.8,0.2,1.2,0.2c0.2,0,0.4,0,0.6-0.1s0.3-0.1,0.4-0.2
				s0.2-0.2,0.3-0.3s0.1-0.2,0.1-0.3c0-0.2,0-0.3-0.1-0.4s-0.2-0.2-0.4-0.4s-0.4-0.2-0.6-0.3s-0.5-0.2-0.7-0.3
				c-0.7-0.3-1.1-0.6-1.5-1s-0.5-0.9-0.5-1.4c0-0.4,0.1-0.8,0.3-1.1s0.4-0.6,0.7-0.8s0.7-0.4,1.1-0.4s0.8-0.1,1.3-0.1
				c0.4,0,0.8,0,1.2,0.1s0.6,0.1,0.9,0.2v1.8c-0.1-0.1-0.3-0.2-0.5-0.3s-0.3-0.1-0.5-0.2s-0.4-0.1-0.5-0.1s-0.3,0-0.5,0
				c-0.2,0-0.4,0-0.6,0.1s-0.3,0.1-0.4,0.2s-0.2,0.2-0.3,0.3s-0.1,0.2-0.1,0.3c0,0.1,0,0.3,0.1,0.4s0.2,0.2,0.3,0.3s0.3,0.2,0.5,0.3
				s0.4,0.2,0.7,0.3c0.3,0.1,0.6,0.3,0.9,0.4s0.5,0.3,0.7,0.5s0.3,0.4,0.4,0.7s0.2,0.6,0.2,0.9c0,0.5-0.1,0.9-0.3,1.2
				s-0.4,0.6-0.7,0.8s-0.7,0.3-1.1,0.4s-0.8,0.1-1.3,0.1c-0.5,0-0.9,0-1.3-0.1S619.4-26.8,619.1-27z"/>
			<path fill="#FFFFFF" d="M628.1-29.5v2.9h-1.9V-35h3c2.1,0,3.2,0.9,3.2,2.7c0,0.8-0.3,1.5-0.9,2s-1.4,0.8-2.4,0.8H628.1z
				 M628.1-33.6v2.6h0.7c1,0,1.5-0.4,1.5-1.3c0-0.9-0.5-1.3-1.5-1.3H628.1z"/>
			<path fill="#FFFFFF" d="M639.5-33.5h-2.4v6.9h-1.9v-6.9h-2.4V-35h6.7V-33.5z"/>
			<path fill="#FFFFFF" d="M643.8-26.5c-1.2,0-2.2-0.4-2.9-1.2s-1.1-1.8-1.1-3.1c0-1.3,0.4-2.4,1.2-3.2s1.8-1.2,3.1-1.2
				c1.2,0,2.2,0.4,2.9,1.2s1.1,1.8,1.1,3.1c0,1.3-0.4,2.4-1.2,3.2S645-26.5,643.8-26.5z M643.8-33.5c-0.7,0-1.2,0.2-1.6,0.7
				s-0.6,1.2-0.6,2c0,0.8,0.2,1.5,0.6,2s0.9,0.7,1.5,0.7c0.7,0,1.2-0.2,1.6-0.7s0.6-1.1,0.6-2c0-0.9-0.2-1.5-0.6-2
				S644.5-33.5,643.8-33.5z"/>
		</g>
		<rect x="613.9" y="24.3" fill="#FFFFFF" stroke="#A7A8AA" stroke-miterlimit="10" width="233.6" height="157"/>
		<rect x="620.7" y="30.1" fill="#009CDE" width="219.3" height="14.1"/>
		<rect x="771.2" y="158.5" fill="#004C97" width="62" height="15.8"/>
		<polygon fill="#D9D9D6" stroke="#FFFFFF" stroke-miterlimit="10" points="847.5,6.6 788.2,6.6 788.2,-9 847.5,-9 847.5,-1.2 		"/>
		<polygon fill="#003865" stroke="#FFFFFF" stroke-miterlimit="10" points="789.4,6.6 730,6.6 730,-9 789.4,-9 797.3,-1.2 		"/>
		<polygon fill="#D9D9D6" stroke="#FFFFFF" stroke-miterlimit="10" points="731.5,6.6 672.2,6.6 672.2,-9 731.5,-9 739.5,-1.2 		"/>
		<polygon fill="#D9D9D6" stroke="#FFFFFF" stroke-miterlimit="10" points="673.2,6.6 613.9,6.6 613.9,-9 673.2,-9 681.2,-1.2 		"/>
		<rect x="632.2" y="62.8" fill="#E8E8E8" width="193.7" height="57.1"/>
		<rect x="631" y="52.8" fill="#A7A8AA" width="60.7" height="5.3"/>
	</g>
	<g display="inline">
		<rect x="901.6" y="-43.7" fill="#EFEFEF" stroke="#63666A" stroke-miterlimit="10" width="256.5" height="243.7"/>
		<rect x="901.6" y="-43.5" fill="#004C97" width="255.9" height="23.2"/>
		<g>
			<path fill="#FFFFFF" d="M917.2-30.9c0,2.5-1.2,3.8-3.5,3.8c-2.3,0-3.4-1.2-3.4-3.7v-4.9h1.9v4.9c0,1.4,0.5,2,1.6,2
				c1,0,1.6-0.7,1.6-2v-4.9h1.9V-30.9z"/>
			<path fill="#FFFFFF" d="M918.7-27.6v-1.9c0.3,0.3,0.7,0.5,1.1,0.6s0.8,0.2,1.2,0.2c0.2,0,0.4,0,0.6-0.1s0.3-0.1,0.4-0.2
				s0.2-0.2,0.3-0.3s0.1-0.2,0.1-0.3c0-0.2,0-0.3-0.1-0.4s-0.2-0.2-0.4-0.4s-0.4-0.2-0.6-0.3s-0.5-0.2-0.7-0.3
				c-0.7-0.3-1.1-0.6-1.5-1c-0.3-0.4-0.5-0.9-0.5-1.4c0-0.4,0.1-0.8,0.3-1.1s0.4-0.6,0.7-0.8s0.7-0.4,1.1-0.4s0.8-0.1,1.3-0.1
				c0.4,0,0.8,0,1.2,0.1s0.6,0.1,0.9,0.2v1.8c-0.1-0.1-0.3-0.2-0.5-0.3s-0.3-0.1-0.5-0.2s-0.4-0.1-0.5-0.1s-0.3,0-0.5,0
				c-0.2,0-0.4,0-0.6,0.1s-0.3,0.1-0.4,0.2s-0.2,0.2-0.3,0.3s-0.1,0.2-0.1,0.3c0,0.1,0,0.3,0.1,0.4s0.2,0.2,0.3,0.3s0.3,0.2,0.5,0.3
				s0.4,0.2,0.7,0.3c0.3,0.1,0.6,0.3,0.9,0.4s0.5,0.3,0.7,0.5s0.3,0.4,0.4,0.7s0.2,0.6,0.2,0.9c0,0.5-0.1,0.9-0.3,1.2
				s-0.4,0.6-0.7,0.8s-0.7,0.3-1.1,0.4s-0.8,0.1-1.3,0.1c-0.5,0-0.9,0-1.3-0.1S919-27.5,918.7-27.6z"/>
			<path fill="#FFFFFF" d="M927.7-30.2v2.9h-1.9v-8.4h3c2.1,0,3.2,0.9,3.2,2.7c0,0.8-0.3,1.5-0.9,2s-1.4,0.8-2.4,0.8H927.7z
				 M927.7-34.2v2.6h0.7c1,0,1.5-0.4,1.5-1.3c0-0.9-0.5-1.3-1.5-1.3H927.7z"/>
			<path fill="#FFFFFF" d="M939-34.1h-2.4v6.9h-1.9v-6.9h-2.4v-1.5h6.7V-34.1z"/>
			<path fill="#FFFFFF" d="M943.3-27.1c-1.2,0-2.2-0.4-2.9-1.2s-1.1-1.8-1.1-3.1c0-1.3,0.4-2.4,1.2-3.2s1.8-1.2,3.1-1.2
				c1.2,0,2.2,0.4,2.9,1.2s1.1,1.8,1.1,3.1c0,1.3-0.4,2.4-1.2,3.2S944.5-27.1,943.3-27.1z M943.4-34.2c-0.7,0-1.2,0.2-1.6,0.7
				s-0.6,1.2-0.6,2c0,0.8,0.2,1.5,0.6,2s0.9,0.7,1.5,0.7c0.7,0,1.2-0.2,1.6-0.7s0.6-1.1,0.6-2c0-0.9-0.2-1.5-0.6-2
				S944-34.2,943.4-34.2z"/>
		</g>
		<rect x="913.4" y="23.6" fill="#FFFFFF" stroke="#A7A8AA" stroke-miterlimit="10" width="233.6" height="157"/>
		<rect x="920.2" y="29.4" fill="#009CDE" width="219.3" height="14.1"/>
		<rect x="1070.8" y="157.8" fill="#004C97" width="62" height="15.8"/>
		<polygon fill="#003865" stroke="#FFFFFF" stroke-miterlimit="10" points="1147.1,6 1087.7,6 1087.7,-9.6 1147.1,-9.6 1147,-1.8 		
			"/>
		<polygon fill="#D9D9D6" stroke="#FFFFFF" stroke-miterlimit="10" points="1088.9,6 1029.6,6 1029.6,-9.6 1088.9,-9.6 1096.9,-1.8 
					"/>
		<polygon fill="#D9D9D6" stroke="#FFFFFF" stroke-miterlimit="10" points="1031,6 971.7,6 971.7,-9.6 1031,-9.6 1039,-1.8 		"/>
		<polygon fill="#D9D9D6" stroke="#FFFFFF" stroke-miterlimit="10" points="972.8,6 913.4,6 913.4,-9.6 972.8,-9.6 980.7,-1.8 		"/>
		<rect x="946.1" y="66.8" fill="#E8E8E8" width="108.4" height="5.8"/>
		<rect x="931.1" y="52.8" fill="#A7A8AA" width="60.7" height="5.3"/>
		<rect x="945.5" y="82.5" fill="#E8E8E8" width="61.9" height="5.8"/>
		<rect x="945.1" y="98.5" fill="#E8E8E8" width="163.6" height="5.8"/>
		<rect x="945.1" y="115" fill="#E8E8E8" width="30.7" height="5.8"/>
		<rect x="932.1" y="64.8" fill="#004C97" width="9.5" height="9.5"/>
		<rect x="932.1" y="80.7" fill="#E8E8E8" width="9.5" height="9.5"/>
		<rect x="932" y="96.7" fill="#E8E8E8" width="9.5" height="9.5"/>
		<rect x="932.1" y="113.2" fill="#E8E8E8" width="9.5" height="9.5"/>
	</g>
	<g display="inline">
		<path fill="#A7A8AA" d="M292,72.4c1.1,1.9,1.7,4.1,1.7,6.4c0,2.3-0.6,4.4-1.7,6.4s-2.7,3.5-4.6,4.6c-1.9,1.1-4.1,1.7-6.4,1.7
			c-2.3,0-4.4-0.6-6.4-1.7c-1.9-1.1-3.5-2.7-4.6-4.6s-1.7-4.1-1.7-6.4c0-2.3,0.6-4.4,1.7-6.4c1.1-1.9,2.7-3.5,4.6-4.6
			c1.9-1.1,4.1-1.7,6.4-1.7c2.3,0,4.4,0.6,6.4,1.7C289.4,68.9,290.9,70.5,292,72.4z M289.6,78.8c0-0.3-0.1-0.5-0.3-0.7l-1.5-1.5
			l-6-6c-0.2-0.2-0.4-0.3-0.7-0.3c-0.3,0-0.5,0.1-0.7,0.3l-1.5,1.5c-0.2,0.2-0.3,0.4-0.3,0.7c0,0.3,0.1,0.5,0.3,0.7l3.1,3.1h-8.3
			c-0.3,0-0.5,0.1-0.7,0.3c-0.2,0.2-0.3,0.5-0.3,0.7v2.1c0,0.3,0.1,0.5,0.3,0.7c0.2,0.2,0.5,0.3,0.7,0.3h8.3l-3.1,3.1
			c-0.2,0.2-0.3,0.5-0.3,0.7s0.1,0.5,0.3,0.7l1.5,1.5c0.2,0.2,0.4,0.3,0.7,0.3c0.3,0,0.5-0.1,0.7-0.3l6-6l1.5-1.5
			C289.5,79.3,289.6,79.1,289.6,78.8z"/>
	</g>
	<g display="inline">
		<path fill="#A7A8AA" d="M591.6,72.4c1.1,1.9,1.7,4.1,1.7,6.4c0,2.3-0.6,4.4-1.7,6.4s-2.7,3.5-4.6,4.6c-1.9,1.1-4.1,1.7-6.4,1.7
			c-2.3,0-4.4-0.6-6.4-1.7c-1.9-1.1-3.5-2.7-4.6-4.6s-1.7-4.1-1.7-6.4c0-2.3,0.6-4.4,1.7-6.4c1.1-1.9,2.7-3.5,4.6-4.6
			c1.9-1.1,4.1-1.7,6.4-1.7c2.3,0,4.4,0.6,6.4,1.7C588.9,68.9,590.4,70.5,591.6,72.4z M589.1,78.8c0-0.3-0.1-0.5-0.3-0.7l-1.5-1.5
			l-6-6c-0.2-0.2-0.4-0.3-0.7-0.3c-0.3,0-0.5,0.1-0.7,0.3l-1.5,1.5c-0.2,0.2-0.3,0.4-0.3,0.7c0,0.3,0.1,0.5,0.3,0.7l3.1,3.1h-8.3
			c-0.3,0-0.5,0.1-0.7,0.3c-0.2,0.2-0.3,0.5-0.3,0.7v2.1c0,0.3,0.1,0.5,0.3,0.7c0.2,0.2,0.5,0.3,0.7,0.3h8.3l-3.1,3.1
			c-0.2,0.2-0.3,0.5-0.3,0.7s0.1,0.5,0.3,0.7l1.5,1.5c0.2,0.2,0.4,0.3,0.7,0.3c0.3,0,0.5-0.1,0.7-0.3l6-6l1.5-1.5
			C589,79.3,589.1,79.1,589.1,78.8z"/>
	</g>
	<g display="inline">
		<path fill="#A7A8AA" d="M891.1,72.4c1.1,1.9,1.7,4.1,1.7,6.4c0,2.3-0.6,4.4-1.7,6.4s-2.7,3.5-4.6,4.6c-1.9,1.1-4.1,1.7-6.4,1.7
			c-2.3,0-4.4-0.6-6.4-1.7c-1.9-1.1-3.5-2.7-4.6-4.6s-1.7-4.1-1.7-6.4c0-2.3,0.6-4.4,1.7-6.4c1.1-1.9,2.7-3.5,4.6-4.6
			c1.9-1.1,4.1-1.7,6.4-1.7c2.3,0,4.4,0.6,6.4,1.7C888.4,68.9,889.9,70.5,891.1,72.4z M888.6,78.8c0-0.3-0.1-0.5-0.3-0.7l-1.5-1.5
			l-6-6c-0.2-0.2-0.4-0.3-0.7-0.3c-0.3,0-0.5,0.1-0.7,0.3l-1.5,1.5c-0.2,0.2-0.3,0.4-0.3,0.7c0,0.3,0.1,0.5,0.3,0.7l3.1,3.1h-8.3
			c-0.3,0-0.5,0.1-0.7,0.3c-0.2,0.2-0.3,0.5-0.3,0.7v2.1c0,0.3,0.1,0.5,0.3,0.7c0.2,0.2,0.5,0.3,0.7,0.3h8.3l-3.1,3.1
			c-0.2,0.2-0.3,0.5-0.3,0.7s0.1,0.5,0.3,0.7l1.5,1.5c0.2,0.2,0.4,0.3,0.7,0.3c0.3,0,0.5-0.1,0.7-0.3l6-6l1.5-1.5
			C888.5,79.3,888.6,79.1,888.6,78.8z"/>
	</g>
</g>
<g id="Single_Page" display="none">
	<rect x="-1" y="-49.3" display="inline" fill="#EFEFEF" stroke="#63666A" stroke-miterlimit="10" width="230.5" height="553.8"/>
	<rect x="-1" y="-49.3" display="inline" fill="#004C97" width="230.5" height="23.2"/>
	<g display="inline">
		<path fill="#FFFFFF" d="M20.7-36.8c0,2.3-1.1,3.5-3.2,3.5c-2.1,0-3.1-1.1-3.1-3.4v-4.5H16v4.5c0,1.2,0.5,1.9,1.5,1.9
			c1,0,1.4-0.6,1.4-1.8v-4.5h1.7V-36.8z"/>
		<path fill="#FFFFFF" d="M22-33.8v-1.7c0.3,0.3,0.7,0.5,1,0.6s0.7,0.2,1.1,0.2c0.2,0,0.4,0,0.6-0.1c0.2,0,0.3-0.1,0.4-0.2
			c0.1-0.1,0.2-0.2,0.2-0.2c0.1-0.1,0.1-0.2,0.1-0.3c0-0.2,0-0.3-0.1-0.4c-0.1-0.1-0.2-0.2-0.4-0.3c-0.1-0.1-0.3-0.2-0.5-0.3
			c-0.2-0.1-0.4-0.2-0.7-0.3c-0.6-0.3-1.1-0.6-1.3-0.9c-0.3-0.4-0.4-0.8-0.4-1.3c0-0.4,0.1-0.7,0.2-1c0.2-0.3,0.4-0.5,0.7-0.7
			c0.3-0.2,0.6-0.3,1-0.4c0.4-0.1,0.8-0.1,1.2-0.1c0.4,0,0.8,0,1.1,0.1s0.6,0.1,0.9,0.2v1.6c-0.1-0.1-0.3-0.2-0.4-0.2
			c-0.2-0.1-0.3-0.1-0.5-0.2s-0.3-0.1-0.5-0.1c-0.2,0-0.3,0-0.5,0c-0.2,0-0.4,0-0.5,0.1s-0.3,0.1-0.4,0.2c-0.1,0.1-0.2,0.1-0.3,0.2
			c-0.1,0.1-0.1,0.2-0.1,0.3c0,0.1,0,0.2,0.1,0.3c0.1,0.1,0.2,0.2,0.3,0.3c0.1,0.1,0.3,0.2,0.5,0.3s0.4,0.2,0.6,0.3
			c0.3,0.1,0.6,0.3,0.8,0.4c0.2,0.1,0.5,0.3,0.6,0.5c0.2,0.2,0.3,0.4,0.4,0.6c0.1,0.2,0.1,0.5,0.1,0.8c0,0.4-0.1,0.8-0.2,1.1
			c-0.2,0.3-0.4,0.5-0.7,0.7c-0.3,0.2-0.6,0.3-1,0.4c-0.4,0.1-0.8,0.1-1.2,0.1c-0.4,0-0.8,0-1.2-0.1C22.6-33.5,22.3-33.7,22-33.8z"
			/>
		<path fill="#FFFFFF" d="M30.3-36.2v2.7h-1.7v-7.7h2.7c1.9,0,2.9,0.8,2.9,2.5c0,0.8-0.3,1.4-0.8,1.9c-0.6,0.5-1.3,0.7-2.2,0.7H30.3
			z M30.3-39.9v2.4h0.7c0.9,0,1.4-0.4,1.4-1.2c0-0.8-0.5-1.2-1.4-1.2H30.3z"/>
		<path fill="#FFFFFF" d="M40.7-39.8h-2.2v6.3h-1.7v-6.3h-2.2v-1.4h6.1V-39.8z"/>
		<path fill="#FFFFFF" d="M44.6-33.4c-1.1,0-2-0.4-2.7-1.1c-0.7-0.7-1-1.7-1-2.8c0-1.2,0.4-2.2,1.1-3c0.7-0.8,1.6-1.1,2.8-1.1
			c1.1,0,2,0.4,2.7,1.1c0.7,0.7,1,1.7,1,2.8c0,1.2-0.4,2.2-1.1,2.9C46.6-33.7,45.7-33.4,44.6-33.4z M44.7-39.8
			c-0.6,0-1.1,0.2-1.5,0.7c-0.4,0.5-0.5,1.1-0.5,1.8c0,0.8,0.2,1.4,0.5,1.8c0.4,0.4,0.8,0.7,1.4,0.7c0.6,0,1.1-0.2,1.4-0.6
			c0.4-0.4,0.5-1,0.5-1.8c0-0.8-0.2-1.4-0.5-1.9C45.7-39.6,45.2-39.8,44.7-39.8z"/>
	</g>
	<rect x="12" y="-13.7" display="inline" fill="#FFFFFF" stroke="#A7A8AA" stroke-miterlimit="10" width="204.4" height="100.6"/>
	<rect x="12" y="98.3" display="inline" fill="#FFFFFF" stroke="#A7A8AA" stroke-miterlimit="10" width="204.4" height="130"/>
	<rect x="12" y="247" display="inline" fill="#FFFFFF" stroke="#A7A8AA" stroke-miterlimit="10" width="204.4" height="100.6"/>
	<rect x="12" y="361.8" display="inline" fill="#FFFFFF" stroke="#A7A8AA" stroke-miterlimit="10" width="204.4" height="100.6"/>
	<rect x="138.7" y="473.2" display="inline" fill="#004C97" width="77.7" height="16.7"/>
	<rect x="18.4" y="-8.4" display="inline" fill="#009CDE" width="192" height="13"/>
	<rect x="18.4" y="104.6" display="inline" fill="#009CDE" width="192" height="13"/>
	<rect x="18.4" y="254.1" display="inline" fill="#009CDE" width="192" height="13"/>
	<rect x="18.4" y="366.4" display="inline" fill="#009CDE" width="192" height="13"/>
	<rect x="25.7" y="25.7" display="inline" fill="#E8E8E8" width="179.7" height="14.6"/>
	<rect x="25.3" y="16.5" display="inline" fill="#A7A8AA" width="91.2" height="4.9"/>
	<rect x="25.8" y="59.9" display="inline" fill="#E8E8E8" width="177.7" height="14.6"/>
	<rect x="25.9" y="50.7" display="inline" fill="#A7A8AA" width="55.7" height="4.9"/>
	<rect x="24.8" y="283.7" display="inline" fill="#E8E8E8" width="177.7" height="52.4"/>
	<rect x="24.9" y="274.5" display="inline" fill="#A7A8AA" width="55.7" height="4.9"/>
	<rect x="38.7" y="138" display="inline" fill="#E8E8E8" width="77.9" height="5.3"/>
	<rect x="24.9" y="125.2" display="inline" fill="#A7A8AA" width="55.7" height="4.9"/>
	<circle display="inline" fill="#004C97" cx="28.8" cy="140.6" r="4.4"/>
	<rect x="38.1" y="152.5" display="inline" fill="#E8E8E8" width="56.8" height="5.3"/>
	<circle display="inline" fill="#E8E8E8" cx="28.8" cy="155" r="4.4"/>
	<rect x="37.7" y="167.2" display="inline" fill="#E8E8E8" width="108.4" height="5.3"/>
	<circle display="inline" fill="#E8E8E8" cx="28.8" cy="169.7" r="4.4"/>
	<rect x="37.7" y="401" display="inline" fill="#E8E8E8" width="77.9" height="5.3"/>
	<rect x="24" y="388.1" display="inline" fill="#A7A8AA" width="55.7" height="4.9"/>
	<rect x="37.2" y="415.4" display="inline" fill="#E8E8E8" width="56.8" height="5.3"/>
	<rect x="36.8" y="430.1" display="inline" fill="#E8E8E8" width="108.4" height="5.3"/>
	<rect x="36.8" y="445.2" display="inline" fill="#E8E8E8" width="35.9" height="5.3"/>
	<rect x="24.9" y="399.1" display="inline" fill="#004C97" width="8.7" height="8.7"/>
	<rect x="24.9" y="413.7" display="inline" fill="#E8E8E8" width="8.7" height="8.7"/>
	<rect x="24.8" y="428.4" display="inline" fill="#E8E8E8" width="8.7" height="8.7"/>
	<rect x="24.9" y="443.6" display="inline" fill="#E8E8E8" width="8.7" height="8.7"/>
	<rect x="25" y="199.5" display="inline" fill="#E8E8E8" width="179.7" height="14.6"/>
	<rect x="24.6" y="190.4" display="inline" fill="#A7A8AA" width="91.2" height="4.9"/>
</g>
</svg>
