<?xml version="1.0" encoding="utf-8"?>
<!-- Generator: Adobe Illustrator 18.0.0, SVG Export Plug-In . SVG Version: 6.00 Build 0)  -->
<!DOCTYPE svg PUBLIC "-//W3C//DTD SVG 1.1//EN" "http://www.w3.org/Graphics/SVG/1.1/DTD/svg11.dtd">
<svg version="1.1" xmlns="http://www.w3.org/2000/svg" xmlns:xlink="http://www.w3.org/1999/xlink" x="0px" y="0px"
	 viewBox="0 0 1156.1 245.4" enable-background="new 0 0 1156.1 245.4" xml:space="preserve">
<g id="Hybrid" display="none">
	<rect x="-1.7" y="0.5" display="inline" fill="#EFEFEF" stroke="#63666A" stroke-miterlimit="10" width="256.5" height="244.3"/>
	<rect x="-1.7" y="0.8" display="inline" fill="#004C97" width="255.9" height="23.2"/>
	<g display="inline">
		<path fill="#FFFFFF" d="M13.9,13.3c0,2.5-1.2,3.8-3.5,3.8c-2.3,0-3.4-1.2-3.4-3.7V8.6h1.9v4.9c0,1.4,0.5,2,1.6,2
			c1,0,1.6-0.7,1.6-2V8.6h1.9V13.3z"/>
		<path fill="#FFFFFF" d="M15.3,16.7v-1.9c0.3,0.3,0.7,0.5,1.1,0.6s0.8,0.2,1.2,0.2c0.2,0,0.4,0,0.6-0.1s0.3-0.1,0.4-0.2
			s0.2-0.2,0.3-0.3s0.1-0.2,0.1-0.3c0-0.2,0-0.3-0.1-0.4s-0.2-0.2-0.4-0.4s-0.4-0.2-0.6-0.3s-0.5-0.2-0.7-0.3
			c-0.7-0.3-1.1-0.6-1.5-1s-0.5-0.9-0.5-1.4c0-0.4,0.1-0.8,0.3-1.1S16,9.2,16.3,9s0.7-0.4,1.1-0.4s0.8-0.1,1.3-0.1
			c0.4,0,0.8,0,1.2,0.1s0.6,0.1,0.9,0.2v1.8c-0.1-0.1-0.3-0.2-0.5-0.3s-0.3-0.1-0.5-0.2S19.4,10,19.2,10s-0.3,0-0.5,0
			c-0.2,0-0.4,0-0.6,0.1s-0.3,0.1-0.4,0.2s-0.2,0.2-0.3,0.3s-0.1,0.2-0.1,0.3c0,0.1,0,0.3,0.1,0.4s0.2,0.2,0.3,0.3s0.3,0.2,0.5,0.3
			s0.4,0.2,0.7,0.3c0.3,0.1,0.6,0.3,0.9,0.4s0.5,0.3,0.7,0.5s0.3,0.4,0.4,0.7s0.2,0.6,0.2,0.9c0,0.5-0.1,0.9-0.3,1.2
			s-0.4,0.6-0.7,0.8S19.4,16.9,19,17s-0.8,0.1-1.3,0.1c-0.5,0-0.9,0-1.3-0.1S15.6,16.8,15.3,16.7z"/>
		<path fill="#FFFFFF" d="M24.3,14.1V17h-1.9V8.6h3c2.1,0,3.2,0.9,3.2,2.7c0,0.8-0.3,1.5-0.9,2s-1.4,0.8-2.4,0.8H24.3z M24.3,10v2.6
			h0.7c1,0,1.5-0.4,1.5-1.3c0-0.9-0.5-1.3-1.5-1.3H24.3z"/>
		<path fill="#FFFFFF" d="M35.7,10.1h-2.4V17h-1.9v-6.9H29V8.6h6.7V10.1z"/>
		<path fill="#FFFFFF" d="M40,17.1c-1.2,0-2.2-0.4-2.9-1.2s-1.1-1.8-1.1-3.1c0-1.3,0.4-2.4,1.2-3.2s1.8-1.2,3.1-1.2
			c1.2,0,2.2,0.4,2.9,1.2s1.1,1.8,1.1,3.1c0,1.3-0.4,2.4-1.2,3.2S41.2,17.1,40,17.1z M40,10.1c-0.7,0-1.2,0.2-1.6,0.7
			s-0.6,1.2-0.6,2c0,0.8,0.2,1.5,0.6,2s0.9,0.7,1.5,0.7c0.7,0,1.2-0.2,1.6-0.7s0.6-1.1,0.6-2c0-0.9-0.2-1.5-0.6-2S40.7,10.1,40,10.1
			z"/>
	</g>
	<rect x="10.1" y="71.9" display="inline" fill="#FFFFFF" stroke="#A7A8AA" stroke-miterlimit="10" width="233.6" height="157"/>
	<rect x="16.9" y="77.7" display="inline" fill="#009CDE" width="219.3" height="14.1"/>
	<rect x="24.5" y="110.8" display="inline" fill="#E8E8E8" width="204.6" height="15.9"/>
	<rect x="167.4" y="206.1" display="inline" fill="#004C97" width="62" height="15.8"/>
	<rect x="24.1" y="100.8" display="inline" fill="#A7A8AA" width="96.2" height="5.3"/>
	<rect x="24.7" y="144.1" display="inline" fill="#E8E8E8" width="205.5" height="15.9"/>
	<rect x="24.8" y="134.1" display="inline" fill="#A7A8AA" width="58.7" height="5.3"/>
	<rect x="24.7" y="179.8" display="inline" fill="#E8E8E8" width="205.5" height="15.9"/>
	<rect x="24.8" y="169.8" display="inline" fill="#A7A8AA" width="85.2" height="5.3"/>
	<rect x="297.8" y="2.2" display="inline" fill="#EFEFEF" stroke="#63666A" stroke-miterlimit="10" width="256.5" height="534.4"/>
	<rect x="297.8" y="0.4" display="inline" fill="#004C97" width="255.9" height="23.2"/>
	<g display="inline">
		<path fill="#FFFFFF" d="M313.4,13c0,2.5-1.2,3.8-3.5,3.8c-2.3,0-3.4-1.2-3.4-3.7V8.2h1.9v4.9c0,1.4,0.5,2,1.6,2c1,0,1.6-0.7,1.6-2
			V8.2h1.9V13z"/>
		<path fill="#FFFFFF" d="M314.9,16.3v-1.9c0.3,0.3,0.7,0.5,1.1,0.6s0.8,0.2,1.2,0.2c0.2,0,0.4,0,0.6-0.1s0.3-0.1,0.4-0.2
			s0.2-0.2,0.3-0.3s0.1-0.2,0.1-0.3c0-0.2,0-0.3-0.1-0.4s-0.2-0.2-0.4-0.4s-0.4-0.2-0.6-0.3s-0.5-0.2-0.7-0.3
			c-0.7-0.3-1.1-0.6-1.5-1s-0.5-0.9-0.5-1.4c0-0.4,0.1-0.8,0.3-1.1s0.4-0.6,0.7-0.8s0.7-0.4,1.1-0.4s0.8-0.1,1.3-0.1
			c0.4,0,0.8,0,1.2,0.1s0.6,0.1,0.9,0.2v1.8c-0.1-0.1-0.3-0.2-0.5-0.3s-0.3-0.1-0.5-0.2s-0.4-0.1-0.5-0.1s-0.3,0-0.5,0
			c-0.2,0-0.4,0-0.6,0.1s-0.3,0.1-0.4,0.2s-0.2,0.2-0.3,0.3s-0.1,0.2-0.1,0.3c0,0.1,0,0.3,0.1,0.4s0.2,0.2,0.3,0.3s0.3,0.2,0.5,0.3
			s0.4,0.2,0.7,0.3c0.3,0.1,0.6,0.3,0.9,0.4s0.5,0.3,0.7,0.5s0.3,0.4,0.4,0.7s0.2,0.6,0.2,0.9c0,0.5-0.1,0.9-0.3,1.2
			s-0.4,0.6-0.7,0.8s-0.7,0.3-1.1,0.4s-0.8,0.1-1.3,0.1c-0.5,0-0.9,0-1.3-0.1S315.2,16.5,314.9,16.3z"/>
		<path fill="#FFFFFF" d="M323.9,13.8v2.9H322V8.2h3c2.1,0,3.2,0.9,3.2,2.7c0,0.8-0.3,1.5-0.9,2s-1.4,0.8-2.4,0.8H323.9z M323.9,9.7
			v2.6h0.7c1,0,1.5-0.4,1.5-1.3c0-0.9-0.5-1.3-1.5-1.3H323.9z"/>
		<path fill="#FFFFFF" d="M335.2,9.8h-2.4v6.9h-1.9V9.8h-2.4V8.2h6.7V9.8z"/>
		<path fill="#FFFFFF" d="M339.5,16.8c-1.2,0-2.2-0.4-2.9-1.2s-1.1-1.8-1.1-3.1c0-1.3,0.4-2.4,1.2-3.2s1.8-1.2,3.1-1.2
			c1.2,0,2.2,0.4,2.9,1.2s1.1,1.8,1.1,3.1c0,1.3-0.4,2.4-1.2,3.2S340.7,16.8,339.5,16.8z M339.6,9.7c-0.7,0-1.2,0.2-1.6,0.7
			s-0.6,1.2-0.6,2c0,0.8,0.2,1.5,0.6,2s0.9,0.7,1.5,0.7c0.7,0,1.2-0.2,1.6-0.7s0.6-1.1,0.6-2c0-0.9-0.2-1.5-0.6-2
			S340.2,9.7,339.6,9.7z"/>
	</g>
	<rect x="309.6" y="71.6" display="inline" fill="#FFFFFF" stroke="#A7A8AA" stroke-miterlimit="10" width="233.6" height="140.4"/>
	<rect x="316.4" y="77.3" display="inline" fill="#009CDE" width="219.3" height="14.1"/>
	<rect x="480.3" y="506.8" display="inline" fill="#004C97" width="62" height="15.8"/>
	<g display="inline">
		<rect x="342.3" y="118.5" fill="#E8E8E8" width="84.9" height="5.8"/>
		<rect x="327.3" y="104.5" fill="#A7A8AA" width="60.7" height="5.3"/>
		<circle fill="#004C97" cx="332" cy="121.2" r="4.8"/>
		<rect x="341.7" y="134.2" fill="#E8E8E8" width="61.9" height="5.8"/>
		<circle fill="#E8E8E8" cx="331.4" cy="137" r="4.8"/>
		<rect x="341.3" y="150.2" fill="#E8E8E8" width="118.1" height="5.8"/>
		<circle fill="#E8E8E8" cx="331" cy="153" r="4.8"/>
		<rect x="341.3" y="166.7" fill="#E8E8E8" width="39.1" height="5.8"/>
		<circle fill="#E8E8E8" cx="331" cy="169.5" r="4.8"/>
	</g>
	<rect x="597.3" y="6.8" display="inline" fill="#EFEFEF" stroke="#63666A" stroke-miterlimit="10" width="256.5" height="241.1"/>
	<rect x="597.3" y="1.1" display="inline" fill="#004C97" width="255.9" height="23.2"/>
	<g display="inline">
		<path fill="#FFFFFF" d="M612.9,13.7c0,2.5-1.2,3.8-3.5,3.8c-2.3,0-3.4-1.2-3.4-3.7V8.9h1.9v4.9c0,1.4,0.5,2,1.6,2
			c1,0,1.6-0.7,1.6-2V8.9h1.9V13.7z"/>
		<path fill="#FFFFFF" d="M614.4,17v-1.9c0.3,0.3,0.7,0.5,1.1,0.6s0.8,0.2,1.2,0.2c0.2,0,0.4,0,0.6-0.1s0.3-0.1,0.4-0.2
			s0.2-0.2,0.3-0.3s0.1-0.2,0.1-0.3c0-0.2,0-0.3-0.1-0.4s-0.2-0.2-0.4-0.4s-0.4-0.2-0.6-0.3s-0.5-0.2-0.7-0.3
			c-0.7-0.3-1.1-0.6-1.5-1s-0.5-0.9-0.5-1.4c0-0.4,0.1-0.8,0.3-1.1s0.4-0.6,0.7-0.8s0.7-0.4,1.1-0.4s0.8-0.1,1.3-0.1
			c0.4,0,0.8,0,1.2,0.1s0.6,0.1,0.9,0.2v1.8c-0.1-0.1-0.3-0.2-0.5-0.3s-0.3-0.1-0.5-0.2s-0.4-0.1-0.5-0.1s-0.3,0-0.5,0
			c-0.2,0-0.4,0-0.6,0.1s-0.3,0.1-0.4,0.2s-0.2,0.2-0.3,0.3s-0.1,0.2-0.1,0.3c0,0.1,0,0.3,0.1,0.4s0.2,0.2,0.3,0.3s0.3,0.2,0.5,0.3
			s0.4,0.2,0.7,0.3c0.3,0.1,0.6,0.3,0.9,0.4s0.5,0.3,0.7,0.5s0.3,0.4,0.4,0.7s0.2,0.6,0.2,0.9c0,0.5-0.1,0.9-0.3,1.2
			s-0.4,0.6-0.7,0.8s-0.7,0.3-1.1,0.4s-0.8,0.1-1.3,0.1c-0.5,0-0.9,0-1.3-0.1S614.7,17.1,614.4,17z"/>
		<path fill="#FFFFFF" d="M623.4,14.4v2.9h-1.9V8.9h3c2.1,0,3.2,0.9,3.2,2.7c0,0.8-0.3,1.5-0.9,2s-1.4,0.8-2.4,0.8H623.4z
			 M623.4,10.4V13h0.7c1,0,1.5-0.4,1.5-1.3c0-0.9-0.5-1.3-1.5-1.3H623.4z"/>
		<path fill="#FFFFFF" d="M634.8,10.4h-2.4v6.9h-1.9v-6.9h-2.4V8.9h6.7V10.4z"/>
		<path fill="#FFFFFF" d="M639,17.5c-1.2,0-2.2-0.4-2.9-1.2s-1.1-1.8-1.1-3.1c0-1.3,0.4-2.4,1.2-3.2s1.8-1.2,3.1-1.2
			c1.2,0,2.2,0.4,2.9,1.2s1.1,1.8,1.1,3.1c0,1.3-0.4,2.4-1.2,3.2S640.2,17.5,639,17.5z M639.1,10.4c-0.7,0-1.2,0.2-1.6,0.7
			s-0.6,1.2-0.6,2c0,0.8,0.2,1.5,0.6,2s0.9,0.7,1.5,0.7c0.7,0,1.2-0.2,1.6-0.7s0.6-1.1,0.6-2c0-0.9-0.2-1.5-0.6-2
			S639.7,10.4,639.1,10.4z"/>
	</g>
	<rect x="609.1" y="71.2" display="inline" fill="#FFFFFF" stroke="#A7A8AA" stroke-miterlimit="10" width="233.6" height="157"/>
	<rect x="615.9" y="77" display="inline" fill="#009CDE" width="219.3" height="14.1"/>
	<rect x="766.5" y="205.4" display="inline" fill="#004C97" width="62" height="15.8"/>
	<rect x="627.4" y="109.7" display="inline" fill="#E8E8E8" width="193.7" height="57.1"/>
	<rect x="626.2" y="99.7" display="inline" fill="#A7A8AA" width="60.7" height="5.3"/>
	<rect x="896.8" y="8.1" display="inline" fill="#EFEFEF" stroke="#63666A" stroke-miterlimit="10" width="256.5" height="240.4"/>
	<rect x="896.8" y="0.4" display="inline" fill="#004C97" width="255.9" height="23.2"/>
	<g display="inline">
		<path fill="#FFFFFF" d="M912.4,13c0,2.5-1.2,3.8-3.5,3.8c-2.3,0-3.4-1.2-3.4-3.7V8.2h1.9v4.9c0,1.4,0.5,2,1.6,2c1,0,1.6-0.7,1.6-2
			V8.2h1.9V13z"/>
		<path fill="#FFFFFF" d="M913.9,16.3v-1.9c0.3,0.3,0.7,0.5,1.1,0.6s0.8,0.2,1.2,0.2c0.2,0,0.4,0,0.6-0.1s0.3-0.1,0.4-0.2
			s0.2-0.2,0.3-0.3s0.1-0.2,0.1-0.3c0-0.2,0-0.3-0.1-0.4s-0.2-0.2-0.4-0.4s-0.4-0.2-0.6-0.3s-0.5-0.2-0.7-0.3
			c-0.7-0.3-1.1-0.6-1.5-1s-0.5-0.9-0.5-1.4c0-0.4,0.1-0.8,0.3-1.1s0.4-0.6,0.7-0.8s0.7-0.4,1.1-0.4s0.8-0.1,1.3-0.1
			c0.4,0,0.8,0,1.2,0.1s0.6,0.1,0.9,0.2v1.8c-0.1-0.1-0.3-0.2-0.5-0.3s-0.3-0.1-0.5-0.2s-0.4-0.1-0.5-0.1s-0.3,0-0.5,0
			c-0.2,0-0.4,0-0.6,0.1s-0.3,0.1-0.4,0.2s-0.2,0.2-0.3,0.3s-0.1,0.2-0.1,0.3c0,0.1,0,0.3,0.1,0.4s0.2,0.2,0.3,0.3s0.3,0.2,0.5,0.3
			s0.4,0.2,0.7,0.3c0.3,0.1,0.6,0.3,0.9,0.4s0.5,0.3,0.7,0.5s0.3,0.4,0.4,0.7s0.2,0.6,0.2,0.9c0,0.5-0.1,0.9-0.3,1.2
			s-0.4,0.6-0.7,0.8s-0.7,0.3-1.1,0.4s-0.8,0.1-1.3,0.1c-0.5,0-0.9,0-1.3-0.1S914.2,16.5,913.9,16.3z"/>
		<path fill="#FFFFFF" d="M922.9,13.8v2.9H921V8.2h3c2.1,0,3.2,0.9,3.2,2.7c0,0.8-0.3,1.5-0.9,2s-1.4,0.8-2.4,0.8H922.9z M922.9,9.7
			v2.6h0.7c1,0,1.5-0.4,1.5-1.3c0-0.9-0.5-1.3-1.5-1.3H922.9z"/>
		<path fill="#FFFFFF" d="M934.3,9.8h-2.4v6.9H930V9.8h-2.4V8.2h6.7V9.8z"/>
		<path fill="#FFFFFF" d="M938.5,16.8c-1.2,0-2.2-0.4-2.9-1.2s-1.1-1.8-1.1-3.1c0-1.3,0.4-2.4,1.2-3.2s1.8-1.2,3.1-1.2
			c1.2,0,2.2,0.4,2.9,1.2s1.1,1.8,1.1,3.1c0,1.3-0.4,2.4-1.2,3.2S939.7,16.8,938.5,16.8z M938.6,9.7c-0.7,0-1.2,0.2-1.6,0.7
			s-0.6,1.2-0.6,2c0,0.8,0.2,1.5,0.6,2s0.9,0.7,1.5,0.7c0.7,0,1.2-0.2,1.6-0.7s0.6-1.1,0.6-2c0-0.9-0.2-1.5-0.6-2
			S939.2,9.7,938.6,9.7z"/>
	</g>
	<rect x="908.6" y="72.6" display="inline" fill="#FFFFFF" stroke="#A7A8AA" stroke-miterlimit="10" width="233.6" height="157"/>
	<rect x="915.4" y="78.3" display="inline" fill="#009CDE" width="219.3" height="14.1"/>
	<rect x="1066" y="206.7" display="inline" fill="#004C97" width="62" height="15.8"/>
	<rect x="941.3" y="115.7" display="inline" fill="#E8E8E8" width="108.4" height="5.8"/>
	<rect x="926.3" y="101.7" display="inline" fill="#A7A8AA" width="60.7" height="5.3"/>
	<rect x="940.7" y="131.5" display="inline" fill="#E8E8E8" width="61.9" height="5.8"/>
	<rect x="940.3" y="147.5" display="inline" fill="#E8E8E8" width="163.6" height="5.8"/>
	<rect x="940.3" y="164" display="inline" fill="#E8E8E8" width="30.7" height="5.8"/>
	<rect x="927.3" y="113.7" display="inline" fill="#004C97" width="9.5" height="9.5"/>
	<rect x="927.3" y="129.6" display="inline" fill="#E8E8E8" width="9.5" height="9.5"/>
	<rect x="927.2" y="145.6" display="inline" fill="#E8E8E8" width="9.5" height="9.5"/>
	<rect x="927.3" y="162.1" display="inline" fill="#E8E8E8" width="9.5" height="9.5"/>
	<path display="inline" fill="#A7A8AA" d="M287.3,90.3c1.1,1.9,1.7,4.1,1.7,6.4c0,2.3-0.6,4.4-1.7,6.4s-2.7,3.5-4.6,4.6
		c-1.9,1.1-4.1,1.7-6.4,1.7c-2.3,0-4.4-0.6-6.4-1.7c-1.9-1.1-3.5-2.7-4.6-4.6s-1.7-4.1-1.7-6.4c0-2.3,0.6-4.4,1.7-6.4
		c1.1-1.9,2.7-3.5,4.6-4.6c1.9-1.1,4.1-1.7,6.4-1.7c2.3,0,4.4,0.6,6.4,1.7C284.6,86.9,286.1,88.4,287.3,90.3z M284.8,96.7
		c0-0.3-0.1-0.5-0.3-0.7l-1.5-1.5l-6-6c-0.2-0.2-0.4-0.3-0.7-0.3c-0.3,0-0.5,0.1-0.7,0.3L274,90c-0.2,0.2-0.3,0.4-0.3,0.7
		c0,0.3,0.1,0.5,0.3,0.7l3.1,3.1h-8.3c-0.3,0-0.5,0.1-0.7,0.3c-0.2,0.2-0.3,0.5-0.3,0.7v2.1c0,0.3,0.1,0.5,0.3,0.7
		c0.2,0.2,0.5,0.3,0.7,0.3h8.3L274,102c-0.2,0.2-0.3,0.5-0.3,0.7s0.1,0.5,0.3,0.7l1.5,1.5c0.2,0.2,0.4,0.3,0.7,0.3
		c0.3,0,0.5-0.1,0.7-0.3l6-6l1.5-1.5C284.7,97.3,284.8,97,284.8,96.7z"/>
	<path display="inline" fill="#A7A8AA" d="M586.8,90.3c1.1,1.9,1.7,4.1,1.7,6.4c0,2.3-0.6,4.4-1.7,6.4s-2.7,3.5-4.6,4.6
		c-1.9,1.1-4.1,1.7-6.4,1.7c-2.3,0-4.4-0.6-6.4-1.7c-1.9-1.1-3.5-2.7-4.6-4.6s-1.7-4.1-1.7-6.4c0-2.3,0.6-4.4,1.7-6.4
		c1.1-1.9,2.7-3.5,4.6-4.6c1.9-1.1,4.1-1.7,6.4-1.7c2.3,0,4.4,0.6,6.4,1.7C584.1,86.9,585.7,88.4,586.8,90.3z M584.3,96.7
		c0-0.3-0.1-0.5-0.3-0.7l-1.5-1.5l-6-6c-0.2-0.2-0.4-0.3-0.7-0.3c-0.3,0-0.5,0.1-0.7,0.3l-1.5,1.5c-0.2,0.2-0.3,0.4-0.3,0.7
		c0,0.3,0.1,0.5,0.3,0.7l3.1,3.1h-8.3c-0.3,0-0.5,0.1-0.7,0.3c-0.2,0.2-0.3,0.5-0.3,0.7v2.1c0,0.3,0.1,0.5,0.3,0.7
		c0.2,0.2,0.5,0.3,0.7,0.3h8.3l-3.1,3.1c-0.2,0.2-0.3,0.5-0.3,0.7s0.1,0.5,0.3,0.7l1.5,1.5c0.2,0.2,0.4,0.3,0.7,0.3
		c0.3,0,0.5-0.1,0.7-0.3l6-6l1.5-1.5C584.2,97.3,584.3,97,584.3,96.7z"/>
	<path display="inline" fill="#A7A8AA" d="M886.3,90.3c1.1,1.9,1.7,4.1,1.7,6.4c0,2.3-0.6,4.4-1.7,6.4s-2.7,3.5-4.6,4.6
		c-1.9,1.1-4.1,1.7-6.4,1.7c-2.3,0-4.4-0.6-6.4-1.7c-1.9-1.1-3.5-2.7-4.6-4.6s-1.7-4.1-1.7-6.4c0-2.3,0.6-4.4,1.7-6.4
		c1.1-1.9,2.7-3.5,4.6-4.6c1.9-1.1,4.1-1.7,6.4-1.7c2.3,0,4.4,0.6,6.4,1.7C883.6,86.9,885.2,88.4,886.3,90.3z M883.9,96.7
		c0-0.3-0.1-0.5-0.3-0.7l-1.5-1.5l-6-6c-0.2-0.2-0.4-0.3-0.7-0.3c-0.3,0-0.5,0.1-0.7,0.3l-1.5,1.5c-0.2,0.2-0.3,0.4-0.3,0.7
		c0,0.3,0.1,0.5,0.3,0.7l3.1,3.1h-8.3c-0.3,0-0.5,0.1-0.7,0.3c-0.2,0.2-0.3,0.5-0.3,0.7v2.1c0,0.3,0.1,0.5,0.3,0.7
		c0.2,0.2,0.5,0.3,0.7,0.3h8.3l-3.1,3.1c-0.2,0.2-0.3,0.5-0.3,0.7s0.1,0.5,0.3,0.7l1.5,1.5c0.2,0.2,0.4,0.3,0.7,0.3
		c0.3,0,0.5-0.1,0.7-0.3l6-6l1.5-1.5C883.8,97.3,883.9,97,883.9,96.7z"/>
	<g display="inline">
		<polygon fill="#D9D9D6" stroke="#FFFFFF" stroke-miterlimit="10" points="244.3,55.5 184.9,55.5 184.9,39.9 244.3,39.9 
			244.2,47.7 		"/>
		<polygon fill="#D9D9D6" stroke="#FFFFFF" stroke-miterlimit="10" points="186.1,55.5 126.8,55.5 126.8,39.9 186.1,39.9 
			194.1,47.7 		"/>
		<polygon fill="#D9D9D6" stroke="#FFFFFF" stroke-miterlimit="10" points="128.2,55.5 68.9,55.5 68.9,39.9 128.2,39.9 136.2,47.7 
					"/>
		<polygon fill="#003865" stroke="#FFFFFF" stroke-miterlimit="10" points="70,55.5 10.6,55.5 10.6,39.9 70,39.9 77.9,47.7 		"/>
	</g>
	
		<rect x="309.6" y="227.1" display="inline" fill="#FFFFFF" stroke="#A7A8AA" stroke-miterlimit="10" width="233.6" height="119.7"/>
	<rect x="316.4" y="232.8" display="inline" fill="#009CDE" width="219.3" height="14.1"/>
	<rect x="327.9" y="265.6" display="inline" fill="#E8E8E8" width="193.7" height="57.1"/>
	<rect x="326.7" y="255.6" display="inline" fill="#A7A8AA" width="60.7" height="5.3"/>
	<g display="inline">
		<rect x="309.6" y="365.3" fill="#FFFFFF" stroke="#A7A8AA" stroke-miterlimit="10" width="233.6" height="126.4"/>
		<rect x="316.4" y="371" fill="#009CDE" width="219.3" height="14.1"/>
		<rect x="342.3" y="408.4" fill="#E8E8E8" width="108.4" height="5.8"/>
		<rect x="327.3" y="394.4" fill="#A7A8AA" width="60.7" height="5.3"/>
		<rect x="341.7" y="424.1" fill="#E8E8E8" width="61.9" height="5.8"/>
		<rect x="341.3" y="440.1" fill="#E8E8E8" width="163.6" height="5.8"/>
		<rect x="341.3" y="456.6" fill="#E8E8E8" width="30.7" height="5.8"/>
		<rect x="328.3" y="406.4" fill="#004C97" width="9.5" height="9.5"/>
		<rect x="328.3" y="422.3" fill="#E8E8E8" width="9.5" height="9.5"/>
		<rect x="328.2" y="438.3" fill="#E8E8E8" width="9.5" height="9.5"/>
		<rect x="328.3" y="454.8" fill="#E8E8E8" width="9.5" height="9.5"/>
	</g>
	<g display="inline">
		<polygon fill="#D9D9D6" stroke="#FFFFFF" stroke-miterlimit="10" points="542.6,55.5 483.2,55.5 483.2,39.9 542.6,39.9 
			542.5,47.7 		"/>
		<polygon fill="#D9D9D6" stroke="#FFFFFF" stroke-miterlimit="10" points="484.4,55.5 425.1,55.5 425.1,39.9 484.4,39.9 
			492.4,47.7 		"/>
		<polygon fill="#003865" stroke="#FFFFFF" stroke-miterlimit="10" points="426.5,55.5 367.2,55.5 367.2,39.9 426.5,39.9 
			434.5,47.7 		"/>
		<polygon fill="#D9D9D6" stroke="#FFFFFF" stroke-miterlimit="10" points="368.3,55.5 308.9,55.5 308.9,39.9 368.3,39.9 
			376.2,47.7 		"/>
	</g>
	<g display="inline">
		<polygon fill="#D9D9D6" stroke="#FFFFFF" stroke-miterlimit="10" points="842.4,57 783,57 783,41.4 842.4,41.4 842.4,49.2 		"/>
		<polygon fill="#003865" stroke="#FFFFFF" stroke-miterlimit="10" points="784.2,57 724.9,57 724.9,41.4 784.2,41.4 792.2,49.2 		
			"/>
		<polygon fill="#D9D9D6" stroke="#FFFFFF" stroke-miterlimit="10" points="726.4,57 667,57 667,41.4 726.4,41.4 734.3,49.2 		"/>
		<polygon fill="#D9D9D6" stroke="#FFFFFF" stroke-miterlimit="10" points="668.1,57 608.7,57 608.7,41.4 668.1,41.4 676,49.2 		"/>
	</g>
	<g display="inline">
		<polygon fill="#003865" stroke="#FFFFFF" stroke-miterlimit="10" points="1142.3,57 1082.9,57 1082.9,41.4 1142.3,41.4 
			1142.3,49.2 		"/>
		<polygon fill="#D9D9D6" stroke="#FFFFFF" stroke-miterlimit="10" points="1084.1,57 1024.8,57 1024.8,41.4 1084.1,41.4 
			1092.1,49.2 		"/>
		<polygon fill="#D9D9D6" stroke="#FFFFFF" stroke-miterlimit="10" points="1026.3,57 966.9,57 966.9,41.4 1026.3,41.4 1034.2,49.2 
					"/>
		<polygon fill="#D9D9D6" stroke="#FFFFFF" stroke-miterlimit="10" points="968,57 908.6,57 908.6,41.4 968,41.4 975.9,49.2 		"/>
	</g>
</g>
<g id="Accordian_Form" display="none">
	<rect x="-2" y="45.1" display="inline" fill="#EFEFEF" stroke="#63666A" stroke-miterlimit="10" width="256.5" height="217.7"/>
	<rect x="-2" y="45.3" display="inline" fill="#004C97" width="255.9" height="23.2"/>
	<g display="inline">
		<path fill="#FFFFFF" d="M13.6,57.9c0,2.5-1.2,3.8-3.5,3.8c-2.3,0-3.4-1.2-3.4-3.7v-4.9h1.9V58c0,1.4,0.5,2,1.6,2
			c1,0,1.6-0.7,1.6-2v-4.9h1.9V57.9z"/>
		<path fill="#FFFFFF" d="M15,61.2v-1.9c0.3,0.3,0.7,0.5,1.1,0.6s0.8,0.2,1.2,0.2c0.2,0,0.4,0,0.6-0.1s0.3-0.1,0.4-0.2
			s0.2-0.2,0.3-0.3s0.1-0.2,0.1-0.3c0-0.2,0-0.3-0.1-0.4s-0.2-0.2-0.4-0.4s-0.4-0.2-0.6-0.3S17.2,58,17,57.9c-0.7-0.3-1.1-0.6-1.5-1
			S15,56,15,55.5c0-0.4,0.1-0.8,0.3-1.1s0.4-0.6,0.7-0.8s0.7-0.4,1.1-0.4s0.8-0.1,1.3-0.1c0.4,0,0.8,0,1.2,0.1s0.6,0.1,0.9,0.2v1.8
			c-0.1-0.1-0.3-0.2-0.5-0.3s-0.3-0.1-0.5-0.2s-0.4-0.1-0.5-0.1s-0.3,0-0.5,0c-0.2,0-0.4,0-0.6,0.1s-0.3,0.1-0.4,0.2
			s-0.2,0.2-0.3,0.3S17,55.2,17,55.3c0,0.1,0,0.3,0.1,0.4s0.2,0.2,0.3,0.3s0.3,0.2,0.5,0.3s0.4,0.2,0.7,0.3c0.3,0.1,0.6,0.3,0.9,0.4
			s0.5,0.3,0.7,0.5s0.3,0.4,0.4,0.7s0.2,0.6,0.2,0.9c0,0.5-0.1,0.9-0.3,1.2s-0.4,0.6-0.7,0.8s-0.7,0.3-1.1,0.4s-0.8,0.1-1.3,0.1
			c-0.5,0-0.9,0-1.3-0.1S15.3,61.4,15,61.2z"/>
		<path fill="#FFFFFF" d="M24,58.6v2.9h-1.9v-8.4h3c2.1,0,3.2,0.9,3.2,2.7c0,0.8-0.3,1.5-0.9,2s-1.4,0.8-2.4,0.8H24z M24,54.6v2.6
			h0.7c1,0,1.5-0.4,1.5-1.3c0-0.9-0.5-1.3-1.5-1.3H24z"/>
		<path fill="#FFFFFF" d="M35.4,54.7H33v6.9h-1.9v-6.9h-2.4v-1.5h6.7V54.7z"/>
		<path fill="#FFFFFF" d="M39.7,61.7c-1.2,0-2.2-0.4-2.9-1.2s-1.1-1.8-1.1-3.1c0-1.3,0.4-2.4,1.2-3.2s1.8-1.2,3.1-1.2
			c1.2,0,2.2,0.4,2.9,1.2s1.1,1.8,1.1,3.1c0,1.3-0.4,2.4-1.2,3.2S40.9,61.7,39.7,61.7z M39.7,54.6c-0.7,0-1.2,0.2-1.6,0.7
			s-0.6,1.2-0.6,2c0,0.8,0.2,1.5,0.6,2s0.9,0.7,1.5,0.7c0.7,0,1.2-0.2,1.6-0.7s0.6-1.1,0.6-2c0-0.9-0.2-1.5-0.6-2
			S40.4,54.6,39.7,54.6z"/>
	</g>
	<rect x="9.8" y="86.5" display="inline" fill="#FFFFFF" stroke="#A7A8AA" stroke-miterlimit="10" width="233.6" height="157"/>
	<rect x="16.6" y="92.2" display="inline" fill="#009CDE" width="219.3" height="14.1"/>
	<rect x="24.2" y="125.4" display="inline" fill="#E8E8E8" width="204.6" height="15.9"/>
	<rect x="167.1" y="220.6" display="inline" fill="#004C97" width="62" height="15.8"/>
	<rect x="23.8" y="115.4" display="inline" fill="#A7A8AA" width="96.2" height="5.3"/>
	<rect x="24.4" y="158.6" display="inline" fill="#E8E8E8" width="205.5" height="15.9"/>
	<rect x="24.5" y="148.6" display="inline" fill="#A7A8AA" width="58.7" height="5.3"/>
	<rect x="24.4" y="194.3" display="inline" fill="#E8E8E8" width="205.5" height="15.9"/>
	<rect x="24.5" y="184.3" display="inline" fill="#A7A8AA" width="85.2" height="5.3"/>
	<rect x="297.5" y="44.7" display="inline" fill="#EFEFEF" stroke="#63666A" stroke-miterlimit="10" width="256.5" height="234.4"/>
	<rect x="297.5" y="45" display="inline" fill="#004C97" width="255.9" height="23.2"/>
	<g display="inline">
		<path fill="#FFFFFF" d="M313.1,57.6c0,2.5-1.2,3.8-3.5,3.8c-2.3,0-3.4-1.2-3.4-3.7v-4.9h1.9v4.9c0,1.4,0.5,2,1.6,2
			c1,0,1.6-0.7,1.6-2v-4.9h1.9V57.6z"/>
		<path fill="#FFFFFF" d="M314.6,60.9V59c0.3,0.3,0.7,0.5,1.1,0.6s0.8,0.2,1.2,0.2c0.2,0,0.4,0,0.6-0.1s0.3-0.1,0.4-0.2
			s0.2-0.2,0.3-0.3s0.1-0.2,0.1-0.3c0-0.2,0-0.3-0.1-0.4s-0.2-0.2-0.4-0.4s-0.4-0.2-0.6-0.3s-0.5-0.2-0.7-0.3
			c-0.7-0.3-1.1-0.6-1.5-1s-0.5-0.9-0.5-1.4c0-0.4,0.1-0.8,0.3-1.1s0.4-0.6,0.7-0.8s0.7-0.4,1.1-0.4s0.8-0.1,1.3-0.1
			c0.4,0,0.8,0,1.2,0.1s0.6,0.1,0.9,0.2v1.8c-0.1-0.1-0.3-0.2-0.5-0.3s-0.3-0.1-0.5-0.2s-0.4-0.1-0.5-0.1s-0.3,0-0.5,0
			c-0.2,0-0.4,0-0.6,0.1s-0.3,0.1-0.4,0.2s-0.2,0.2-0.3,0.3s-0.1,0.2-0.1,0.3c0,0.1,0,0.3,0.1,0.4s0.2,0.2,0.3,0.3s0.3,0.2,0.5,0.3
			s0.4,0.2,0.7,0.3c0.3,0.1,0.6,0.3,0.9,0.4s0.5,0.3,0.7,0.5s0.3,0.4,0.4,0.7s0.2,0.6,0.2,0.9c0,0.5-0.1,0.9-0.3,1.2
			s-0.4,0.6-0.7,0.8s-0.7,0.3-1.1,0.4s-0.8,0.1-1.3,0.1c-0.5,0-0.9,0-1.3-0.1S314.9,61,314.6,60.9z"/>
		<path fill="#FFFFFF" d="M323.6,58.3v2.9h-1.9v-8.4h3c2.1,0,3.2,0.9,3.2,2.7c0,0.8-0.3,1.5-0.9,2s-1.4,0.8-2.4,0.8H323.6z
			 M323.6,54.3v2.6h0.7c1,0,1.5-0.4,1.5-1.3c0-0.9-0.5-1.3-1.5-1.3H323.6z"/>
		<path fill="#FFFFFF" d="M334.9,54.4h-2.4v6.9h-1.9v-6.9h-2.4v-1.5h6.7V54.4z"/>
		<path fill="#FFFFFF" d="M339.2,61.4c-1.2,0-2.2-0.4-2.9-1.2s-1.1-1.8-1.1-3.1c0-1.3,0.4-2.4,1.2-3.2s1.8-1.2,3.1-1.2
			c1.2,0,2.2,0.4,2.9,1.2s1.1,1.8,1.1,3.1c0,1.3-0.4,2.4-1.2,3.2S340.4,61.4,339.2,61.4z M339.3,54.3c-0.7,0-1.2,0.2-1.6,0.7
			s-0.6,1.2-0.6,2c0,0.8,0.2,1.5,0.6,2s0.9,0.7,1.5,0.7c0.7,0,1.2-0.2,1.6-0.7s0.6-1.1,0.6-2c0-0.9-0.2-1.5-0.6-2
			S339.9,54.3,339.3,54.3z"/>
	</g>
	
		<rect x="309.3" y="124.1" display="inline" fill="#FFFFFF" stroke="#A7A8AA" stroke-miterlimit="10" width="233.6" height="140.4"/>
	<rect x="316.1" y="129.9" display="inline" fill="#009CDE" width="219.3" height="14.1"/>
	<rect x="466.7" y="238.3" display="inline" fill="#004C97" width="62" height="15.8"/>
	<g display="inline">
		<rect x="342" y="171" fill="#E8E8E8" width="84.9" height="5.8"/>
		<rect x="327" y="157" fill="#A7A8AA" width="60.7" height="5.3"/>
		<circle fill="#004C97" cx="331.7" cy="173.8" r="4.8"/>
		<rect x="341.4" y="186.8" fill="#E8E8E8" width="61.9" height="5.8"/>
		<circle fill="#004C97" cx="331.1" cy="189.6" r="4.8"/>
		<rect x="341" y="202.8" fill="#E8E8E8" width="118.1" height="5.8"/>
		<circle fill="#004C97" cx="330.7" cy="205.5" r="4.8"/>
		<rect x="341" y="219.3" fill="#E8E8E8" width="39.1" height="5.8"/>
		<circle fill="#004C97" cx="330.7" cy="222" r="4.8"/>
	</g>
	<rect x="597" y="45.4" display="inline" fill="#EFEFEF" stroke="#63666A" stroke-miterlimit="10" width="256.5" height="287.1"/>
	<rect x="597" y="45.7" display="inline" fill="#004C97" width="255.9" height="23.2"/>
	<g display="inline">
		<path fill="#FFFFFF" d="M612.6,58.2c0,2.5-1.2,3.8-3.5,3.8c-2.3,0-3.4-1.2-3.4-3.7v-4.9h1.9v4.9c0,1.4,0.5,2,1.6,2
			c1,0,1.6-0.7,1.6-2v-4.9h1.9V58.2z"/>
		<path fill="#FFFFFF" d="M614.1,61.5v-1.9c0.3,0.3,0.7,0.5,1.1,0.6s0.8,0.2,1.2,0.2c0.2,0,0.4,0,0.6-0.1s0.3-0.1,0.4-0.2
			s0.2-0.2,0.3-0.3s0.1-0.2,0.1-0.3c0-0.2,0-0.3-0.1-0.4s-0.2-0.2-0.4-0.4s-0.4-0.2-0.6-0.3s-0.5-0.2-0.7-0.3
			c-0.7-0.3-1.1-0.6-1.5-1s-0.5-0.9-0.5-1.4c0-0.4,0.1-0.8,0.3-1.1s0.4-0.6,0.7-0.8s0.7-0.4,1.1-0.4s0.8-0.1,1.3-0.1
			c0.4,0,0.8,0,1.2,0.1s0.6,0.1,0.9,0.2v1.8c-0.1-0.1-0.3-0.2-0.5-0.3s-0.3-0.1-0.5-0.2s-0.4-0.1-0.5-0.1s-0.3,0-0.5,0
			c-0.2,0-0.4,0-0.6,0.1s-0.3,0.1-0.4,0.2s-0.2,0.2-0.3,0.3s-0.1,0.2-0.1,0.3c0,0.1,0,0.3,0.1,0.4s0.2,0.2,0.3,0.3s0.3,0.2,0.5,0.3
			s0.4,0.2,0.7,0.3c0.3,0.1,0.6,0.3,0.9,0.4s0.5,0.3,0.7,0.5s0.3,0.4,0.4,0.7s0.2,0.6,0.2,0.9c0,0.5-0.1,0.9-0.3,1.2
			s-0.4,0.6-0.7,0.8s-0.7,0.3-1.1,0.4s-0.8,0.1-1.3,0.1c-0.5,0-0.9,0-1.3-0.1S614.4,61.7,614.1,61.5z"/>
		<path fill="#FFFFFF" d="M623.1,59v2.9h-1.9v-8.4h3c2.1,0,3.2,0.9,3.2,2.7c0,0.8-0.3,1.5-0.9,2S625,59,624,59H623.1z M623.1,54.9
			v2.6h0.7c1,0,1.5-0.4,1.5-1.3c0-0.9-0.5-1.3-1.5-1.3H623.1z"/>
		<path fill="#FFFFFF" d="M634.5,55h-2.4v6.9h-1.9V55h-2.4v-1.5h6.7V55z"/>
		<path fill="#FFFFFF" d="M638.7,62c-1.2,0-2.2-0.4-2.9-1.2s-1.1-1.8-1.1-3.1c0-1.3,0.4-2.4,1.2-3.2s1.8-1.2,3.1-1.2
			c1.2,0,2.2,0.4,2.9,1.2s1.1,1.8,1.1,3.1c0,1.3-0.4,2.4-1.2,3.2S639.9,62,638.7,62z M638.8,55c-0.7,0-1.2,0.2-1.6,0.7
			s-0.6,1.2-0.6,2c0,0.8,0.2,1.5,0.6,2s0.9,0.7,1.5,0.7c0.7,0,1.2-0.2,1.6-0.7s0.6-1.1,0.6-2c0-0.9-0.2-1.5-0.6-2S639.4,55,638.8,55
			z"/>
	</g>
	<rect x="608.8" y="155.8" display="inline" fill="#FFFFFF" stroke="#A7A8AA" stroke-miterlimit="10" width="233.6" height="157"/>
	<rect x="615.6" y="161.6" display="inline" fill="#009CDE" width="219.3" height="14.1"/>
	<rect x="766.2" y="290" display="inline" fill="#004C97" width="62" height="15.8"/>
	<rect x="627.1" y="194.3" display="inline" fill="#E8E8E8" width="193.7" height="57.1"/>
	<rect x="625.9" y="184.3" display="inline" fill="#A7A8AA" width="60.7" height="5.3"/>
	<rect x="896.5" y="44.7" display="inline" fill="#EFEFEF" stroke="#63666A" stroke-miterlimit="10" width="256.5" height="332.4"/>
	<rect x="896.5" y="45" display="inline" fill="#004C97" width="255.9" height="23.2"/>
	<g display="inline">
		<path fill="#FFFFFF" d="M912.1,57.6c0,2.5-1.2,3.8-3.5,3.8c-2.3,0-3.4-1.2-3.4-3.7v-4.9h1.9v4.9c0,1.4,0.5,2,1.6,2
			c1,0,1.6-0.7,1.6-2v-4.9h1.9V57.6z"/>
		<path fill="#FFFFFF" d="M913.6,60.9V59c0.3,0.3,0.7,0.5,1.1,0.6s0.8,0.2,1.2,0.2c0.2,0,0.4,0,0.6-0.1s0.3-0.1,0.4-0.2
			s0.2-0.2,0.3-0.3s0.1-0.2,0.1-0.3c0-0.2,0-0.3-0.1-0.4s-0.2-0.2-0.4-0.4s-0.4-0.2-0.6-0.3s-0.5-0.2-0.7-0.3
			c-0.7-0.3-1.1-0.6-1.5-1s-0.5-0.9-0.5-1.4c0-0.4,0.1-0.8,0.3-1.1s0.4-0.6,0.7-0.8s0.7-0.4,1.1-0.4s0.8-0.1,1.3-0.1
			c0.4,0,0.8,0,1.2,0.1s0.6,0.1,0.9,0.2v1.8c-0.1-0.1-0.3-0.2-0.5-0.3s-0.3-0.1-0.5-0.2s-0.4-0.1-0.5-0.1s-0.3,0-0.5,0
			c-0.2,0-0.4,0-0.6,0.1s-0.3,0.1-0.4,0.2s-0.2,0.2-0.3,0.3s-0.1,0.2-0.1,0.3c0,0.1,0,0.3,0.1,0.4s0.2,0.2,0.3,0.3s0.3,0.2,0.5,0.3
			s0.4,0.2,0.7,0.3c0.3,0.1,0.6,0.3,0.9,0.4s0.5,0.3,0.7,0.5s0.3,0.4,0.4,0.7s0.2,0.6,0.2,0.9c0,0.5-0.1,0.9-0.3,1.2
			s-0.4,0.6-0.7,0.8s-0.7,0.3-1.1,0.4s-0.8,0.1-1.3,0.1c-0.5,0-0.9,0-1.3-0.1S913.9,61,913.6,60.9z"/>
		<path fill="#FFFFFF" d="M922.6,58.3v2.9h-1.9v-8.4h3c2.1,0,3.2,0.9,3.2,2.7c0,0.8-0.3,1.5-0.9,2s-1.4,0.8-2.4,0.8H922.6z
			 M922.6,54.3v2.6h0.7c1,0,1.5-0.4,1.5-1.3c0-0.9-0.5-1.3-1.5-1.3H922.6z"/>
		<path fill="#FFFFFF" d="M934,54.4h-2.4v6.9h-1.9v-6.9h-2.4v-1.5h6.7V54.4z"/>
		<path fill="#FFFFFF" d="M938.2,61.4c-1.2,0-2.2-0.4-2.9-1.2s-1.1-1.8-1.1-3.1c0-1.3,0.4-2.4,1.2-3.2s1.8-1.2,3.1-1.2
			c1.2,0,2.2,0.4,2.9,1.2s1.1,1.8,1.1,3.1c0,1.3-0.4,2.4-1.2,3.2S939.4,61.4,938.2,61.4z M938.3,54.3c-0.7,0-1.2,0.2-1.6,0.7
			s-0.6,1.2-0.6,2c0,0.8,0.2,1.5,0.6,2s0.9,0.7,1.5,0.7c0.7,0,1.2-0.2,1.6-0.7s0.6-1.1,0.6-2c0-0.9-0.2-1.5-0.6-2
			S938.9,54.3,938.3,54.3z"/>
	</g>
	<rect x="908.3" y="201.1" display="inline" fill="#FFFFFF" stroke="#A7A8AA" stroke-miterlimit="10" width="233.6" height="157"/>
	<rect x="915.1" y="206.9" display="inline" fill="#009CDE" width="219.3" height="14.1"/>
	<rect x="1065.7" y="335.3" display="inline" fill="#004C97" width="62" height="15.8"/>
	<rect x="941" y="244.3" display="inline" fill="#E8E8E8" width="108.4" height="5.8"/>
	<rect x="926" y="230.3" display="inline" fill="#A7A8AA" width="60.7" height="5.3"/>
	<rect x="940.4" y="260" display="inline" fill="#E8E8E8" width="61.9" height="5.8"/>
	<rect x="940" y="276" display="inline" fill="#E8E8E8" width="163.6" height="5.8"/>
	<rect x="940" y="292.5" display="inline" fill="#E8E8E8" width="30.7" height="5.8"/>
	<rect x="927" y="242.3" display="inline" fill="#004C97" width="9.5" height="9.5"/>
	<rect x="927" y="258.2" display="inline" fill="#E8E8E8" width="9.5" height="9.5"/>
	<rect x="926.9" y="274.2" display="inline" fill="#E8E8E8" width="9.5" height="9.5"/>
	<rect x="927" y="290.7" display="inline" fill="#E8E8E8" width="9.5" height="9.5"/>
	<path display="inline" fill="#A7A8AA" d="M287,134.9c1.1,1.9,1.7,4.1,1.7,6.4c0,2.3-0.6,4.4-1.7,6.4c-1.1,1.9-2.7,3.5-4.6,4.6
		c-1.9,1.1-4.1,1.7-6.4,1.7c-2.3,0-4.4-0.6-6.4-1.7c-1.9-1.1-3.5-2.7-4.6-4.6c-1.1-1.9-1.7-4.1-1.7-6.4c0-2.3,0.6-4.4,1.7-6.4
		c1.1-1.9,2.7-3.5,4.6-4.6c1.9-1.1,4.1-1.7,6.4-1.7c2.3,0,4.4,0.6,6.4,1.7C284.3,131.4,285.8,133,287,134.9z M284.5,141.3
		c0-0.3-0.1-0.5-0.3-0.7l-1.5-1.5l-6-6c-0.2-0.2-0.4-0.3-0.7-0.3c-0.3,0-0.5,0.1-0.7,0.3l-1.5,1.5c-0.2,0.2-0.3,0.4-0.3,0.7
		c0,0.3,0.1,0.5,0.3,0.7l3.1,3.1h-8.3c-0.3,0-0.5,0.1-0.7,0.3c-0.2,0.2-0.3,0.5-0.3,0.7v2.1c0,0.3,0.1,0.5,0.3,0.7
		c0.2,0.2,0.5,0.3,0.7,0.3h8.3l-3.1,3.1c-0.2,0.2-0.3,0.5-0.3,0.7c0,0.3,0.1,0.5,0.3,0.7l1.5,1.5c0.2,0.2,0.4,0.3,0.7,0.3
		c0.3,0,0.5-0.1,0.7-0.3l6-6l1.5-1.5C284.4,141.8,284.5,141.6,284.5,141.3z"/>
	<path display="inline" fill="#A7A8AA" d="M586.5,134.9c1.1,1.9,1.7,4.1,1.7,6.4c0,2.3-0.6,4.4-1.7,6.4c-1.1,1.9-2.7,3.5-4.6,4.6
		c-1.9,1.1-4.1,1.7-6.4,1.7c-2.3,0-4.4-0.6-6.4-1.7c-1.9-1.1-3.5-2.7-4.6-4.6c-1.1-1.9-1.7-4.1-1.7-6.4c0-2.3,0.6-4.4,1.7-6.4
		c1.1-1.9,2.7-3.5,4.6-4.6c1.9-1.1,4.1-1.7,6.4-1.7c2.3,0,4.4,0.6,6.4,1.7C583.8,131.4,585.3,133,586.5,134.9z M584,141.3
		c0-0.3-0.1-0.5-0.3-0.7l-1.5-1.5l-6-6c-0.2-0.2-0.4-0.3-0.7-0.3c-0.3,0-0.5,0.1-0.7,0.3l-1.5,1.5c-0.2,0.2-0.3,0.4-0.3,0.7
		c0,0.3,0.1,0.5,0.3,0.7l3.1,3.1h-8.3c-0.3,0-0.5,0.1-0.7,0.3c-0.2,0.2-0.3,0.5-0.3,0.7v2.1c0,0.3,0.1,0.5,0.3,0.7
		c0.2,0.2,0.5,0.3,0.7,0.3h8.3l-3.1,3.1c-0.2,0.2-0.3,0.5-0.3,0.7c0,0.3,0.1,0.5,0.3,0.7l1.5,1.5c0.2,0.2,0.4,0.3,0.7,0.3
		c0.3,0,0.5-0.1,0.7-0.3l6-6l1.5-1.5C583.9,141.8,584,141.6,584,141.3z"/>
	<path display="inline" fill="#A7A8AA" d="M886,134.9c1.1,1.9,1.7,4.1,1.7,6.4c0,2.3-0.6,4.4-1.7,6.4c-1.1,1.9-2.7,3.5-4.6,4.6
		c-1.9,1.1-4.1,1.7-6.4,1.7c-2.3,0-4.4-0.6-6.4-1.7c-1.9-1.1-3.5-2.7-4.6-4.6c-1.1-1.9-1.7-4.1-1.7-6.4c0-2.3,0.6-4.4,1.7-6.4
		c1.1-1.9,2.7-3.5,4.6-4.6c1.9-1.1,4.1-1.7,6.4-1.7c2.3,0,4.4,0.6,6.4,1.7C883.3,131.4,884.9,133,886,134.9z M883.6,141.3
		c0-0.3-0.1-0.5-0.3-0.7l-1.5-1.5l-6-6c-0.2-0.2-0.4-0.3-0.7-0.3c-0.3,0-0.5,0.1-0.7,0.3l-1.5,1.5c-0.2,0.2-0.3,0.4-0.3,0.7
		c0,0.3,0.1,0.5,0.3,0.7l3.1,3.1h-8.3c-0.3,0-0.5,0.1-0.7,0.3c-0.2,0.2-0.3,0.5-0.3,0.7v2.1c0,0.3,0.1,0.5,0.3,0.7
		c0.2,0.2,0.5,0.3,0.7,0.3h8.3l-3.1,3.1c-0.2,0.2-0.3,0.5-0.3,0.7c0,0.3,0.1,0.5,0.3,0.7l1.5,1.5c0.2,0.2,0.4,0.3,0.7,0.3
		c0.3,0,0.5-0.1,0.7-0.3l6-6l1.5-1.5C883.5,141.8,883.6,141.6,883.6,141.3z"/>
	<g display="inline">
		<rect x="308.6" y="80.3" fill="#FFFFFF" stroke="#A7A8AA" stroke-miterlimit="10" width="233.6" height="27"/>
		<rect x="315.3" y="86.6" fill="#009CDE" width="219.8" height="14.1"/>
		<rect x="315.3" y="86.6" fill="#003865" width="17.4" height="14.1"/>
	</g>
	<g display="inline">
		<rect x="610.4" y="78.7" fill="#FFFFFF" stroke="#A7A8AA" stroke-miterlimit="10" width="233.6" height="27"/>
		<rect x="617.1" y="85" fill="#009CDE" width="219.8" height="14.1"/>
		<rect x="617.1" y="85" fill="#003865" width="17.4" height="14.1"/>
	</g>
	<g display="inline">
		<rect x="609.6" y="115.8" fill="#FFFFFF" stroke="#A7A8AA" stroke-miterlimit="10" width="233.6" height="27"/>
		<rect x="616.3" y="122.1" fill="#009CDE" width="219.8" height="14.1"/>
		<rect x="616.3" y="122.1" fill="#003865" width="17.4" height="14.1"/>
	</g>
	<g display="inline">
		<rect x="908.3" y="80.3" fill="#FFFFFF" stroke="#A7A8AA" stroke-miterlimit="10" width="233.6" height="27"/>
		<rect x="915.1" y="86.6" fill="#009CDE" width="219.8" height="14.1"/>
		<rect x="915.1" y="86.6" fill="#003865" width="17.4" height="14.1"/>
	</g>
	<g display="inline">
		<rect x="907.6" y="117.3" fill="#FFFFFF" stroke="#A7A8AA" stroke-miterlimit="10" width="233.6" height="27"/>
		<rect x="914.3" y="123.7" fill="#009CDE" width="219.8" height="14.1"/>
		<rect x="914.3" y="123.7" fill="#003865" width="17.4" height="14.1"/>
	</g>
	<g display="inline">
		<rect x="908.3" y="158.1" fill="#FFFFFF" stroke="#A7A8AA" stroke-miterlimit="10" width="233.6" height="27"/>
		<rect x="915.1" y="164.4" fill="#009CDE" width="219.8" height="14.1"/>
		<rect x="915.1" y="164.4" fill="#003865" width="17.4" height="14.1"/>
	</g>
</g>
<g id="Wizard">
	<g>
		<rect x="0.5" y="0.8" fill="#EFEFEF" stroke="#63666A" stroke-miterlimit="10" width="256.5" height="243.7"/>
		<rect x="0.5" y="1.1" fill="#004C97" width="255.9" height="23.2"/>
		<g>
			<path fill="#FFFFFF" d="M16.1,13.6c0,2.5-1.2,3.8-3.5,3.8c-2.3,0-3.4-1.2-3.4-3.7V8.9h1.9v4.9c0,1.4,0.5,2,1.6,2
				c1,0,1.6-0.7,1.6-2V8.9h1.9V13.6z"/>
			<path fill="#FFFFFF" d="M17.6,17v-1.9c0.3,0.3,0.7,0.5,1.1,0.6s0.8,0.2,1.2,0.2c0.2,0,0.4,0,0.6-0.1s0.3-0.1,0.4-0.2
				s0.2-0.2,0.3-0.3s0.1-0.2,0.1-0.3c0-0.2,0-0.3-0.1-0.4s-0.2-0.2-0.4-0.4s-0.4-0.2-0.6-0.3s-0.5-0.2-0.7-0.3
				c-0.7-0.3-1.1-0.6-1.5-1s-0.5-0.9-0.5-1.4c0-0.4,0.1-0.8,0.3-1.1s0.4-0.6,0.7-0.8s0.7-0.4,1.1-0.4s0.8-0.1,1.3-0.1
				c0.4,0,0.8,0,1.2,0.1s0.6,0.1,0.9,0.2v1.8c-0.1-0.1-0.3-0.2-0.5-0.3s-0.3-0.1-0.5-0.2s-0.4-0.1-0.5-0.1s-0.3,0-0.5,0
				c-0.2,0-0.4,0-0.6,0.1s-0.3,0.1-0.4,0.2s-0.2,0.2-0.3,0.3s-0.1,0.2-0.1,0.3c0,0.1,0,0.3,0.1,0.4s0.2,0.2,0.3,0.3s0.3,0.2,0.5,0.3
				s0.4,0.2,0.7,0.3c0.3,0.1,0.6,0.3,0.9,0.4s0.5,0.3,0.7,0.5s0.3,0.4,0.4,0.7s0.2,0.6,0.2,0.9c0,0.5-0.1,0.9-0.3,1.2
				s-0.4,0.6-0.7,0.8s-0.7,0.3-1.1,0.4s-0.8,0.1-1.3,0.1c-0.5,0-0.9,0-1.3-0.1S17.9,17.1,17.6,17z"/>
			<path fill="#FFFFFF" d="M26.6,14.4v2.9h-1.9V8.9h3c2.1,0,3.2,0.9,3.2,2.7c0,0.8-0.3,1.5-0.9,2s-1.4,0.8-2.4,0.8H26.6z M26.6,10.3
				V13h0.7c1,0,1.5-0.4,1.5-1.3c0-0.9-0.5-1.3-1.5-1.3H26.6z"/>
			<path fill="#FFFFFF" d="M38,10.4h-2.4v6.9h-1.9v-6.9h-2.4V8.9H38V10.4z"/>
			<path fill="#FFFFFF" d="M42.2,17.4c-1.2,0-2.2-0.4-2.9-1.2s-1.1-1.8-1.1-3.1c0-1.3,0.4-2.4,1.2-3.2s1.8-1.2,3.1-1.2
				c1.2,0,2.2,0.4,2.9,1.2s1.1,1.8,1.1,3.1c0,1.3-0.4,2.4-1.2,3.2S43.4,17.4,42.2,17.4z M42.3,10.4c-0.7,0-1.2,0.2-1.6,0.7
				s-0.6,1.2-0.6,2c0,0.8,0.2,1.5,0.6,2s0.9,0.7,1.5,0.7c0.7,0,1.2-0.2,1.6-0.7s0.6-1.1,0.6-2c0-0.9-0.2-1.5-0.6-2
				S42.9,10.4,42.3,10.4z"/>
		</g>
		<rect x="12.3" y="68.2" fill="#FFFFFF" stroke="#A7A8AA" stroke-miterlimit="10" width="233.6" height="157"/>
		<rect x="19.1" y="74" fill="#009CDE" width="219.3" height="14.1"/>
		<rect x="26.8" y="107.1" fill="#E8E8E8" width="204.6" height="15.9"/>
		<rect x="169.7" y="202.4" fill="#004C97" width="62" height="15.8"/>
		<rect x="26.3" y="97.1" fill="#A7A8AA" width="96.2" height="5.3"/>
		<rect x="26.9" y="140.4" fill="#E8E8E8" width="205.5" height="15.9"/>
		<rect x="27" y="130.4" fill="#A7A8AA" width="58.7" height="5.3"/>
		<rect x="26.9" y="176.1" fill="#E8E8E8" width="205.5" height="15.9"/>
		<rect x="27" y="166.1" fill="#A7A8AA" width="85.2" height="5.3"/>
		<polygon fill="#D9D9D6" stroke="#FFFFFF" stroke-miterlimit="10" points="246,50.5 186.6,50.5 186.6,34.9 246,34.9 246,42.7 		"/>
		<polygon fill="#D9D9D6" stroke="#FFFFFF" stroke-miterlimit="10" points="187.8,50.5 128.5,50.5 128.5,34.9 187.8,34.9 
			195.8,42.7 		"/>
		<polygon fill="#D9D9D6" stroke="#FFFFFF" stroke-miterlimit="10" points="130,50.5 70.6,50.5 70.6,34.9 130,34.9 137.9,42.7 		"/>
		<polygon fill="#003865" stroke="#FFFFFF" stroke-miterlimit="10" points="71.7,50.5 12.3,50.5 12.3,34.9 71.7,34.9 79.6,42.7 		
			"/>
	</g>
	<g>
		<rect x="300" y="0.5" fill="#EFEFEF" stroke="#63666A" stroke-miterlimit="10" width="256.5" height="243.7"/>
		<rect x="300" y="0.8" fill="#004C97" width="255.9" height="23.2"/>
		<g>
			<path fill="#FFFFFF" d="M315.6,13.3c0,2.5-1.2,3.8-3.5,3.8c-2.3,0-3.4-1.2-3.4-3.7V8.6h1.9v4.9c0,1.4,0.5,2,1.6,2
				c1,0,1.6-0.7,1.6-2V8.6h1.9V13.3z"/>
			<path fill="#FFFFFF" d="M317.1,16.6v-1.9c0.3,0.3,0.7,0.5,1.1,0.6s0.8,0.2,1.2,0.2c0.2,0,0.4,0,0.6-0.1s0.3-0.1,0.4-0.2
				s0.2-0.2,0.3-0.3s0.1-0.2,0.1-0.3c0-0.2,0-0.3-0.1-0.4s-0.2-0.2-0.4-0.4s-0.4-0.2-0.6-0.3s-0.5-0.2-0.7-0.3
				c-0.7-0.3-1.1-0.6-1.5-1s-0.5-0.9-0.5-1.4c0-0.4,0.1-0.8,0.3-1.1s0.4-0.6,0.7-0.8s0.7-0.4,1.1-0.4s0.8-0.1,1.3-0.1
				c0.4,0,0.8,0,1.2,0.1s0.6,0.1,0.9,0.2v1.8c-0.1-0.1-0.3-0.2-0.5-0.3s-0.3-0.1-0.5-0.2s-0.4-0.1-0.5-0.1s-0.3,0-0.5,0
				c-0.2,0-0.4,0-0.6,0.1s-0.3,0.1-0.4,0.2s-0.2,0.2-0.3,0.3s-0.1,0.2-0.1,0.3c0,0.1,0,0.3,0.1,0.4s0.2,0.2,0.3,0.3s0.3,0.2,0.5,0.3
				s0.4,0.2,0.7,0.3c0.3,0.1,0.6,0.3,0.9,0.4s0.5,0.3,0.7,0.5s0.3,0.4,0.4,0.7s0.2,0.6,0.2,0.9c0,0.5-0.1,0.9-0.3,1.2
				s-0.4,0.6-0.7,0.8s-0.7,0.3-1.1,0.4s-0.8,0.1-1.3,0.1c-0.5,0-0.9,0-1.3-0.1S317.4,16.8,317.1,16.6z"/>
			<path fill="#FFFFFF" d="M326.1,14.1V17h-1.9V8.6h3c2.1,0,3.2,0.9,3.2,2.7c0,0.8-0.3,1.5-0.9,2s-1.4,0.8-2.4,0.8H326.1z M326.1,10
				v2.6h0.7c1,0,1.5-0.4,1.5-1.3c0-0.9-0.5-1.3-1.5-1.3H326.1z"/>
			<path fill="#FFFFFF" d="M337.5,10.1h-2.4V17h-1.9v-6.9h-2.4V8.6h6.7V10.1z"/>
			<path fill="#FFFFFF" d="M341.7,17.1c-1.2,0-2.2-0.4-2.9-1.2s-1.1-1.8-1.1-3.1c0-1.3,0.4-2.4,1.2-3.2s1.8-1.2,3.1-1.2
				c1.2,0,2.2,0.4,2.9,1.2s1.1,1.8,1.1,3.1c0,1.3-0.4,2.4-1.2,3.2S342.9,17.1,341.7,17.1z M341.8,10c-0.7,0-1.2,0.2-1.6,0.7
				s-0.6,1.2-0.6,2c0,0.8,0.2,1.5,0.6,2s0.9,0.7,1.5,0.7c0.7,0,1.2-0.2,1.6-0.7s0.6-1.1,0.6-2c0-0.9-0.2-1.5-0.6-2
				S342.4,10,341.8,10z"/>
		</g>
		<rect x="311.8" y="67.9" fill="#FFFFFF" stroke="#A7A8AA" stroke-miterlimit="10" width="233.6" height="157"/>
		<rect x="318.6" y="73.6" fill="#009CDE" width="219.3" height="14.1"/>
		<rect x="469.2" y="202.1" fill="#004C97" width="62" height="15.8"/>
		<polygon fill="#D9D9D6" stroke="#FFFFFF" stroke-miterlimit="10" points="545.5,50.2 486.1,50.2 486.1,34.6 545.5,34.6 
			545.5,42.4 		"/>
		<polygon fill="#D9D9D6" stroke="#FFFFFF" stroke-miterlimit="10" points="487.3,50.2 428,50.2 428,34.6 487.3,34.6 495.3,42.4 		
			"/>
		<polygon fill="#003865" stroke="#FFFFFF" stroke-miterlimit="10" points="429.5,50.2 370.1,50.2 370.1,34.6 429.5,34.6 
			437.4,42.4 		"/>
		<polygon fill="#D9D9D6" stroke="#FFFFFF" stroke-miterlimit="10" points="371.2,50.2 311.8,50.2 311.8,34.6 371.2,34.6 
			379.1,42.4 		"/>
		<g>
			<rect x="344.5" y="114.8" fill="#E8E8E8" width="84.9" height="5.8"/>
			<rect x="329.5" y="100.8" fill="#A7A8AA" width="60.7" height="5.3"/>
			<circle fill="#004C97" cx="334.3" cy="117.5" r="4.8"/>
			<rect x="343.9" y="130.5" fill="#E8E8E8" width="61.9" height="5.8"/>
			<circle fill="#E8E8E8" cx="333.7" cy="133.3" r="4.8"/>
			<rect x="343.5" y="146.5" fill="#E8E8E8" width="118.1" height="5.8"/>
			<circle fill="#E8E8E8" cx="333.3" cy="149.3" r="4.8"/>
			<rect x="343.5" y="163" fill="#E8E8E8" width="39.1" height="5.8"/>
			<circle fill="#E8E8E8" cx="333.3" cy="165.8" r="4.8"/>
		</g>
	</g>
	<g>
		<rect x="599.5" y="1.2" fill="#EFEFEF" stroke="#63666A" stroke-miterlimit="10" width="256.5" height="243.7"/>
		<rect x="599.5" y="1.4" fill="#004C97" width="255.9" height="23.2"/>
		<g>
			<path fill="#FFFFFF" d="M615.2,14c0,2.5-1.2,3.8-3.5,3.8c-2.3,0-3.4-1.2-3.4-3.7V9.2h1.9v4.9c0,1.4,0.5,2,1.6,2
				c1,0,1.6-0.7,1.6-2V9.2h1.9V14z"/>
			<path fill="#FFFFFF" d="M616.6,17.3v-1.9c0.3,0.3,0.7,0.5,1.1,0.6s0.8,0.2,1.2,0.2c0.2,0,0.4,0,0.6-0.1s0.3-0.1,0.4-0.2
				s0.2-0.2,0.3-0.3s0.1-0.2,0.1-0.3c0-0.2,0-0.3-0.1-0.4s-0.2-0.2-0.4-0.4s-0.4-0.2-0.6-0.3s-0.5-0.2-0.7-0.3
				c-0.7-0.3-1.1-0.6-1.5-1s-0.5-0.9-0.5-1.4c0-0.4,0.1-0.8,0.3-1.1s0.4-0.6,0.7-0.8s0.7-0.4,1.1-0.4s0.8-0.1,1.3-0.1
				c0.4,0,0.8,0,1.2,0.1s0.6,0.1,0.9,0.2v1.8c-0.1-0.1-0.3-0.2-0.5-0.3s-0.3-0.1-0.5-0.2s-0.4-0.1-0.5-0.1s-0.3,0-0.5,0
				c-0.2,0-0.4,0-0.6,0.1s-0.3,0.1-0.4,0.2s-0.2,0.2-0.3,0.3s-0.1,0.2-0.1,0.3c0,0.1,0,0.3,0.1,0.4s0.2,0.2,0.3,0.3s0.3,0.2,0.5,0.3
				s0.4,0.2,0.7,0.3c0.3,0.1,0.6,0.3,0.9,0.4s0.5,0.3,0.7,0.5s0.3,0.4,0.4,0.7s0.2,0.6,0.2,0.9c0,0.5-0.1,0.9-0.3,1.2
				s-0.4,0.6-0.7,0.8s-0.7,0.3-1.1,0.4s-0.8,0.1-1.3,0.1c-0.5,0-0.9,0-1.3-0.1S616.9,17.5,616.6,17.3z"/>
			<path fill="#FFFFFF" d="M625.6,14.7v2.9h-1.9V9.2h3c2.1,0,3.2,0.9,3.2,2.7c0,0.8-0.3,1.5-0.9,2s-1.4,0.8-2.4,0.8H625.6z
				 M625.6,10.7v2.6h0.7c1,0,1.5-0.4,1.5-1.3c0-0.9-0.5-1.3-1.5-1.3H625.6z"/>
			<path fill="#FFFFFF" d="M637,10.8h-2.4v6.9h-1.9v-6.9h-2.4V9.2h6.7V10.8z"/>
			<path fill="#FFFFFF" d="M641.2,17.8c-1.2,0-2.2-0.4-2.9-1.2s-1.1-1.8-1.1-3.1c0-1.3,0.4-2.4,1.2-3.2s1.8-1.2,3.1-1.2
				c1.2,0,2.2,0.4,2.9,1.2s1.1,1.8,1.1,3.1c0,1.3-0.4,2.4-1.2,3.2S642.5,17.8,641.2,17.8z M641.3,10.7c-0.7,0-1.2,0.2-1.6,0.7
				s-0.6,1.2-0.6,2c0,0.8,0.2,1.5,0.6,2s0.9,0.7,1.5,0.7c0.7,0,1.2-0.2,1.6-0.7s0.6-1.1,0.6-2c0-0.9-0.2-1.5-0.6-2
				S642,10.7,641.3,10.7z"/>
		</g>
		<rect x="611.4" y="68.5" fill="#FFFFFF" stroke="#A7A8AA" stroke-miterlimit="10" width="233.6" height="157"/>
		<rect x="618.1" y="74.3" fill="#009CDE" width="219.3" height="14.1"/>
		<rect x="768.7" y="202.7" fill="#004C97" width="62" height="15.8"/>
		<polygon fill="#D9D9D6" stroke="#FFFFFF" stroke-miterlimit="10" points="845,50.9 785.7,50.9 785.7,35.3 845,35.3 845,43.1 		"/>
		<polygon fill="#003865" stroke="#FFFFFF" stroke-miterlimit="10" points="786.9,50.9 727.5,50.9 727.5,35.3 786.9,35.3 
			794.8,43.1 		"/>
		<polygon fill="#D9D9D6" stroke="#FFFFFF" stroke-miterlimit="10" points="729,50.9 669.6,50.9 669.6,35.3 729,35.3 736.9,43.1 		
			"/>
		<polygon fill="#D9D9D6" stroke="#FFFFFF" stroke-miterlimit="10" points="670.7,50.9 611.4,50.9 611.4,35.3 670.7,35.3 
			678.7,43.1 		"/>
		<rect x="629.6" y="107" fill="#E8E8E8" width="193.7" height="57.1"/>
		<rect x="628.5" y="97" fill="#A7A8AA" width="60.7" height="5.3"/>
	</g>
	<g>
		<rect x="899" y="0.5" fill="#EFEFEF" stroke="#63666A" stroke-miterlimit="10" width="256.5" height="243.7"/>
		<rect x="899" y="0.8" fill="#004C97" width="255.9" height="23.2"/>
		<g>
			<path fill="#FFFFFF" d="M914.7,13.3c0,2.5-1.2,3.8-3.5,3.8c-2.3,0-3.4-1.2-3.4-3.7V8.6h1.9v4.9c0,1.4,0.5,2,1.6,2
				c1,0,1.6-0.7,1.6-2V8.6h1.9V13.3z"/>
			<path fill="#FFFFFF" d="M916.1,16.6v-1.9c0.3,0.3,0.7,0.5,1.1,0.6s0.8,0.2,1.2,0.2c0.2,0,0.4,0,0.6-0.1s0.3-0.1,0.4-0.2
				s0.2-0.2,0.3-0.3s0.1-0.2,0.1-0.3c0-0.2,0-0.3-0.1-0.4s-0.2-0.2-0.4-0.4s-0.4-0.2-0.6-0.3s-0.5-0.2-0.7-0.3
				c-0.7-0.3-1.1-0.6-1.5-1s-0.5-0.9-0.5-1.4c0-0.4,0.1-0.8,0.3-1.1s0.4-0.6,0.7-0.8s0.7-0.4,1.1-0.4s0.8-0.1,1.3-0.1
				c0.4,0,0.8,0,1.2,0.1s0.6,0.1,0.9,0.2v1.8c-0.1-0.1-0.3-0.2-0.5-0.3s-0.3-0.1-0.5-0.2s-0.4-0.1-0.5-0.1s-0.3,0-0.5,0
				c-0.2,0-0.4,0-0.6,0.1s-0.3,0.1-0.4,0.2s-0.2,0.2-0.3,0.3s-0.1,0.2-0.1,0.3c0,0.1,0,0.3,0.1,0.4s0.2,0.2,0.3,0.3s0.3,0.2,0.5,0.3
				s0.4,0.2,0.7,0.3c0.3,0.1,0.6,0.3,0.9,0.4s0.5,0.3,0.7,0.5s0.3,0.4,0.4,0.7s0.2,0.6,0.2,0.9c0,0.5-0.1,0.9-0.3,1.2
				s-0.4,0.6-0.7,0.8s-0.7,0.3-1.1,0.4s-0.8,0.1-1.3,0.1c-0.5,0-0.9,0-1.3-0.1S916.4,16.8,916.1,16.6z"/>
			<path fill="#FFFFFF" d="M925.1,14.1V17h-1.9V8.6h3c2.1,0,3.2,0.9,3.2,2.7c0,0.8-0.3,1.5-0.9,2s-1.4,0.8-2.4,0.8H925.1z M925.1,10
				v2.6h0.7c1,0,1.5-0.4,1.5-1.3c0-0.9-0.5-1.3-1.5-1.3H925.1z"/>
			<path fill="#FFFFFF" d="M936.5,10.1h-2.4V17h-1.9v-6.9h-2.4V8.6h6.7V10.1z"/>
			<path fill="#FFFFFF" d="M940.7,17.1c-1.2,0-2.2-0.4-2.9-1.2s-1.1-1.8-1.1-3.1c0-1.3,0.4-2.4,1.2-3.2s1.8-1.2,3.1-1.2
				c1.2,0,2.2,0.4,2.9,1.2s1.1,1.8,1.1,3.1c0,1.3-0.4,2.4-1.2,3.2S942,17.1,940.7,17.1z M940.8,10c-0.7,0-1.2,0.2-1.6,0.7
				s-0.6,1.2-0.6,2c0,0.8,0.2,1.5,0.6,2s0.9,0.7,1.5,0.7c0.7,0,1.2-0.2,1.6-0.7s0.6-1.1,0.6-2c0-0.9-0.2-1.5-0.6-2
				S941.5,10,940.8,10z"/>
		</g>
		<rect x="910.9" y="67.9" fill="#FFFFFF" stroke="#A7A8AA" stroke-miterlimit="10" width="233.6" height="157"/>
		<rect x="917.7" y="73.6" fill="#009CDE" width="219.3" height="14.1"/>
		<rect x="1068.2" y="202.1" fill="#004C97" width="62" height="15.8"/>
		<polygon fill="#003865" stroke="#FFFFFF" stroke-miterlimit="10" points="1144.5,50.2 1085.2,50.2 1085.2,34.6 1144.5,34.6 
			1144.5,42.4 		"/>
		<polygon fill="#D9D9D6" stroke="#FFFFFF" stroke-miterlimit="10" points="1086.4,50.2 1027,50.2 1027,34.6 1086.4,34.6 
			1094.3,42.4 		"/>
		<polygon fill="#D9D9D6" stroke="#FFFFFF" stroke-miterlimit="10" points="1028.5,50.2 969.1,50.2 969.1,34.6 1028.5,34.6 
			1036.5,42.4 		"/>
		<polygon fill="#D9D9D6" stroke="#FFFFFF" stroke-miterlimit="10" points="970.2,50.2 910.9,50.2 910.9,34.6 970.2,34.6 
			978.2,42.4 		"/>
		<rect x="943.5" y="111" fill="#E8E8E8" width="108.4" height="5.8"/>
		<rect x="928.5" y="97" fill="#A7A8AA" width="60.7" height="5.3"/>
		<rect x="942.9" y="126.8" fill="#E8E8E8" width="61.9" height="5.8"/>
		<rect x="942.5" y="142.8" fill="#E8E8E8" width="163.6" height="5.8"/>
		<rect x="942.5" y="159.3" fill="#E8E8E8" width="30.7" height="5.8"/>
		<rect x="929.5" y="109" fill="#004C97" width="9.5" height="9.5"/>
		<rect x="929.5" y="124.9" fill="#E8E8E8" width="9.5" height="9.5"/>
		<rect x="929.4" y="140.9" fill="#E8E8E8" width="9.5" height="9.5"/>
		<rect x="929.5" y="157.4" fill="#E8E8E8" width="9.5" height="9.5"/>
	</g>
	<g>
		<path fill="#A7A8AA" d="M289.5,116.7c1.1,1.9,1.7,4.1,1.7,6.4c0,2.3-0.6,4.4-1.7,6.4c-1.1,1.9-2.7,3.5-4.6,4.6
			c-1.9,1.1-4.1,1.7-6.4,1.7c-2.3,0-4.4-0.6-6.4-1.7c-1.9-1.1-3.5-2.7-4.6-4.6c-1.1-1.9-1.7-4.1-1.7-6.4c0-2.3,0.6-4.4,1.7-6.4
			c1.1-1.9,2.7-3.5,4.6-4.6c1.9-1.1,4.1-1.7,6.4-1.7c2.3,0,4.4,0.6,6.4,1.7C286.8,113.2,288.4,114.7,289.5,116.7z M287.1,123
			c0-0.3-0.1-0.5-0.3-0.7l-1.5-1.5l-6-6c-0.2-0.2-0.4-0.3-0.7-0.3c-0.3,0-0.5,0.1-0.7,0.3l-1.5,1.5c-0.2,0.2-0.3,0.4-0.3,0.7
			c0,0.3,0.1,0.5,0.3,0.7l3.1,3.1h-8.3c-0.3,0-0.5,0.1-0.7,0.3c-0.2,0.2-0.3,0.5-0.3,0.7v2.1c0,0.3,0.1,0.5,0.3,0.7
			c0.2,0.2,0.5,0.3,0.7,0.3h8.3l-3.1,3.1c-0.2,0.2-0.3,0.5-0.3,0.7c0,0.3,0.1,0.5,0.3,0.7l1.5,1.5c0.2,0.2,0.4,0.3,0.7,0.3
			c0.3,0,0.5-0.1,0.7-0.3l6-6l1.5-1.5C287,123.6,287.1,123.3,287.1,123z"/>
	</g>
	<g>
		<path fill="#A7A8AA" d="M589,116.7c1.1,1.9,1.7,4.1,1.7,6.4c0,2.3-0.6,4.4-1.7,6.4c-1.1,1.9-2.7,3.5-4.6,4.6
			c-1.9,1.1-4.1,1.7-6.4,1.7c-2.3,0-4.4-0.6-6.4-1.7c-1.9-1.1-3.5-2.7-4.6-4.6c-1.1-1.9-1.7-4.1-1.7-6.4c0-2.3,0.6-4.4,1.7-6.4
			c1.1-1.9,2.7-3.5,4.6-4.6c1.9-1.1,4.1-1.7,6.4-1.7c2.3,0,4.4,0.6,6.4,1.7C586.3,113.2,587.9,114.7,589,116.7z M586.6,123
			c0-0.3-0.1-0.5-0.3-0.7l-1.5-1.5l-6-6c-0.2-0.2-0.4-0.3-0.7-0.3c-0.3,0-0.5,0.1-0.7,0.3l-1.5,1.5c-0.2,0.2-0.3,0.4-0.3,0.7
			c0,0.3,0.1,0.5,0.3,0.7l3.1,3.1h-8.3c-0.3,0-0.5,0.1-0.7,0.3c-0.2,0.2-0.3,0.5-0.3,0.7v2.1c0,0.3,0.1,0.5,0.3,0.7
			c0.2,0.2,0.5,0.3,0.7,0.3h8.3l-3.1,3.1c-0.2,0.2-0.3,0.5-0.3,0.7c0,0.3,0.1,0.5,0.3,0.7l1.5,1.5c0.2,0.2,0.4,0.3,0.7,0.3
			c0.3,0,0.5-0.1,0.7-0.3l6-6l1.5-1.5C586.5,123.6,586.6,123.3,586.6,123z"/>
	</g>
	<g>
		<path fill="#A7A8AA" d="M888.5,116.7c1.1,1.9,1.7,4.1,1.7,6.4c0,2.3-0.6,4.4-1.7,6.4c-1.1,1.9-2.7,3.5-4.6,4.6
			c-1.9,1.1-4.1,1.7-6.4,1.7c-2.3,0-4.4-0.6-6.4-1.7c-1.9-1.1-3.5-2.7-4.6-4.6c-1.1-1.9-1.7-4.1-1.7-6.4c0-2.3,0.6-4.4,1.7-6.4
			c1.1-1.9,2.7-3.5,4.6-4.6c1.9-1.1,4.1-1.7,6.4-1.7c2.3,0,4.4,0.6,6.4,1.7C885.9,113.2,887.4,114.7,888.5,116.7z M886.1,123
			c0-0.3-0.1-0.5-0.3-0.7l-1.5-1.5l-6-6c-0.2-0.2-0.4-0.3-0.7-0.3c-0.3,0-0.5,0.1-0.7,0.3l-1.5,1.5c-0.2,0.2-0.3,0.4-0.3,0.7
			c0,0.3,0.1,0.5,0.3,0.7l3.1,3.1h-8.3c-0.3,0-0.5,0.1-0.7,0.3c-0.2,0.2-0.3,0.5-0.3,0.7v2.1c0,0.3,0.1,0.5,0.3,0.7
			c0.2,0.2,0.5,0.3,0.7,0.3h8.3l-3.1,3.1c-0.2,0.2-0.3,0.5-0.3,0.7c0,0.3,0.1,0.5,0.3,0.7l1.5,1.5c0.2,0.2,0.4,0.3,0.7,0.3
			c0.3,0,0.5-0.1,0.7-0.3l6-6l1.5-1.5C886,123.6,886.1,123.3,886.1,123z"/>
	</g>
</g>
<g id="Single_Page" display="none">
	<rect x="-3.6" y="-5.1" display="inline" fill="#EFEFEF" stroke="#63666A" stroke-miterlimit="10" width="230.5" height="553.8"/>
	<rect x="-3.6" y="-5.1" display="inline" fill="#004C97" width="230.5" height="23.2"/>
	<g display="inline">
		<path fill="#FFFFFF" d="M18.1,7.4c0,2.3-1.1,3.5-3.2,3.5c-2.1,0-3.1-1.1-3.1-3.4V3h1.7v4.5c0,1.2,0.5,1.9,1.5,1.9
			c1,0,1.4-0.6,1.4-1.8V3h1.7V7.4z"/>
		<path fill="#FFFFFF" d="M19.5,10.4V8.7c0.3,0.3,0.7,0.5,1,0.6s0.7,0.2,1.1,0.2c0.2,0,0.4,0,0.6-0.1c0.2,0,0.3-0.1,0.4-0.2
			c0.1-0.1,0.2-0.2,0.2-0.2c0.1-0.1,0.1-0.2,0.1-0.3c0-0.2,0-0.3-0.1-0.4c-0.1-0.1-0.2-0.2-0.4-0.3c-0.1-0.1-0.3-0.2-0.5-0.3
			c-0.2-0.1-0.4-0.2-0.7-0.3c-0.6-0.3-1.1-0.6-1.3-0.9c-0.3-0.4-0.4-0.8-0.4-1.3c0-0.4,0.1-0.7,0.2-1c0.2-0.3,0.4-0.5,0.7-0.7
			c0.3-0.2,0.6-0.3,1-0.4c0.4-0.1,0.8-0.1,1.2-0.1c0.4,0,0.8,0,1.1,0.1s0.6,0.1,0.9,0.2v1.6c-0.1-0.1-0.3-0.2-0.4-0.2
			c-0.2-0.1-0.3-0.1-0.5-0.2S23.2,4.3,23,4.3c-0.2,0-0.3,0-0.5,0c-0.2,0-0.4,0-0.5,0.1s-0.3,0.1-0.4,0.2c-0.1,0.1-0.2,0.1-0.3,0.2
			c-0.1,0.1-0.1,0.2-0.1,0.3c0,0.1,0,0.2,0.1,0.3c0.1,0.1,0.2,0.2,0.3,0.3c0.1,0.1,0.3,0.2,0.5,0.3s0.4,0.2,0.6,0.3
			c0.3,0.1,0.6,0.3,0.8,0.4c0.2,0.1,0.5,0.3,0.6,0.5c0.2,0.2,0.3,0.4,0.4,0.6c0.1,0.2,0.1,0.5,0.1,0.8c0,0.4-0.1,0.8-0.2,1.1
			c-0.2,0.3-0.4,0.5-0.7,0.7c-0.3,0.2-0.6,0.3-1,0.4c-0.4,0.1-0.8,0.1-1.2,0.1c-0.4,0-0.8,0-1.2-0.1C20.1,10.7,19.7,10.6,19.5,10.4z
			"/>
		<path fill="#FFFFFF" d="M27.7,8.1v2.7H26V3h2.7c1.9,0,2.9,0.8,2.9,2.5c0,0.8-0.3,1.4-0.8,1.9c-0.6,0.5-1.3,0.7-2.2,0.7H27.7z
			 M27.7,4.4v2.4h0.7c0.9,0,1.4-0.4,1.4-1.2c0-0.8-0.5-1.2-1.4-1.2H27.7z"/>
		<path fill="#FFFFFF" d="M38.2,4.4H36v6.3h-1.7V4.4H32V3h6.1V4.4z"/>
		<path fill="#FFFFFF" d="M42,10.9c-1.1,0-2-0.4-2.7-1.1c-0.7-0.7-1-1.7-1-2.8c0-1.2,0.4-2.2,1.1-3c0.7-0.8,1.6-1.1,2.8-1.1
			c1.1,0,2,0.4,2.7,1.1c0.7,0.7,1,1.7,1,2.8c0,1.2-0.4,2.2-1.1,2.9C44.1,10.5,43.2,10.9,42,10.9z M42.1,4.4c-0.6,0-1.1,0.2-1.5,0.7
			c-0.4,0.5-0.5,1.1-0.5,1.8c0,0.8,0.2,1.4,0.5,1.8c0.4,0.4,0.8,0.7,1.4,0.7c0.6,0,1.1-0.2,1.4-0.6c0.4-0.4,0.5-1,0.5-1.8
			c0-0.8-0.2-1.4-0.5-1.9C43.2,4.6,42.7,4.4,42.1,4.4z"/>
	</g>
	<rect x="9.4" y="30.6" display="inline" fill="#FFFFFF" stroke="#A7A8AA" stroke-miterlimit="10" width="204.4" height="100.6"/>
	<rect x="9.4" y="142.6" display="inline" fill="#FFFFFF" stroke="#A7A8AA" stroke-miterlimit="10" width="204.4" height="130"/>
	<rect x="9.4" y="291.3" display="inline" fill="#FFFFFF" stroke="#A7A8AA" stroke-miterlimit="10" width="204.4" height="100.6"/>
	<rect x="9.4" y="406" display="inline" fill="#FFFFFF" stroke="#A7A8AA" stroke-miterlimit="10" width="204.4" height="100.6"/>
	<rect x="136.1" y="517.4" display="inline" fill="#004C97" width="77.7" height="16.7"/>
	<rect x="15.9" y="35.8" display="inline" fill="#009CDE" width="192" height="13"/>
	<rect x="15.9" y="148.9" display="inline" fill="#009CDE" width="192" height="13"/>
	<rect x="15.9" y="298.4" display="inline" fill="#009CDE" width="192" height="13"/>
	<rect x="15.9" y="410.7" display="inline" fill="#009CDE" width="192" height="13"/>
	<rect x="23.1" y="70" display="inline" fill="#E8E8E8" width="179.7" height="14.6"/>
	<rect x="22.7" y="60.8" display="inline" fill="#A7A8AA" width="91.2" height="4.9"/>
	<rect x="23.3" y="104.1" display="inline" fill="#E8E8E8" width="177.7" height="14.6"/>
	<rect x="23.4" y="94.9" display="inline" fill="#A7A8AA" width="55.7" height="4.9"/>
	<rect x="22.3" y="328" display="inline" fill="#E8E8E8" width="177.7" height="52.4"/>
	<rect x="22.4" y="318.8" display="inline" fill="#A7A8AA" width="55.7" height="4.9"/>
	<rect x="36.1" y="182.3" display="inline" fill="#E8E8E8" width="77.9" height="5.3"/>
	<rect x="22.4" y="169.4" display="inline" fill="#A7A8AA" width="55.7" height="4.9"/>
	<circle display="inline" fill="#004C97" cx="26.2" cy="184.8" r="4.4"/>
	<rect x="35.6" y="196.7" display="inline" fill="#E8E8E8" width="56.8" height="5.3"/>
	<circle display="inline" fill="#E8E8E8" cx="26.2" cy="199.3" r="4.4"/>
	<rect x="35.2" y="211.4" display="inline" fill="#E8E8E8" width="108.4" height="5.3"/>
	<circle display="inline" fill="#E8E8E8" cx="26.2" cy="213.9" r="4.4"/>
	<rect x="35.2" y="445.2" display="inline" fill="#E8E8E8" width="77.9" height="5.3"/>
	<rect x="21.5" y="432.4" display="inline" fill="#A7A8AA" width="55.7" height="4.9"/>
	<rect x="34.7" y="459.7" display="inline" fill="#E8E8E8" width="56.8" height="5.3"/>
	<rect x="34.3" y="474.4" display="inline" fill="#E8E8E8" width="108.4" height="5.3"/>
	<rect x="34.3" y="489.5" display="inline" fill="#E8E8E8" width="35.9" height="5.3"/>
	<rect x="22.4" y="443.4" display="inline" fill="#004C97" width="8.7" height="8.7"/>
	<rect x="22.4" y="458" display="inline" fill="#E8E8E8" width="8.7" height="8.7"/>
	<rect x="22.3" y="472.7" display="inline" fill="#E8E8E8" width="8.7" height="8.7"/>
	<rect x="22.4" y="487.8" display="inline" fill="#E8E8E8" width="8.7" height="8.7"/>
	<rect x="22.5" y="243.8" display="inline" fill="#E8E8E8" width="179.7" height="14.6"/>
	<rect x="22.1" y="234.6" display="inline" fill="#A7A8AA" width="91.2" height="4.9"/>
</g>
</svg>
