<?xml version="1.0" encoding="utf-8"?>
<!-- Generator: Adobe Illustrator 18.0.0, SVG Export Plug-In . SVG Version: 6.00 Build 0)  -->
<!DOCTYPE svg PUBLIC "-//W3C//DTD SVG 1.1//EN" "http://www.w3.org/Graphics/SVG/1.1/DTD/svg11.dtd">
<svg version="1.1" xmlns="http://www.w3.org/2000/svg" xmlns:xlink="http://www.w3.org/1999/xlink" x="0px" y="0px"
	 viewBox="0 0 1156.1 537.5" enable-background="new 0 0 1156.1 537.5" xml:space="preserve">
<g id="Hybrid">
	<rect x="0.5" y="0.9" fill="#EFEFEF" stroke="#63666A" stroke-miterlimit="10" width="256.5" height="244.3"/>
	<rect x="0.5" y="1.1" fill="#004C97" width="255.9" height="23.2"/>
	<g>
		<path fill="#FFFFFF" d="M16.1,13.7c0,2.5-1.2,3.8-3.5,3.8c-2.3,0-3.4-1.2-3.4-3.7V8.9h1.9v4.9c0,1.4,0.5,2,1.6,2
			c1,0,1.6-0.7,1.6-2V8.9h1.9V13.7z"/>
		<path fill="#FFFFFF" d="M17.6,17v-1.9c0.3,0.3,0.7,0.5,1.1,0.6s0.8,0.2,1.2,0.2c0.2,0,0.4,0,0.6-0.1s0.3-0.1,0.4-0.2
			s0.2-0.2,0.3-0.3s0.1-0.2,0.1-0.3c0-0.2,0-0.3-0.1-0.4s-0.2-0.2-0.4-0.4s-0.4-0.2-0.6-0.3s-0.5-0.2-0.7-0.3
			c-0.7-0.3-1.1-0.6-1.5-1s-0.5-0.9-0.5-1.4c0-0.4,0.1-0.8,0.3-1.1s0.4-0.6,0.7-0.8S19.2,9,19.6,9s0.8-0.1,1.3-0.1
			c0.4,0,0.8,0,1.2,0.1s0.6,0.1,0.9,0.2v1.8c-0.1-0.1-0.3-0.2-0.5-0.3s-0.3-0.1-0.5-0.2s-0.4-0.1-0.5-0.1s-0.3,0-0.5,0
			c-0.2,0-0.4,0-0.6,0.1s-0.3,0.1-0.4,0.2s-0.2,0.2-0.3,0.3s-0.1,0.2-0.1,0.3c0,0.1,0,0.3,0.1,0.4s0.2,0.2,0.3,0.3s0.3,0.2,0.5,0.3
			s0.4,0.2,0.7,0.3c0.3,0.1,0.6,0.3,0.9,0.4s0.5,0.3,0.7,0.5s0.3,0.4,0.4,0.7s0.2,0.6,0.2,0.9c0,0.5-0.1,0.9-0.3,1.2
			c-0.2,0.3-0.4,0.6-0.7,0.8s-0.7,0.3-1.1,0.4s-0.8,0.1-1.3,0.1c-0.5,0-0.9,0-1.3-0.1S17.9,17.2,17.6,17z"/>
		<path fill="#FFFFFF" d="M26.6,14.5v2.9h-1.9V8.9h3c2.1,0,3.2,0.9,3.2,2.7c0,0.8-0.3,1.5-0.9,2s-1.4,0.8-2.4,0.8H26.6z M26.6,10.4
			V13h0.7c1,0,1.5-0.4,1.5-1.3c0-0.9-0.5-1.3-1.5-1.3H26.6z"/>
		<path fill="#FFFFFF" d="M38,10.5h-2.4v6.9h-1.9v-6.9h-2.4V8.9H38V10.5z"/>
		<path fill="#FFFFFF" d="M42.2,17.5c-1.2,0-2.2-0.4-2.9-1.2c-0.8-0.8-1.1-1.8-1.1-3.1c0-1.3,0.4-2.4,1.2-3.2s1.8-1.2,3.1-1.2
			c1.2,0,2.2,0.4,2.9,1.2s1.1,1.8,1.1,3.1c0,1.3-0.4,2.4-1.2,3.2C44.4,17.1,43.4,17.5,42.2,17.5z M42.3,10.4c-0.7,0-1.2,0.2-1.6,0.7
			s-0.6,1.2-0.6,2c0,0.8,0.2,1.5,0.6,2s0.9,0.7,1.5,0.7c0.7,0,1.2-0.2,1.6-0.7s0.6-1.1,0.6-2c0-0.9-0.2-1.5-0.6-2
			S42.9,10.4,42.3,10.4z"/>
	</g>
	<rect x="12.3" y="72.3" fill="#FFFFFF" stroke="#A7A8AA" stroke-miterlimit="10" width="233.6" height="157"/>
	<rect x="19.1" y="78" fill="#009CDE" width="219.3" height="14.1"/>
	<rect x="26.8" y="111.2" fill="#E8E8E8" width="204.6" height="15.9"/>
	<rect x="169.7" y="206.4" fill="#004C97" width="62" height="15.8"/>
	<rect x="26.3" y="101.2" fill="#A7A8AA" width="96.2" height="5.3"/>
	<rect x="26.9" y="144.4" fill="#E8E8E8" width="205.5" height="15.9"/>
	<rect x="27" y="134.4" fill="#A7A8AA" width="58.7" height="5.3"/>
	<rect x="26.9" y="180.1" fill="#E8E8E8" width="205.5" height="15.9"/>
	<rect x="27" y="170.1" fill="#A7A8AA" width="85.2" height="5.3"/>
	<rect x="300" y="0.8" fill="#EFEFEF" stroke="#63666A" stroke-miterlimit="10" width="256.5" height="536.2"/>
	<rect x="300" y="0.8" fill="#004C97" width="255.9" height="23.2"/>
	<g>
		<path fill="#FFFFFF" d="M315.6,13.4c0,2.5-1.2,3.8-3.5,3.8c-2.3,0-3.4-1.2-3.4-3.7V8.6h1.9v4.9c0,1.4,0.5,2,1.6,2
			c1,0,1.6-0.7,1.6-2V8.6h1.9V13.4z"/>
		<path fill="#FFFFFF" d="M317.1,16.7v-1.9c0.3,0.3,0.7,0.5,1.1,0.6s0.8,0.2,1.2,0.2c0.2,0,0.4,0,0.6-0.1s0.3-0.1,0.4-0.2
			s0.2-0.2,0.3-0.3s0.1-0.2,0.1-0.3c0-0.2,0-0.3-0.1-0.4s-0.2-0.2-0.4-0.4s-0.4-0.2-0.6-0.3s-0.5-0.2-0.7-0.3
			c-0.7-0.3-1.1-0.6-1.5-1s-0.5-0.9-0.5-1.4c0-0.4,0.1-0.8,0.3-1.1s0.4-0.6,0.7-0.8s0.7-0.4,1.1-0.4s0.8-0.1,1.3-0.1
			c0.4,0,0.8,0,1.2,0.1s0.6,0.1,0.9,0.2v1.8c-0.1-0.1-0.3-0.2-0.5-0.3s-0.3-0.1-0.5-0.2S321.1,10,321,10s-0.3,0-0.5,0
			c-0.2,0-0.4,0-0.6,0.1s-0.3,0.1-0.4,0.2s-0.2,0.2-0.3,0.3s-0.1,0.2-0.1,0.3c0,0.1,0,0.3,0.1,0.4s0.2,0.2,0.3,0.3s0.3,0.2,0.5,0.3
			s0.4,0.2,0.7,0.3c0.3,0.1,0.6,0.3,0.9,0.4s0.5,0.3,0.7,0.5s0.3,0.4,0.4,0.7s0.2,0.6,0.2,0.9c0,0.5-0.1,0.9-0.3,1.2
			c-0.2,0.3-0.4,0.6-0.7,0.8s-0.7,0.3-1.1,0.4s-0.8,0.1-1.3,0.1c-0.5,0-0.9,0-1.3-0.1S317.4,16.9,317.1,16.7z"/>
		<path fill="#FFFFFF" d="M326.1,14.1V17h-1.9V8.6h3c2.1,0,3.2,0.9,3.2,2.7c0,0.8-0.3,1.5-0.9,2s-1.4,0.8-2.4,0.8H326.1z
			 M326.1,10.1v2.6h0.7c1,0,1.5-0.4,1.5-1.3c0-0.9-0.5-1.3-1.5-1.3H326.1z"/>
		<path fill="#FFFFFF" d="M337.5,10.2h-2.4V17h-1.9v-6.9h-2.4V8.6h6.7V10.2z"/>
		<path fill="#FFFFFF" d="M341.7,17.2c-1.2,0-2.2-0.4-2.9-1.2c-0.8-0.8-1.1-1.8-1.1-3.1c0-1.3,0.4-2.4,1.2-3.2s1.8-1.2,3.1-1.2
			c1.2,0,2.2,0.4,2.9,1.2s1.1,1.8,1.1,3.1c0,1.3-0.4,2.4-1.2,3.2C343.9,16.8,342.9,17.2,341.7,17.2z M341.8,10.1
			c-0.7,0-1.2,0.2-1.6,0.7s-0.6,1.2-0.6,2c0,0.8,0.2,1.5,0.6,2s0.9,0.7,1.5,0.7c0.7,0,1.2-0.2,1.6-0.7s0.6-1.1,0.6-2
			c0-0.9-0.2-1.5-0.6-2S342.4,10.1,341.8,10.1z"/>
	</g>
	<rect x="311.8" y="71.9" fill="#FFFFFF" stroke="#A7A8AA" stroke-miterlimit="10" width="233.6" height="140.4"/>
	<rect x="318.6" y="77.7" fill="#009CDE" width="219.3" height="14.1"/>
	<rect x="482.5" y="507.1" fill="#004C97" width="62" height="15.8"/>
	<g>
		<rect x="344.5" y="118.9" fill="#E8E8E8" width="84.9" height="5.8"/>
		<rect x="329.5" y="104.9" fill="#A7A8AA" width="60.7" height="5.3"/>
		<circle fill="#004C97" cx="334.3" cy="121.6" r="4.8"/>
		<rect x="343.9" y="134.6" fill="#E8E8E8" width="61.9" height="5.8"/>
		<circle fill="#E8E8E8" cx="333.7" cy="137.4" r="4.8"/>
		<rect x="343.5" y="150.6" fill="#E8E8E8" width="118.1" height="5.8"/>
		<circle fill="#E8E8E8" cx="333.3" cy="153.4" r="4.8"/>
		<rect x="343.5" y="167.1" fill="#E8E8E8" width="39.1" height="5.8"/>
		<circle fill="#E8E8E8" cx="333.3" cy="169.9" r="4.8"/>
	</g>
	<rect x="599.5" y="1.4" fill="#EFEFEF" stroke="#63666A" stroke-miterlimit="10" width="256.5" height="246.9"/>
	<rect x="599.5" y="1.5" fill="#004C97" width="255.9" height="23.2"/>
	<g>
		<path fill="#FFFFFF" d="M615.2,14c0,2.5-1.2,3.8-3.5,3.8c-2.3,0-3.4-1.2-3.4-3.7V9.3h1.9v4.9c0,1.4,0.5,2,1.6,2c1,0,1.6-0.7,1.6-2
			V9.3h1.9V14z"/>
		<path fill="#FFFFFF" d="M616.6,17.4v-1.9c0.3,0.3,0.7,0.5,1.1,0.6c0.4,0.1,0.8,0.2,1.2,0.2c0.2,0,0.4,0,0.6-0.1s0.3-0.1,0.4-0.2
			s0.2-0.2,0.3-0.3s0.1-0.2,0.1-0.3c0-0.2,0-0.3-0.1-0.4s-0.2-0.2-0.4-0.4s-0.4-0.2-0.6-0.3s-0.5-0.2-0.7-0.3
			c-0.7-0.3-1.1-0.6-1.5-1s-0.5-0.9-0.5-1.4c0-0.4,0.1-0.8,0.3-1.1s0.4-0.6,0.7-0.8s0.7-0.4,1.1-0.4s0.8-0.1,1.3-0.1
			c0.4,0,0.8,0,1.2,0.1s0.6,0.1,0.9,0.2v1.8c-0.1-0.1-0.3-0.2-0.5-0.3s-0.3-0.1-0.5-0.2s-0.4-0.1-0.5-0.1s-0.3,0-0.5,0
			c-0.2,0-0.4,0-0.6,0.1s-0.3,0.1-0.4,0.2s-0.2,0.2-0.3,0.3s-0.1,0.2-0.1,0.3c0,0.1,0,0.3,0.1,0.4s0.2,0.2,0.3,0.3s0.3,0.2,0.5,0.3
			s0.4,0.2,0.7,0.3c0.3,0.1,0.6,0.3,0.9,0.4s0.5,0.3,0.7,0.5s0.3,0.4,0.4,0.7s0.2,0.6,0.2,0.9c0,0.5-0.1,0.9-0.3,1.2
			s-0.4,0.6-0.7,0.8s-0.7,0.3-1.1,0.4s-0.8,0.1-1.3,0.1c-0.5,0-0.9,0-1.3-0.1S616.9,17.5,616.6,17.4z"/>
		<path fill="#FFFFFF" d="M625.6,14.8v2.9h-1.9V9.3h3c2.1,0,3.2,0.9,3.2,2.7c0,0.8-0.3,1.5-0.9,2s-1.4,0.8-2.4,0.8H625.6z
			 M625.6,10.7v2.6h0.7c1,0,1.5-0.4,1.5-1.3c0-0.9-0.5-1.3-1.5-1.3H625.6z"/>
		<path fill="#FFFFFF" d="M637,10.8h-2.4v6.9h-1.9v-6.9h-2.4V9.3h6.7V10.8z"/>
		<path fill="#FFFFFF" d="M641.2,17.8c-1.2,0-2.2-0.4-2.9-1.2c-0.8-0.8-1.1-1.8-1.1-3.1c0-1.3,0.4-2.4,1.2-3.2s1.8-1.2,3.1-1.2
			c1.2,0,2.2,0.4,2.9,1.2s1.1,1.8,1.1,3.1c0,1.3-0.4,2.4-1.2,3.2C643.5,17.4,642.5,17.8,641.2,17.8z M641.3,10.8
			c-0.7,0-1.2,0.2-1.6,0.7s-0.6,1.2-0.6,2c0,0.8,0.2,1.5,0.6,2s0.9,0.7,1.5,0.7c0.7,0,1.2-0.2,1.6-0.7s0.6-1.1,0.6-2
			c0-0.9-0.2-1.5-0.6-2S642,10.8,641.3,10.8z"/>
	</g>
	<rect x="611.4" y="71.6" fill="#FFFFFF" stroke="#A7A8AA" stroke-miterlimit="10" width="233.6" height="157"/>
	<rect x="618.1" y="77.4" fill="#009CDE" width="219.3" height="14.1"/>
	<rect x="768.7" y="205.8" fill="#004C97" width="62" height="15.8"/>
	<rect x="629.6" y="110.1" fill="#E8E8E8" width="193.7" height="57.1"/>
	<rect x="628.5" y="100.1" fill="#A7A8AA" width="60.7" height="5.3"/>
	<rect x="899" y="0.5" fill="#EFEFEF" stroke="#63666A" stroke-miterlimit="10" width="256.5" height="248.5"/>
	<rect x="899" y="0.8" fill="#004C97" width="255.9" height="23.2"/>
	<g>
		<path fill="#FFFFFF" d="M914.7,13.4c0,2.5-1.2,3.8-3.5,3.8c-2.3,0-3.4-1.2-3.4-3.7V8.6h1.9v4.9c0,1.4,0.5,2,1.6,2
			c1,0,1.6-0.7,1.6-2V8.6h1.9V13.4z"/>
		<path fill="#FFFFFF" d="M916.1,16.7v-1.9c0.3,0.3,0.7,0.5,1.1,0.6s0.8,0.2,1.2,0.2c0.2,0,0.4,0,0.6-0.1s0.3-0.1,0.4-0.2
			s0.2-0.2,0.3-0.3s0.1-0.2,0.1-0.3c0-0.2,0-0.3-0.1-0.4s-0.2-0.2-0.4-0.4s-0.4-0.2-0.6-0.3s-0.5-0.2-0.7-0.3
			c-0.7-0.3-1.1-0.6-1.5-1s-0.5-0.9-0.5-1.4c0-0.4,0.1-0.8,0.3-1.1s0.4-0.6,0.7-0.8s0.7-0.4,1.1-0.4s0.8-0.1,1.3-0.1
			c0.4,0,0.8,0,1.2,0.1s0.6,0.1,0.9,0.2v1.8c-0.1-0.1-0.3-0.2-0.5-0.3s-0.3-0.1-0.5-0.2S920.2,10,920,10s-0.3,0-0.5,0
			c-0.2,0-0.4,0-0.6,0.1s-0.3,0.1-0.4,0.2s-0.2,0.2-0.3,0.3s-0.1,0.2-0.1,0.3c0,0.1,0,0.3,0.1,0.4s0.2,0.2,0.3,0.3s0.3,0.2,0.5,0.3
			s0.4,0.2,0.7,0.3c0.3,0.1,0.6,0.3,0.9,0.4s0.5,0.3,0.7,0.5s0.3,0.4,0.4,0.7s0.2,0.6,0.2,0.9c0,0.5-0.1,0.9-0.3,1.2
			c-0.2,0.3-0.4,0.6-0.7,0.8s-0.7,0.3-1.1,0.4s-0.8,0.1-1.3,0.1c-0.5,0-0.9,0-1.3-0.1S916.4,16.9,916.1,16.7z"/>
		<path fill="#FFFFFF" d="M925.1,14.1V17h-1.9V8.6h3c2.1,0,3.2,0.9,3.2,2.7c0,0.8-0.3,1.5-0.9,2s-1.4,0.8-2.4,0.8H925.1z
			 M925.1,10.1v2.6h0.7c1,0,1.5-0.4,1.5-1.3c0-0.9-0.5-1.3-1.5-1.3H925.1z"/>
		<path fill="#FFFFFF" d="M936.5,10.2h-2.4V17h-1.9v-6.9h-2.4V8.6h6.7V10.2z"/>
		<path fill="#FFFFFF" d="M940.7,17.2c-1.2,0-2.2-0.4-2.9-1.2c-0.8-0.8-1.1-1.8-1.1-3.1c0-1.3,0.4-2.4,1.2-3.2s1.8-1.2,3.1-1.2
			c1.2,0,2.2,0.4,2.9,1.2s1.1,1.8,1.1,3.1c0,1.3-0.4,2.4-1.2,3.2C943,16.8,942,17.2,940.7,17.2z M940.8,10.1c-0.7,0-1.2,0.2-1.6,0.7
			s-0.6,1.2-0.6,2c0,0.8,0.2,1.5,0.6,2s0.9,0.7,1.5,0.7c0.7,0,1.2-0.2,1.6-0.7s0.6-1.1,0.6-2c0-0.9-0.2-1.5-0.6-2
			S941.5,10.1,940.8,10.1z"/>
	</g>
	<rect x="910.9" y="72.9" fill="#FFFFFF" stroke="#A7A8AA" stroke-miterlimit="10" width="233.6" height="157"/>
	<rect x="917.7" y="78.7" fill="#009CDE" width="219.3" height="14.1"/>
	<rect x="1068.2" y="207.1" fill="#004C97" width="62" height="15.8"/>
	<rect x="943.5" y="116.1" fill="#E8E8E8" width="108.4" height="5.8"/>
	<rect x="928.5" y="102.1" fill="#A7A8AA" width="60.7" height="5.3"/>
	<rect x="942.9" y="131.8" fill="#E8E8E8" width="61.9" height="5.8"/>
	<rect x="942.5" y="147.8" fill="#E8E8E8" width="163.6" height="5.8"/>
	<rect x="942.5" y="164.3" fill="#E8E8E8" width="30.7" height="5.8"/>
	<rect x="929.5" y="114.1" fill="#004C97" width="9.5" height="9.5"/>
	<rect x="929.5" y="130" fill="#E8E8E8" width="9.5" height="9.5"/>
	<rect x="929.4" y="146" fill="#E8E8E8" width="9.5" height="9.5"/>
	<rect x="929.5" y="162.5" fill="#E8E8E8" width="9.5" height="9.5"/>
	<path fill="#A7A8AA" d="M289.5,90.7c1.1,1.9,1.7,4.1,1.7,6.4c0,2.3-0.6,4.4-1.7,6.4c-1.1,1.9-2.7,3.5-4.6,4.6
		c-1.9,1.1-4.1,1.7-6.4,1.7c-2.3,0-4.4-0.6-6.4-1.7c-1.9-1.1-3.5-2.7-4.6-4.6c-1.1-1.9-1.7-4.1-1.7-6.4c0-2.3,0.6-4.4,1.7-6.4
		c1.1-1.9,2.7-3.5,4.6-4.6c1.9-1.1,4.1-1.7,6.4-1.7c2.3,0,4.4,0.6,6.4,1.7C286.8,87.2,288.4,88.8,289.5,90.7z M287.1,97.1
		c0-0.3-0.1-0.5-0.3-0.7l-1.5-1.5l-6-6c-0.2-0.2-0.4-0.3-0.7-0.3c-0.3,0-0.5,0.1-0.7,0.3l-1.5,1.5c-0.2,0.2-0.3,0.4-0.3,0.7
		c0,0.3,0.1,0.5,0.3,0.7l3.1,3.1h-8.3c-0.3,0-0.5,0.1-0.7,0.3c-0.2,0.2-0.3,0.5-0.3,0.7v2.1c0,0.3,0.1,0.5,0.3,0.7
		c0.2,0.2,0.5,0.3,0.7,0.3h8.3l-3.1,3.1c-0.2,0.2-0.3,0.5-0.3,0.7s0.1,0.5,0.3,0.7l1.5,1.5c0.2,0.2,0.4,0.3,0.7,0.3
		c0.3,0,0.5-0.1,0.7-0.3l6-6l1.5-1.5C287,97.6,287.1,97.4,287.1,97.1z"/>
	<path fill="#A7A8AA" d="M589,90.7c1.1,1.9,1.7,4.1,1.7,6.4c0,2.3-0.6,4.4-1.7,6.4c-1.1,1.9-2.7,3.5-4.6,4.6
		c-1.9,1.1-4.1,1.7-6.4,1.7c-2.3,0-4.4-0.6-6.4-1.7c-1.9-1.1-3.5-2.7-4.6-4.6c-1.1-1.9-1.7-4.1-1.7-6.4c0-2.3,0.6-4.4,1.7-6.4
		c1.1-1.9,2.7-3.5,4.6-4.6c1.9-1.1,4.1-1.7,6.4-1.7c2.3,0,4.4,0.6,6.4,1.7C586.3,87.2,587.9,88.8,589,90.7z M586.6,97.1
		c0-0.3-0.1-0.5-0.3-0.7l-1.5-1.5l-6-6c-0.2-0.2-0.4-0.3-0.7-0.3c-0.3,0-0.5,0.1-0.7,0.3l-1.5,1.5c-0.2,0.2-0.3,0.4-0.3,0.7
		c0,0.3,0.1,0.5,0.3,0.7l3.1,3.1h-8.3c-0.3,0-0.5,0.1-0.7,0.3c-0.2,0.2-0.3,0.5-0.3,0.7v2.1c0,0.3,0.1,0.5,0.3,0.7
		c0.2,0.2,0.5,0.3,0.7,0.3h8.3l-3.1,3.1c-0.2,0.2-0.3,0.5-0.3,0.7s0.1,0.5,0.3,0.7l1.5,1.5c0.2,0.2,0.4,0.3,0.7,0.3
		c0.3,0,0.5-0.1,0.7-0.3l6-6l1.5-1.5C586.5,97.6,586.6,97.4,586.6,97.1z"/>
	<path fill="#A7A8AA" d="M888.5,90.7c1.1,1.9,1.7,4.1,1.7,6.4c0,2.3-0.6,4.4-1.7,6.4c-1.1,1.9-2.7,3.5-4.6,4.6
		c-1.9,1.1-4.1,1.7-6.4,1.7c-2.3,0-4.4-0.6-6.4-1.7c-1.9-1.1-3.5-2.7-4.6-4.6c-1.1-1.9-1.7-4.1-1.7-6.4c0-2.3,0.6-4.4,1.7-6.4
		c1.1-1.9,2.7-3.5,4.6-4.6c1.9-1.1,4.1-1.7,6.4-1.7c2.3,0,4.4,0.6,6.4,1.7C885.9,87.2,887.4,88.8,888.5,90.7z M886.1,97.1
		c0-0.3-0.1-0.5-0.3-0.7l-1.5-1.5l-6-6c-0.2-0.2-0.4-0.3-0.7-0.3c-0.3,0-0.5,0.1-0.7,0.3l-1.5,1.5c-0.2,0.2-0.3,0.4-0.3,0.7
		c0,0.3,0.1,0.5,0.3,0.7l3.1,3.1h-8.3c-0.3,0-0.5,0.1-0.7,0.3c-0.2,0.2-0.3,0.5-0.3,0.7v2.1c0,0.3,0.1,0.5,0.3,0.7
		c0.2,0.2,0.5,0.3,0.7,0.3h8.3l-3.1,3.1c-0.2,0.2-0.3,0.5-0.3,0.7s0.1,0.5,0.3,0.7l1.5,1.5c0.2,0.2,0.4,0.3,0.7,0.3
		c0.3,0,0.5-0.1,0.7-0.3l6-6l1.5-1.5C886,97.6,886.1,97.4,886.1,97.1z"/>
	<g>
		<polygon fill="#D9D9D6" stroke="#FFFFFF" stroke-miterlimit="10" points="246.5,55.8 187.1,55.8 187.1,40.2 246.5,40.2 246.5,48 
					"/>
		<polygon fill="#D9D9D6" stroke="#FFFFFF" stroke-miterlimit="10" points="188.3,55.8 129,55.8 129,40.2 188.3,40.2 196.3,48 		"/>
		<polygon fill="#D9D9D6" stroke="#FFFFFF" stroke-miterlimit="10" points="130.5,55.8 71.1,55.8 71.1,40.2 130.5,40.2 138.4,48 		
			"/>
		<polygon fill="#003865" stroke="#FFFFFF" stroke-miterlimit="10" points="72.2,55.8 12.8,55.8 12.8,40.2 72.2,40.2 80.1,48 		"/>
	</g>
	<rect x="311.8" y="227.5" fill="#FFFFFF" stroke="#A7A8AA" stroke-miterlimit="10" width="233.6" height="119.7"/>
	<rect x="318.6" y="233.2" fill="#009CDE" width="219.3" height="14.1"/>
	<rect x="330.1" y="265.9" fill="#E8E8E8" width="193.7" height="57.1"/>
	<rect x="329" y="255.9" fill="#A7A8AA" width="60.7" height="5.3"/>
	<g>
		<rect x="311.8" y="365.6" fill="#FFFFFF" stroke="#A7A8AA" stroke-miterlimit="10" width="233.6" height="126.4"/>
		<rect x="318.6" y="371.4" fill="#009CDE" width="219.3" height="14.1"/>
		<rect x="344.5" y="408.8" fill="#E8E8E8" width="108.4" height="5.8"/>
		<rect x="329.5" y="394.8" fill="#A7A8AA" width="60.7" height="5.3"/>
		<rect x="343.9" y="424.5" fill="#E8E8E8" width="61.9" height="5.8"/>
		<rect x="343.5" y="440.5" fill="#E8E8E8" width="163.6" height="5.8"/>
		<rect x="343.5" y="457" fill="#E8E8E8" width="30.7" height="5.8"/>
		<rect x="330.5" y="406.8" fill="#004C97" width="9.5" height="9.5"/>
		<rect x="330.5" y="422.7" fill="#E8E8E8" width="9.5" height="9.5"/>
		<rect x="330.4" y="438.7" fill="#E8E8E8" width="9.5" height="9.5"/>
		<rect x="330.5" y="455.2" fill="#E8E8E8" width="9.5" height="9.5"/>
	</g>
	<g>
		<polygon fill="#D9D9D6" stroke="#FFFFFF" stroke-miterlimit="10" points="544.8,55.8 485.4,55.8 485.4,40.2 544.8,40.2 544.8,48 
					"/>
		<polygon fill="#D9D9D6" stroke="#FFFFFF" stroke-miterlimit="10" points="486.6,55.8 427.3,55.8 427.3,40.2 486.6,40.2 494.6,48 
					"/>
		<polygon fill="#003865" stroke="#FFFFFF" stroke-miterlimit="10" points="428.8,55.8 369.4,55.8 369.4,40.2 428.8,40.2 436.7,48 
					"/>
		<polygon fill="#D9D9D6" stroke="#FFFFFF" stroke-miterlimit="10" points="370.5,55.8 311.1,55.8 311.1,40.2 370.5,40.2 378.4,48 
					"/>
	</g>
	<g>
		<polygon fill="#D9D9D6" stroke="#FFFFFF" stroke-miterlimit="10" points="844.6,57.4 785.3,57.4 785.3,41.8 844.6,41.8 
			844.6,49.6 		"/>
		<polygon fill="#003865" stroke="#FFFFFF" stroke-miterlimit="10" points="786.5,57.4 727.1,57.4 727.1,41.8 786.5,41.8 
			794.4,49.6 		"/>
		<polygon fill="#D9D9D6" stroke="#FFFFFF" stroke-miterlimit="10" points="728.6,57.4 669.2,57.4 669.2,41.8 728.6,41.8 
			736.5,49.6 		"/>
		<polygon fill="#D9D9D6" stroke="#FFFFFF" stroke-miterlimit="10" points="670.3,57.4 611,57.4 611,41.8 670.3,41.8 678.3,49.6 		
			"/>
	</g>
	<g>
		<polygon fill="#003865" stroke="#FFFFFF" stroke-miterlimit="10" points="1144.5,57.4 1085.2,57.4 1085.2,41.8 1144.5,41.8 
			1144.5,49.6 		"/>
		<polygon fill="#D9D9D6" stroke="#FFFFFF" stroke-miterlimit="10" points="1086.4,57.4 1027,57.4 1027,41.8 1086.4,41.8 
			1094.3,49.6 		"/>
		<polygon fill="#D9D9D6" stroke="#FFFFFF" stroke-miterlimit="10" points="1028.5,57.4 969.1,57.4 969.1,41.8 1028.5,41.8 
			1036.4,49.6 		"/>
		<polygon fill="#D9D9D6" stroke="#FFFFFF" stroke-miterlimit="10" points="970.2,57.4 910.9,57.4 910.9,41.8 970.2,41.8 
			978.2,49.6 		"/>
	</g>
</g>
<g id="Accordian_Form" display="none">
	<rect x="0.2" y="45.4" display="inline" fill="#EFEFEF" stroke="#63666A" stroke-miterlimit="10" width="256.5" height="217.7"/>
	<rect x="0.2" y="45.7" display="inline" fill="#004C97" width="255.9" height="23.2"/>
	<g display="inline">
		<path fill="#FFFFFF" d="M15.8,58.3c0,2.5-1.2,3.8-3.5,3.8c-2.3,0-3.4-1.2-3.4-3.7v-4.9h1.9v4.9c0,1.4,0.5,2,1.6,2
			c1,0,1.6-0.7,1.6-2v-4.9h1.9V58.3z"/>
		<path fill="#FFFFFF" d="M17.3,61.6v-1.9c0.3,0.3,0.7,0.5,1.1,0.6s0.8,0.2,1.2,0.2c0.2,0,0.4,0,0.6-0.1s0.3-0.1,0.4-0.2
			s0.2-0.2,0.3-0.3s0.1-0.2,0.1-0.3c0-0.2,0-0.3-0.1-0.4s-0.2-0.2-0.4-0.4s-0.4-0.2-0.6-0.3s-0.5-0.2-0.7-0.3
			c-0.7-0.3-1.1-0.6-1.5-1s-0.5-0.9-0.5-1.4c0-0.4,0.1-0.8,0.3-1.1s0.4-0.6,0.7-0.8s0.7-0.4,1.1-0.4s0.8-0.1,1.3-0.1
			c0.4,0,0.8,0,1.2,0.1s0.6,0.1,0.9,0.2v1.8c-0.1-0.1-0.3-0.2-0.5-0.3S21.8,55,21.7,55s-0.4-0.1-0.5-0.1s-0.3,0-0.5,0
			c-0.2,0-0.4,0-0.6,0.1s-0.3,0.1-0.4,0.2s-0.2,0.2-0.3,0.3s-0.1,0.2-0.1,0.3c0,0.1,0,0.3,0.1,0.4s0.2,0.2,0.3,0.3s0.3,0.2,0.5,0.3
			s0.4,0.2,0.7,0.3c0.3,0.1,0.6,0.3,0.9,0.4s0.5,0.3,0.7,0.5s0.3,0.4,0.4,0.7s0.2,0.6,0.2,0.9c0,0.5-0.1,0.9-0.3,1.2
			s-0.4,0.6-0.7,0.8s-0.7,0.3-1.1,0.4s-0.8,0.1-1.3,0.1c-0.5,0-0.9,0-1.3-0.1S17.6,61.7,17.3,61.6z"/>
		<path fill="#FFFFFF" d="M26.3,59v2.9h-1.9v-8.4h3c2.1,0,3.2,0.9,3.2,2.7c0,0.8-0.3,1.5-0.9,2S28.2,59,27.2,59H26.3z M26.3,55v2.6
			H27c1,0,1.5-0.4,1.5-1.3c0-0.9-0.5-1.3-1.5-1.3H26.3z"/>
		<path fill="#FFFFFF" d="M37.7,55h-2.4v6.9h-1.9V55H31v-1.5h6.7V55z"/>
		<path fill="#FFFFFF" d="M41.9,62.1c-1.2,0-2.2-0.4-2.9-1.2s-1.1-1.8-1.1-3.1c0-1.3,0.4-2.4,1.2-3.2s1.8-1.2,3.1-1.2
			c1.2,0,2.2,0.4,2.9,1.2s1.1,1.8,1.1,3.1c0,1.3-0.4,2.4-1.2,3.2S43.1,62.1,41.9,62.1z M42,55c-0.7,0-1.2,0.2-1.6,0.7
			s-0.6,1.2-0.6,2c0,0.8,0.2,1.5,0.6,2s0.9,0.7,1.5,0.7c0.7,0,1.2-0.2,1.6-0.7s0.6-1.1,0.6-2c0-0.9-0.2-1.5-0.6-2S42.6,55,42,55z"/>
	</g>
	<rect x="12" y="86.8" display="inline" fill="#FFFFFF" stroke="#A7A8AA" stroke-miterlimit="10" width="233.6" height="157"/>
	<rect x="18.8" y="92.6" display="inline" fill="#009CDE" width="219.3" height="14.1"/>
	<rect x="26.5" y="125.8" display="inline" fill="#E8E8E8" width="204.6" height="15.9"/>
	<rect x="169.4" y="221" display="inline" fill="#004C97" width="62" height="15.8"/>
	<rect x="26" y="115.8" display="inline" fill="#A7A8AA" width="96.2" height="5.3"/>
	<rect x="26.6" y="159" display="inline" fill="#E8E8E8" width="205.5" height="15.9"/>
	<rect x="26.7" y="149" display="inline" fill="#A7A8AA" width="58.7" height="5.3"/>
	<rect x="26.6" y="194.7" display="inline" fill="#E8E8E8" width="205.5" height="15.9"/>
	<rect x="26.7" y="184.7" display="inline" fill="#A7A8AA" width="85.2" height="5.3"/>
	<rect x="299.7" y="45.1" display="inline" fill="#EFEFEF" stroke="#63666A" stroke-miterlimit="10" width="256.5" height="234.4"/>
	<rect x="299.7" y="45.4" display="inline" fill="#004C97" width="255.9" height="23.2"/>
	<g display="inline">
		<path fill="#FFFFFF" d="M315.3,58c0,2.5-1.2,3.8-3.5,3.8c-2.3,0-3.4-1.2-3.4-3.7v-4.9h1.9v4.9c0,1.4,0.5,2,1.6,2
			c1,0,1.6-0.7,1.6-2v-4.9h1.9V58z"/>
		<path fill="#FFFFFF" d="M316.8,61.3v-1.9c0.3,0.3,0.7,0.5,1.1,0.6s0.8,0.2,1.2,0.2c0.2,0,0.4,0,0.6-0.1s0.3-0.1,0.4-0.2
			s0.2-0.2,0.3-0.3s0.1-0.2,0.1-0.3c0-0.2,0-0.3-0.1-0.4s-0.2-0.2-0.4-0.4s-0.4-0.2-0.6-0.3s-0.5-0.2-0.7-0.3
			c-0.7-0.3-1.1-0.6-1.5-1s-0.5-0.9-0.5-1.4c0-0.4,0.1-0.8,0.3-1.1s0.4-0.6,0.7-0.8s0.7-0.4,1.1-0.4s0.8-0.1,1.3-0.1
			c0.4,0,0.8,0,1.2,0.1s0.6,0.1,0.9,0.2v1.8c-0.1-0.1-0.3-0.2-0.5-0.3s-0.3-0.1-0.5-0.2s-0.4-0.1-0.5-0.1s-0.3,0-0.5,0
			c-0.2,0-0.4,0-0.6,0.1s-0.3,0.1-0.4,0.2s-0.2,0.2-0.3,0.3s-0.1,0.2-0.1,0.3c0,0.1,0,0.3,0.1,0.4s0.2,0.2,0.3,0.3s0.3,0.2,0.5,0.3
			s0.4,0.2,0.7,0.3c0.3,0.1,0.6,0.3,0.9,0.4s0.5,0.3,0.7,0.5s0.3,0.4,0.4,0.7s0.2,0.6,0.2,0.9c0,0.5-0.1,0.9-0.3,1.2
			s-0.4,0.6-0.7,0.8s-0.7,0.3-1.1,0.4s-0.8,0.1-1.3,0.1c-0.5,0-0.9,0-1.3-0.1S317.1,61.4,316.8,61.3z"/>
		<path fill="#FFFFFF" d="M325.8,58.7v2.9h-1.9v-8.4h3c2.1,0,3.2,0.9,3.2,2.7c0,0.8-0.3,1.5-0.9,2s-1.4,0.8-2.4,0.8H325.8z
			 M325.8,54.6v2.6h0.7c1,0,1.5-0.4,1.5-1.3c0-0.9-0.5-1.3-1.5-1.3H325.8z"/>
		<path fill="#FFFFFF" d="M337.2,54.7h-2.4v6.9h-1.9v-6.9h-2.4v-1.5h6.7V54.7z"/>
		<path fill="#FFFFFF" d="M341.4,61.7c-1.2,0-2.2-0.4-2.9-1.2s-1.1-1.8-1.1-3.1c0-1.3,0.4-2.4,1.2-3.2s1.8-1.2,3.1-1.2
			c1.2,0,2.2,0.4,2.9,1.2s1.1,1.8,1.1,3.1c0,1.3-0.4,2.4-1.2,3.2S342.6,61.7,341.4,61.7z M341.5,54.7c-0.7,0-1.2,0.2-1.6,0.7
			s-0.6,1.2-0.6,2c0,0.8,0.2,1.5,0.6,2s0.9,0.7,1.5,0.7c0.7,0,1.2-0.2,1.6-0.7s0.6-1.1,0.6-2c0-0.9-0.2-1.5-0.6-2
			S342.1,54.7,341.5,54.7z"/>
	</g>
	
		<rect x="311.5" y="124.5" display="inline" fill="#FFFFFF" stroke="#A7A8AA" stroke-miterlimit="10" width="233.6" height="140.4"/>
	<rect x="318.3" y="130.3" display="inline" fill="#009CDE" width="219.3" height="14.1"/>
	<rect x="468.9" y="238.7" display="inline" fill="#004C97" width="62" height="15.8"/>
	<g display="inline">
		<rect x="344.2" y="171.4" fill="#E8E8E8" width="84.9" height="5.8"/>
		<rect x="329.2" y="157.4" fill="#A7A8AA" width="60.7" height="5.3"/>
		<circle fill="#004C97" cx="334" cy="174.2" r="4.8"/>
		<rect x="343.6" y="187.2" fill="#E8E8E8" width="61.9" height="5.8"/>
		<circle fill="#004C97" cx="333.4" cy="189.9" r="4.8"/>
		<rect x="343.2" y="203.2" fill="#E8E8E8" width="118.1" height="5.8"/>
		<circle fill="#004C97" cx="333" cy="205.9" r="4.8"/>
		<rect x="343.2" y="219.7" fill="#E8E8E8" width="39.1" height="5.8"/>
		<circle fill="#004C97" cx="333" cy="222.4" r="4.8"/>
	</g>
	<rect x="599.2" y="45.8" display="inline" fill="#EFEFEF" stroke="#63666A" stroke-miterlimit="10" width="256.5" height="287.1"/>
	<rect x="599.2" y="46" display="inline" fill="#004C97" width="255.9" height="23.2"/>
	<g display="inline">
		<path fill="#FFFFFF" d="M614.9,58.6c0,2.5-1.2,3.8-3.5,3.8c-2.3,0-3.4-1.2-3.4-3.7v-4.9h1.9v4.9c0,1.4,0.5,2,1.6,2
			c1,0,1.6-0.7,1.6-2v-4.9h1.9V58.6z"/>
		<path fill="#FFFFFF" d="M616.3,61.9V60c0.3,0.3,0.7,0.5,1.1,0.6s0.8,0.2,1.2,0.2c0.2,0,0.4,0,0.6-0.1s0.3-0.1,0.4-0.2
			s0.2-0.2,0.3-0.3s0.1-0.2,0.1-0.3c0-0.2,0-0.3-0.1-0.4s-0.2-0.2-0.4-0.4s-0.4-0.2-0.6-0.3s-0.5-0.2-0.7-0.3
			c-0.7-0.3-1.1-0.6-1.5-1s-0.5-0.9-0.5-1.4c0-0.4,0.1-0.8,0.3-1.1s0.4-0.6,0.7-0.8s0.7-0.4,1.1-0.4s0.8-0.1,1.3-0.1
			c0.4,0,0.8,0,1.2,0.1s0.6,0.1,0.9,0.2v1.8c-0.1-0.1-0.3-0.2-0.5-0.3s-0.3-0.1-0.5-0.2s-0.4-0.1-0.5-0.1s-0.3,0-0.5,0
			c-0.2,0-0.4,0-0.6,0.1s-0.3,0.1-0.4,0.2s-0.2,0.2-0.3,0.3s-0.1,0.2-0.1,0.3c0,0.1,0,0.3,0.1,0.4s0.2,0.2,0.3,0.3s0.3,0.2,0.5,0.3
			s0.4,0.2,0.7,0.3c0.3,0.1,0.6,0.3,0.9,0.4s0.5,0.3,0.7,0.5s0.3,0.4,0.4,0.7s0.2,0.6,0.2,0.9c0,0.5-0.1,0.9-0.3,1.2
			s-0.4,0.6-0.7,0.8s-0.7,0.3-1.1,0.4s-0.8,0.1-1.3,0.1c-0.5,0-0.9,0-1.3-0.1S616.6,62.1,616.3,61.9z"/>
		<path fill="#FFFFFF" d="M625.3,59.4v2.9h-1.9v-8.4h3c2.1,0,3.2,0.9,3.2,2.7c0,0.8-0.3,1.5-0.9,2s-1.4,0.8-2.4,0.8H625.3z
			 M625.3,55.3v2.6h0.7c1,0,1.5-0.4,1.5-1.3c0-0.9-0.5-1.3-1.5-1.3H625.3z"/>
		<path fill="#FFFFFF" d="M636.7,55.4h-2.4v6.9h-1.9v-6.9H630v-1.5h6.7V55.4z"/>
		<path fill="#FFFFFF" d="M640.9,62.4c-1.2,0-2.2-0.4-2.9-1.2s-1.1-1.8-1.1-3.1c0-1.3,0.4-2.4,1.2-3.2s1.8-1.2,3.1-1.2
			c1.2,0,2.2,0.4,2.9,1.2s1.1,1.8,1.1,3.1c0,1.3-0.4,2.4-1.2,3.2S642.2,62.4,640.9,62.4z M641,55.3c-0.7,0-1.2,0.2-1.6,0.7
			s-0.6,1.2-0.6,2c0,0.8,0.2,1.5,0.6,2s0.9,0.7,1.5,0.7c0.7,0,1.2-0.2,1.6-0.7s0.6-1.1,0.6-2c0-0.9-0.2-1.5-0.6-2
			S641.7,55.3,641,55.3z"/>
	</g>
	<rect x="611.1" y="156.2" display="inline" fill="#FFFFFF" stroke="#A7A8AA" stroke-miterlimit="10" width="233.6" height="157"/>
	<rect x="617.8" y="161.9" display="inline" fill="#009CDE" width="219.3" height="14.1"/>
	<rect x="768.4" y="290.3" display="inline" fill="#004C97" width="62" height="15.8"/>
	<rect x="629.3" y="194.6" display="inline" fill="#E8E8E8" width="193.7" height="57.1"/>
	<rect x="628.2" y="184.6" display="inline" fill="#A7A8AA" width="60.7" height="5.3"/>
	<rect x="898.7" y="45.1" display="inline" fill="#EFEFEF" stroke="#63666A" stroke-miterlimit="10" width="256.5" height="332.4"/>
	<rect x="898.7" y="45.4" display="inline" fill="#004C97" width="255.9" height="23.2"/>
	<g display="inline">
		<path fill="#FFFFFF" d="M914.4,58c0,2.5-1.2,3.8-3.5,3.8c-2.3,0-3.4-1.2-3.4-3.7v-4.9h1.9v4.9c0,1.4,0.5,2,1.6,2
			c1,0,1.6-0.7,1.6-2v-4.9h1.9V58z"/>
		<path fill="#FFFFFF" d="M915.8,61.3v-1.9c0.3,0.3,0.7,0.5,1.1,0.6s0.8,0.2,1.2,0.2c0.2,0,0.4,0,0.6-0.1s0.3-0.1,0.4-0.2
			s0.2-0.2,0.3-0.3s0.1-0.2,0.1-0.3c0-0.2,0-0.3-0.1-0.4s-0.2-0.2-0.4-0.4s-0.4-0.2-0.6-0.3s-0.5-0.2-0.7-0.3
			c-0.7-0.3-1.1-0.6-1.5-1s-0.5-0.9-0.5-1.4c0-0.4,0.1-0.8,0.3-1.1s0.4-0.6,0.7-0.8s0.7-0.4,1.1-0.4s0.8-0.1,1.3-0.1
			c0.4,0,0.8,0,1.2,0.1s0.6,0.1,0.9,0.2v1.8c-0.1-0.1-0.3-0.2-0.5-0.3s-0.3-0.1-0.5-0.2s-0.4-0.1-0.5-0.1s-0.3,0-0.5,0
			c-0.2,0-0.4,0-0.6,0.1s-0.3,0.1-0.4,0.2s-0.2,0.2-0.3,0.3s-0.1,0.2-0.1,0.3c0,0.1,0,0.3,0.1,0.4s0.2,0.2,0.3,0.3s0.3,0.2,0.5,0.3
			s0.4,0.2,0.7,0.3c0.3,0.1,0.6,0.3,0.9,0.4s0.5,0.3,0.7,0.5s0.3,0.4,0.4,0.7s0.2,0.6,0.2,0.9c0,0.5-0.1,0.9-0.3,1.2
			s-0.4,0.6-0.7,0.8s-0.7,0.3-1.1,0.4s-0.8,0.1-1.3,0.1c-0.5,0-0.9,0-1.3-0.1S916.1,61.4,915.8,61.3z"/>
		<path fill="#FFFFFF" d="M924.8,58.7v2.9h-1.9v-8.4h3c2.1,0,3.2,0.9,3.2,2.7c0,0.8-0.3,1.5-0.9,2s-1.4,0.8-2.4,0.8H924.8z
			 M924.8,54.6v2.6h0.7c1,0,1.5-0.4,1.5-1.3c0-0.9-0.5-1.3-1.5-1.3H924.8z"/>
		<path fill="#FFFFFF" d="M936.2,54.7h-2.4v6.9h-1.9v-6.9h-2.4v-1.5h6.7V54.7z"/>
		<path fill="#FFFFFF" d="M940.4,61.7c-1.2,0-2.2-0.4-2.9-1.2s-1.1-1.8-1.1-3.1c0-1.3,0.4-2.4,1.2-3.2s1.8-1.2,3.1-1.2
			c1.2,0,2.2,0.4,2.9,1.2s1.1,1.8,1.1,3.1c0,1.3-0.4,2.4-1.2,3.2S941.7,61.7,940.4,61.7z M940.5,54.7c-0.7,0-1.2,0.2-1.6,0.7
			s-0.6,1.2-0.6,2c0,0.8,0.2,1.5,0.6,2s0.9,0.7,1.5,0.7c0.7,0,1.2-0.2,1.6-0.7s0.6-1.1,0.6-2c0-0.9-0.2-1.5-0.6-2
			S941.2,54.7,940.5,54.7z"/>
	</g>
	<rect x="910.6" y="201.5" display="inline" fill="#FFFFFF" stroke="#A7A8AA" stroke-miterlimit="10" width="233.6" height="157"/>
	<rect x="917.4" y="207.3" display="inline" fill="#009CDE" width="219.3" height="14.1"/>
	<rect x="1067.9" y="335.7" display="inline" fill="#004C97" width="62" height="15.8"/>
	<rect x="943.2" y="244.6" display="inline" fill="#E8E8E8" width="108.4" height="5.8"/>
	<rect x="928.2" y="230.6" display="inline" fill="#A7A8AA" width="60.7" height="5.3"/>
	<rect x="942.6" y="260.4" display="inline" fill="#E8E8E8" width="61.9" height="5.8"/>
	<rect x="942.2" y="276.4" display="inline" fill="#E8E8E8" width="163.6" height="5.8"/>
	<rect x="942.2" y="292.9" display="inline" fill="#E8E8E8" width="30.7" height="5.8"/>
	<rect x="929.2" y="242.6" display="inline" fill="#004C97" width="9.5" height="9.5"/>
	<rect x="929.2" y="258.6" display="inline" fill="#E8E8E8" width="9.5" height="9.5"/>
	<rect x="929.1" y="274.6" display="inline" fill="#E8E8E8" width="9.5" height="9.5"/>
	<rect x="929.2" y="291.1" display="inline" fill="#E8E8E8" width="9.5" height="9.5"/>
	<path display="inline" fill="#A7A8AA" d="M289.2,135.3c1.1,1.9,1.7,4.1,1.7,6.4c0,2.3-0.6,4.4-1.7,6.4s-2.7,3.5-4.6,4.6
		c-1.9,1.1-4.1,1.7-6.4,1.7c-2.3,0-4.4-0.6-6.4-1.7c-1.9-1.1-3.5-2.7-4.6-4.6s-1.7-4.1-1.7-6.4c0-2.3,0.6-4.4,1.7-6.4
		c1.1-1.9,2.7-3.5,4.6-4.6c1.9-1.1,4.1-1.7,6.4-1.7c2.3,0,4.4,0.6,6.4,1.7C286.5,131.8,288.1,133.3,289.2,135.3z M286.8,141.7
		c0-0.3-0.1-0.5-0.3-0.7l-1.5-1.5l-6-6c-0.2-0.2-0.4-0.3-0.7-0.3c-0.3,0-0.5,0.1-0.7,0.3l-1.5,1.5c-0.2,0.2-0.3,0.4-0.3,0.7
		c0,0.3,0.1,0.5,0.3,0.7l3.1,3.1h-8.3c-0.3,0-0.5,0.1-0.7,0.3c-0.2,0.2-0.3,0.5-0.3,0.7v2.1c0,0.3,0.1,0.5,0.3,0.7
		c0.2,0.2,0.5,0.3,0.7,0.3h8.3l-3.1,3.1c-0.2,0.2-0.3,0.5-0.3,0.7c0,0.3,0.1,0.5,0.3,0.7l1.5,1.5c0.2,0.2,0.4,0.3,0.7,0.3
		c0.3,0,0.5-0.1,0.7-0.3l6-6l1.5-1.5C286.7,142.2,286.8,141.9,286.8,141.7z"/>
	<path display="inline" fill="#A7A8AA" d="M588.7,135.3c1.1,1.9,1.7,4.1,1.7,6.4c0,2.3-0.6,4.4-1.7,6.4s-2.7,3.5-4.6,4.6
		c-1.9,1.1-4.1,1.7-6.4,1.7c-2.3,0-4.4-0.6-6.4-1.7c-1.9-1.1-3.5-2.7-4.6-4.6s-1.7-4.1-1.7-6.4c0-2.3,0.6-4.4,1.7-6.4
		c1.1-1.9,2.7-3.5,4.6-4.6c1.9-1.1,4.1-1.7,6.4-1.7c2.3,0,4.4,0.6,6.4,1.7C586,131.8,587.6,133.3,588.7,135.3z M586.3,141.7
		c0-0.3-0.1-0.5-0.3-0.7l-1.5-1.5l-6-6c-0.2-0.2-0.4-0.3-0.7-0.3c-0.3,0-0.5,0.1-0.7,0.3l-1.5,1.5c-0.2,0.2-0.3,0.4-0.3,0.7
		c0,0.3,0.1,0.5,0.3,0.7l3.1,3.1h-8.3c-0.3,0-0.5,0.1-0.7,0.3c-0.2,0.2-0.3,0.5-0.3,0.7v2.1c0,0.3,0.1,0.5,0.3,0.7
		c0.2,0.2,0.5,0.3,0.7,0.3h8.3l-3.1,3.1c-0.2,0.2-0.3,0.5-0.3,0.7c0,0.3,0.1,0.5,0.3,0.7l1.5,1.5c0.2,0.2,0.4,0.3,0.7,0.3
		c0.3,0,0.5-0.1,0.7-0.3l6-6l1.5-1.5C586.2,142.2,586.3,141.9,586.3,141.7z"/>
	<path display="inline" fill="#A7A8AA" d="M888.2,135.3c1.1,1.9,1.7,4.1,1.7,6.4c0,2.3-0.6,4.4-1.7,6.4s-2.7,3.5-4.6,4.6
		c-1.9,1.1-4.1,1.7-6.4,1.7c-2.3,0-4.4-0.6-6.4-1.7c-1.9-1.1-3.5-2.7-4.6-4.6s-1.7-4.1-1.7-6.4c0-2.3,0.6-4.4,1.7-6.4
		c1.1-1.9,2.7-3.5,4.6-4.6c1.9-1.1,4.1-1.7,6.4-1.7c2.3,0,4.4,0.6,6.4,1.7C885.6,131.8,887.1,133.3,888.2,135.3z M885.8,141.7
		c0-0.3-0.1-0.5-0.3-0.7l-1.5-1.5l-6-6c-0.2-0.2-0.4-0.3-0.7-0.3c-0.3,0-0.5,0.1-0.7,0.3l-1.5,1.5c-0.2,0.2-0.3,0.4-0.3,0.7
		c0,0.3,0.1,0.5,0.3,0.7l3.1,3.1h-8.3c-0.3,0-0.5,0.1-0.7,0.3c-0.2,0.2-0.3,0.5-0.3,0.7v2.1c0,0.3,0.1,0.5,0.3,0.7
		c0.2,0.2,0.5,0.3,0.7,0.3h8.3l-3.1,3.1c-0.2,0.2-0.3,0.5-0.3,0.7c0,0.3,0.1,0.5,0.3,0.7l1.5,1.5c0.2,0.2,0.4,0.3,0.7,0.3
		c0.3,0,0.5-0.1,0.7-0.3l6-6l1.5-1.5C885.7,142.2,885.8,141.9,885.8,141.7z"/>
	<g display="inline">
		<rect x="310.8" y="80.7" fill="#FFFFFF" stroke="#A7A8AA" stroke-miterlimit="10" width="233.6" height="27"/>
		<rect x="317.6" y="87" fill="#009CDE" width="219.8" height="14.1"/>
		<rect x="317.6" y="87" fill="#003865" width="17.4" height="14.1"/>
	</g>
	<g display="inline">
		<rect x="612.6" y="79.1" fill="#FFFFFF" stroke="#A7A8AA" stroke-miterlimit="10" width="233.6" height="27"/>
		<rect x="619.3" y="85.4" fill="#009CDE" width="219.8" height="14.1"/>
		<rect x="619.3" y="85.4" fill="#003865" width="17.4" height="14.1"/>
	</g>
	<g display="inline">
		<rect x="611.8" y="116.1" fill="#FFFFFF" stroke="#A7A8AA" stroke-miterlimit="10" width="233.6" height="27"/>
		<rect x="618.6" y="122.5" fill="#009CDE" width="219.8" height="14.1"/>
		<rect x="618.6" y="122.5" fill="#003865" width="17.4" height="14.1"/>
	</g>
	<g display="inline">
		<rect x="910.6" y="80.7" fill="#FFFFFF" stroke="#A7A8AA" stroke-miterlimit="10" width="233.6" height="27"/>
		<rect x="917.3" y="87" fill="#009CDE" width="219.8" height="14.1"/>
		<rect x="917.3" y="87" fill="#003865" width="17.4" height="14.1"/>
	</g>
	<g display="inline">
		<rect x="909.8" y="117.7" fill="#FFFFFF" stroke="#A7A8AA" stroke-miterlimit="10" width="233.6" height="27"/>
		<rect x="916.5" y="124" fill="#009CDE" width="219.8" height="14.1"/>
		<rect x="916.5" y="124" fill="#003865" width="17.4" height="14.1"/>
	</g>
	<g display="inline">
		<rect x="910.6" y="158.4" fill="#FFFFFF" stroke="#A7A8AA" stroke-miterlimit="10" width="233.6" height="27"/>
		<rect x="917.3" y="164.8" fill="#009CDE" width="219.8" height="14.1"/>
		<rect x="917.3" y="164.8" fill="#003865" width="17.4" height="14.1"/>
	</g>
</g>
<g id="Wizard" display="none">
	<g display="inline">
		<rect x="2.7" y="1.2" fill="#EFEFEF" stroke="#63666A" stroke-miterlimit="10" width="256.5" height="243.7"/>
		<rect x="2.7" y="1.5" fill="#004C97" width="255.9" height="23.2"/>
		<g>
			<path fill="#FFFFFF" d="M18.4,14c0,2.5-1.2,3.8-3.5,3.8c-2.3,0-3.4-1.2-3.4-3.7V9.3h1.9v4.9c0,1.4,0.5,2,1.6,2c1,0,1.6-0.7,1.6-2
				V9.3h1.9V14z"/>
			<path fill="#FFFFFF" d="M19.8,17.3v-1.9c0.3,0.3,0.7,0.5,1.1,0.6c0.4,0.1,0.8,0.2,1.2,0.2c0.2,0,0.4,0,0.6-0.1s0.3-0.1,0.4-0.2
				s0.2-0.2,0.3-0.3s0.1-0.2,0.1-0.3c0-0.2,0-0.3-0.1-0.4s-0.2-0.2-0.4-0.4s-0.4-0.2-0.6-0.3S22,14.2,21.7,14
				c-0.7-0.3-1.1-0.6-1.5-1s-0.5-0.9-0.5-1.4c0-0.4,0.1-0.8,0.3-1.1s0.4-0.6,0.7-0.8s0.7-0.4,1.1-0.4s0.8-0.1,1.3-0.1
				c0.4,0,0.8,0,1.2,0.1s0.6,0.1,0.9,0.2v1.8c-0.1-0.1-0.3-0.2-0.5-0.3s-0.3-0.1-0.5-0.2s-0.4-0.1-0.5-0.1s-0.3,0-0.5,0
				c-0.2,0-0.4,0-0.6,0.1s-0.3,0.1-0.4,0.2s-0.2,0.2-0.3,0.3s-0.1,0.2-0.1,0.3c0,0.1,0,0.3,0.1,0.4s0.2,0.2,0.3,0.3s0.3,0.2,0.5,0.3
				s0.4,0.2,0.7,0.3c0.3,0.1,0.6,0.3,0.9,0.4s0.5,0.3,0.7,0.5s0.3,0.4,0.4,0.7s0.2,0.6,0.2,0.9c0,0.5-0.1,0.9-0.3,1.2
				s-0.4,0.6-0.7,0.8s-0.7,0.3-1.1,0.4s-0.8,0.1-1.3,0.1c-0.5,0-0.9,0-1.3-0.1S20.1,17.5,19.8,17.3z"/>
			<path fill="#FFFFFF" d="M28.8,14.8v2.9h-1.9V9.3h3c2.1,0,3.2,0.9,3.2,2.7c0,0.8-0.3,1.5-0.9,2c-0.6,0.5-1.4,0.8-2.4,0.8H28.8z
				 M28.8,10.7v2.6h0.7c1,0,1.5-0.4,1.5-1.3c0-0.9-0.5-1.3-1.5-1.3H28.8z"/>
			<path fill="#FFFFFF" d="M40.2,10.8h-2.4v6.9h-1.9v-6.9h-2.4V9.3h6.7V10.8z"/>
			<path fill="#FFFFFF" d="M44.4,17.8c-1.2,0-2.2-0.4-2.9-1.2c-0.8-0.8-1.1-1.8-1.1-3.1c0-1.3,0.4-2.4,1.2-3.2s1.8-1.2,3.1-1.2
				c1.2,0,2.2,0.4,2.9,1.2s1.1,1.8,1.1,3.1c0,1.3-0.4,2.4-1.2,3.2C46.7,17.4,45.7,17.8,44.4,17.8z M44.5,10.7
				c-0.7,0-1.2,0.2-1.6,0.7s-0.6,1.2-0.6,2c0,0.8,0.2,1.5,0.6,2s0.9,0.7,1.5,0.7c0.7,0,1.2-0.2,1.6-0.7s0.6-1.1,0.6-2
				c0-0.9-0.2-1.5-0.6-2S45.2,10.7,44.5,10.7z"/>
		</g>
		<rect x="14.6" y="68.6" fill="#FFFFFF" stroke="#A7A8AA" stroke-miterlimit="10" width="233.6" height="157"/>
		<rect x="21.3" y="74.3" fill="#009CDE" width="219.3" height="14.1"/>
		<rect x="29" y="107.5" fill="#E8E8E8" width="204.6" height="15.9"/>
		<rect x="171.9" y="202.7" fill="#004C97" width="62" height="15.8"/>
		<rect x="28.6" y="97.5" fill="#A7A8AA" width="96.2" height="5.3"/>
		<rect x="29.1" y="140.8" fill="#E8E8E8" width="205.5" height="15.9"/>
		<rect x="29.3" y="130.8" fill="#A7A8AA" width="58.7" height="5.3"/>
		<rect x="29.1" y="176.5" fill="#E8E8E8" width="205.5" height="15.9"/>
		<rect x="29.3" y="166.5" fill="#A7A8AA" width="85.2" height="5.3"/>
		<polygon fill="#D9D9D6" stroke="#FFFFFF" stroke-miterlimit="10" points="248.2,50.9 188.9,50.9 188.9,35.3 248.2,35.3 
			248.2,43.1 		"/>
		<polygon fill="#D9D9D6" stroke="#FFFFFF" stroke-miterlimit="10" points="190.1,50.9 130.7,50.9 130.7,35.3 190.1,35.3 198,43.1 
					"/>
		<polygon fill="#D9D9D6" stroke="#FFFFFF" stroke-miterlimit="10" points="132.2,50.9 72.8,50.9 72.8,35.3 132.2,35.3 140.1,43.1 
					"/>
		<polygon fill="#003865" stroke="#FFFFFF" stroke-miterlimit="10" points="73.9,50.9 14.6,50.9 14.6,35.3 73.9,35.3 81.9,43.1 		
			"/>
	</g>
	<g display="inline">
		<rect x="302.2" y="0.9" fill="#EFEFEF" stroke="#63666A" stroke-miterlimit="10" width="256.5" height="243.7"/>
		<rect x="302.2" y="1.1" fill="#004C97" width="255.9" height="23.2"/>
		<g>
			<path fill="#FFFFFF" d="M317.9,13.7c0,2.5-1.2,3.8-3.5,3.8c-2.3,0-3.4-1.2-3.4-3.7V8.9h1.9v4.9c0,1.4,0.5,2,1.6,2
				c1,0,1.6-0.7,1.6-2V8.9h1.9V13.7z"/>
			<path fill="#FFFFFF" d="M319.3,17v-1.9c0.3,0.3,0.7,0.5,1.1,0.6s0.8,0.2,1.2,0.2c0.2,0,0.4,0,0.6-0.1s0.3-0.1,0.4-0.2
				s0.2-0.2,0.3-0.3s0.1-0.2,0.1-0.3c0-0.2,0-0.3-0.1-0.4s-0.2-0.2-0.4-0.4s-0.4-0.2-0.6-0.3s-0.5-0.2-0.7-0.3
				c-0.7-0.3-1.1-0.6-1.5-1s-0.5-0.9-0.5-1.4c0-0.4,0.1-0.8,0.3-1.1s0.4-0.6,0.7-0.8s0.7-0.4,1.1-0.4s0.8-0.1,1.3-0.1
				c0.4,0,0.8,0,1.2,0.1s0.6,0.1,0.9,0.2v1.8c-0.1-0.1-0.3-0.2-0.5-0.3s-0.3-0.1-0.5-0.2s-0.4-0.1-0.5-0.1s-0.3,0-0.5,0
				c-0.2,0-0.4,0-0.6,0.1s-0.3,0.1-0.4,0.2s-0.2,0.2-0.3,0.3s-0.1,0.2-0.1,0.3c0,0.1,0,0.3,0.1,0.4s0.2,0.2,0.3,0.3s0.3,0.2,0.5,0.3
				s0.4,0.2,0.7,0.3c0.3,0.1,0.6,0.3,0.9,0.4s0.5,0.3,0.7,0.5s0.3,0.4,0.4,0.7s0.2,0.6,0.2,0.9c0,0.5-0.1,0.9-0.3,1.2
				c-0.2,0.3-0.4,0.6-0.7,0.8s-0.7,0.3-1.1,0.4s-0.8,0.1-1.3,0.1c-0.5,0-0.9,0-1.3-0.1S319.6,17.2,319.3,17z"/>
			<path fill="#FFFFFF" d="M328.3,14.4v2.9h-1.9V8.9h3c2.1,0,3.2,0.9,3.2,2.7c0,0.8-0.3,1.5-0.9,2s-1.4,0.8-2.4,0.8H328.3z
				 M328.3,10.4V13h0.7c1,0,1.5-0.4,1.5-1.3c0-0.9-0.5-1.3-1.5-1.3H328.3z"/>
			<path fill="#FFFFFF" d="M339.7,10.5h-2.4v6.9h-1.9v-6.9H333V8.9h6.7V10.5z"/>
			<path fill="#FFFFFF" d="M343.9,17.5c-1.2,0-2.2-0.4-2.9-1.2c-0.8-0.8-1.1-1.8-1.1-3.1c0-1.3,0.4-2.4,1.2-3.2s1.8-1.2,3.1-1.2
				c1.2,0,2.2,0.4,2.9,1.2s1.1,1.8,1.1,3.1c0,1.3-0.4,2.4-1.2,3.2C346.2,17.1,345.2,17.5,343.9,17.5z M344,10.4
				c-0.7,0-1.2,0.2-1.6,0.7s-0.6,1.2-0.6,2c0,0.8,0.2,1.5,0.6,2s0.9,0.7,1.5,0.7c0.7,0,1.2-0.2,1.6-0.7s0.6-1.1,0.6-2
				c0-0.9-0.2-1.5-0.6-2S344.7,10.4,344,10.4z"/>
		</g>
		<rect x="314.1" y="68.3" fill="#FFFFFF" stroke="#A7A8AA" stroke-miterlimit="10" width="233.6" height="157"/>
		<rect x="320.9" y="74" fill="#009CDE" width="219.3" height="14.1"/>
		<rect x="471.4" y="202.4" fill="#004C97" width="62" height="15.8"/>
		<polygon fill="#D9D9D6" stroke="#FFFFFF" stroke-miterlimit="10" points="547.7,50.6 488.4,50.6 488.4,35 547.7,35 547.7,42.8 		
			"/>
		<polygon fill="#D9D9D6" stroke="#FFFFFF" stroke-miterlimit="10" points="489.6,50.6 430.2,50.6 430.2,35 489.6,35 497.5,42.8 		
			"/>
		<polygon fill="#003865" stroke="#FFFFFF" stroke-miterlimit="10" points="431.7,50.6 372.3,50.6 372.3,35 431.7,35 439.7,42.8 		
			"/>
		<polygon fill="#D9D9D6" stroke="#FFFFFF" stroke-miterlimit="10" points="373.4,50.6 314.1,50.6 314.1,35 373.4,35 381.4,42.8 		
			"/>
		<g>
			<rect x="346.7" y="115.2" fill="#E8E8E8" width="84.9" height="5.8"/>
			<rect x="331.7" y="101.2" fill="#A7A8AA" width="60.7" height="5.3"/>
			<circle fill="#004C97" cx="336.5" cy="117.9" r="4.8"/>
			<rect x="346.1" y="130.9" fill="#E8E8E8" width="61.9" height="5.8"/>
			<circle fill="#E8E8E8" cx="335.9" cy="133.7" r="4.8"/>
			<rect x="345.7" y="146.9" fill="#E8E8E8" width="118.1" height="5.8"/>
			<circle fill="#E8E8E8" cx="335.5" cy="149.7" r="4.8"/>
			<rect x="345.7" y="163.4" fill="#E8E8E8" width="39.1" height="5.8"/>
			<circle fill="#E8E8E8" cx="335.5" cy="166.2" r="4.8"/>
		</g>
	</g>
	<g display="inline">
		<rect x="601.8" y="1.5" fill="#EFEFEF" stroke="#63666A" stroke-miterlimit="10" width="256.5" height="243.7"/>
		<rect x="601.8" y="1.8" fill="#004C97" width="255.9" height="23.2"/>
		<g>
			<path fill="#FFFFFF" d="M617.4,14.4c0,2.5-1.2,3.8-3.5,3.8c-2.3,0-3.4-1.2-3.4-3.7V9.6h1.9v4.9c0,1.4,0.5,2,1.6,2
				c1,0,1.6-0.7,1.6-2V9.6h1.9V14.4z"/>
			<path fill="#FFFFFF" d="M618.8,17.7v-1.9c0.3,0.3,0.7,0.5,1.1,0.6s0.8,0.2,1.2,0.2c0.2,0,0.4,0,0.6-0.1s0.3-0.1,0.4-0.2
				s0.2-0.2,0.3-0.3s0.1-0.2,0.1-0.3c0-0.2,0-0.3-0.1-0.4s-0.2-0.2-0.4-0.4s-0.4-0.2-0.6-0.3s-0.5-0.2-0.7-0.3
				c-0.7-0.3-1.1-0.6-1.5-1s-0.5-0.9-0.5-1.4c0-0.4,0.1-0.8,0.3-1.1s0.4-0.6,0.7-0.8s0.7-0.4,1.1-0.4s0.8-0.1,1.3-0.1
				c0.4,0,0.8,0,1.2,0.1s0.6,0.1,0.9,0.2v1.8c-0.1-0.1-0.3-0.2-0.5-0.3s-0.3-0.1-0.5-0.2s-0.4-0.1-0.5-0.1s-0.3,0-0.5,0
				c-0.2,0-0.4,0-0.6,0.1s-0.3,0.1-0.4,0.2s-0.2,0.2-0.3,0.3s-0.1,0.2-0.1,0.3c0,0.1,0,0.3,0.1,0.4s0.2,0.2,0.3,0.3s0.3,0.2,0.5,0.3
				s0.4,0.2,0.7,0.3c0.3,0.1,0.6,0.3,0.9,0.4s0.5,0.3,0.7,0.5s0.3,0.4,0.4,0.7s0.2,0.6,0.2,0.9c0,0.5-0.1,0.9-0.3,1.2
				s-0.4,0.6-0.7,0.8s-0.7,0.3-1.1,0.4s-0.8,0.1-1.3,0.1c-0.5,0-0.9,0-1.3-0.1S619.1,17.8,618.8,17.7z"/>
			<path fill="#FFFFFF" d="M627.8,15.1V18H626V9.6h3c2.1,0,3.2,0.9,3.2,2.7c0,0.8-0.3,1.5-0.9,2s-1.4,0.8-2.4,0.8H627.8z M627.8,11
				v2.6h0.7c1,0,1.5-0.4,1.5-1.3c0-0.9-0.5-1.3-1.5-1.3H627.8z"/>
			<path fill="#FFFFFF" d="M639.2,11.1h-2.4V18h-1.9v-6.9h-2.4V9.6h6.7V11.1z"/>
			<path fill="#FFFFFF" d="M643.5,18.1c-1.2,0-2.2-0.4-2.9-1.2s-1.1-1.8-1.1-3.1c0-1.3,0.4-2.4,1.2-3.2s1.8-1.2,3.1-1.2
				c1.2,0,2.2,0.4,2.9,1.2s1.1,1.8,1.1,3.1c0,1.3-0.4,2.4-1.2,3.2S644.7,18.1,643.5,18.1z M643.5,11.1c-0.7,0-1.2,0.2-1.6,0.7
				s-0.6,1.2-0.6,2c0,0.8,0.2,1.5,0.6,2c0.4,0.5,0.9,0.7,1.5,0.7c0.7,0,1.2-0.2,1.6-0.7c0.4-0.5,0.6-1.1,0.6-2c0-0.9-0.2-1.5-0.6-2
				S644.2,11.1,643.5,11.1z"/>
		</g>
		<rect x="613.6" y="68.9" fill="#FFFFFF" stroke="#A7A8AA" stroke-miterlimit="10" width="233.6" height="157"/>
		<rect x="620.4" y="74.7" fill="#009CDE" width="219.3" height="14.1"/>
		<rect x="770.9" y="203.1" fill="#004C97" width="62" height="15.8"/>
		<polygon fill="#D9D9D6" stroke="#FFFFFF" stroke-miterlimit="10" points="847.2,51.2 787.9,51.2 787.9,35.6 847.2,35.6 
			847.2,43.4 		"/>
		<polygon fill="#003865" stroke="#FFFFFF" stroke-miterlimit="10" points="789.1,51.2 729.7,51.2 729.7,35.6 789.1,35.6 797,43.4 
					"/>
		<polygon fill="#D9D9D6" stroke="#FFFFFF" stroke-miterlimit="10" points="731.2,51.2 671.9,51.2 671.9,35.6 731.2,35.6 
			739.2,43.4 		"/>
		<polygon fill="#D9D9D6" stroke="#FFFFFF" stroke-miterlimit="10" points="672.9,51.2 613.6,51.2 613.6,35.6 672.9,35.6 
			680.9,43.4 		"/>
		<rect x="631.9" y="107.4" fill="#E8E8E8" width="193.7" height="57.1"/>
		<rect x="630.7" y="97.4" fill="#A7A8AA" width="60.7" height="5.3"/>
	</g>
	<g display="inline">
		<rect x="901.3" y="0.9" fill="#EFEFEF" stroke="#63666A" stroke-miterlimit="10" width="256.5" height="243.7"/>
		<rect x="901.3" y="1.1" fill="#004C97" width="255.9" height="23.2"/>
		<g>
			<path fill="#FFFFFF" d="M916.9,13.7c0,2.5-1.2,3.8-3.5,3.8c-2.3,0-3.4-1.2-3.4-3.7V8.9h1.9v4.9c0,1.4,0.5,2,1.6,2
				c1,0,1.6-0.7,1.6-2V8.9h1.9V13.7z"/>
			<path fill="#FFFFFF" d="M918.4,17v-1.9c0.3,0.3,0.7,0.5,1.1,0.6s0.8,0.2,1.2,0.2c0.2,0,0.4,0,0.6-0.1s0.3-0.1,0.4-0.2
				s0.2-0.2,0.3-0.3s0.1-0.2,0.1-0.3c0-0.2,0-0.3-0.1-0.4s-0.2-0.2-0.4-0.4s-0.4-0.2-0.6-0.3s-0.5-0.2-0.7-0.3
				c-0.7-0.3-1.1-0.6-1.5-1s-0.5-0.9-0.5-1.4c0-0.4,0.1-0.8,0.3-1.1s0.4-0.6,0.7-0.8s0.7-0.4,1.1-0.4s0.8-0.1,1.3-0.1
				c0.4,0,0.8,0,1.2,0.1s0.6,0.1,0.9,0.2v1.8c-0.1-0.1-0.3-0.2-0.5-0.3s-0.3-0.1-0.5-0.2s-0.4-0.1-0.5-0.1s-0.3,0-0.5,0
				c-0.2,0-0.4,0-0.6,0.1s-0.3,0.1-0.4,0.2s-0.2,0.2-0.3,0.3s-0.1,0.2-0.1,0.3c0,0.1,0,0.3,0.1,0.4s0.2,0.2,0.3,0.3s0.3,0.2,0.5,0.3
				s0.4,0.2,0.7,0.3c0.3,0.1,0.6,0.3,0.9,0.4s0.5,0.3,0.7,0.5s0.3,0.4,0.4,0.7s0.2,0.6,0.2,0.9c0,0.5-0.1,0.9-0.3,1.2
				c-0.2,0.3-0.4,0.6-0.7,0.8s-0.7,0.3-1.1,0.4s-0.8,0.1-1.3,0.1c-0.5,0-0.9,0-1.3-0.1S918.7,17.2,918.4,17z"/>
			<path fill="#FFFFFF" d="M927.4,14.4v2.9h-1.9V8.9h3c2.1,0,3.2,0.9,3.2,2.7c0,0.8-0.3,1.5-0.9,2s-1.4,0.8-2.4,0.8H927.4z
				 M927.4,10.4V13h0.7c1,0,1.5-0.4,1.5-1.3c0-0.9-0.5-1.3-1.5-1.3H927.4z"/>
			<path fill="#FFFFFF" d="M938.7,10.5h-2.4v6.9h-1.9v-6.9h-2.4V8.9h6.7V10.5z"/>
			<path fill="#FFFFFF" d="M943,17.5c-1.2,0-2.2-0.4-2.9-1.2c-0.8-0.8-1.1-1.8-1.1-3.1c0-1.3,0.4-2.4,1.2-3.2s1.8-1.2,3.1-1.2
				c1.2,0,2.2,0.4,2.9,1.2s1.1,1.8,1.1,3.1c0,1.3-0.4,2.4-1.2,3.2C945.2,17.1,944.2,17.5,943,17.5z M943.1,10.4
				c-0.7,0-1.2,0.2-1.6,0.7s-0.6,1.2-0.6,2c0,0.8,0.2,1.5,0.6,2s0.9,0.7,1.5,0.7c0.7,0,1.2-0.2,1.6-0.7s0.6-1.1,0.6-2
				c0-0.9-0.2-1.5-0.6-2S943.7,10.4,943.1,10.4z"/>
		</g>
		<rect x="913.1" y="68.3" fill="#FFFFFF" stroke="#A7A8AA" stroke-miterlimit="10" width="233.6" height="157"/>
		<rect x="919.9" y="74" fill="#009CDE" width="219.3" height="14.1"/>
		<rect x="1070.5" y="202.4" fill="#004C97" width="62" height="15.8"/>
		<polygon fill="#003865" stroke="#FFFFFF" stroke-miterlimit="10" points="1146.8,50.6 1087.4,50.6 1087.4,35 1146.8,35 
			1146.7,42.8 		"/>
		<polygon fill="#D9D9D6" stroke="#FFFFFF" stroke-miterlimit="10" points="1088.6,50.6 1029.3,50.6 1029.3,35 1088.6,35 
			1096.6,42.8 		"/>
		<polygon fill="#D9D9D6" stroke="#FFFFFF" stroke-miterlimit="10" points="1030.7,50.6 971.4,50.6 971.4,35 1030.7,35 1038.7,42.8 
					"/>
		<polygon fill="#D9D9D6" stroke="#FFFFFF" stroke-miterlimit="10" points="972.5,50.6 913.1,50.6 913.1,35 972.5,35 980.4,42.8 		
			"/>
		<rect x="945.8" y="111.4" fill="#E8E8E8" width="108.4" height="5.8"/>
		<rect x="930.8" y="97.4" fill="#A7A8AA" width="60.7" height="5.3"/>
		<rect x="945.2" y="127.2" fill="#E8E8E8" width="61.9" height="5.8"/>
		<rect x="944.8" y="143.1" fill="#E8E8E8" width="163.6" height="5.8"/>
		<rect x="944.8" y="159.6" fill="#E8E8E8" width="30.7" height="5.8"/>
		<rect x="931.8" y="109.4" fill="#004C97" width="9.5" height="9.5"/>
		<rect x="931.8" y="125.3" fill="#E8E8E8" width="9.5" height="9.5"/>
		<rect x="931.7" y="141.3" fill="#E8E8E8" width="9.5" height="9.5"/>
		<rect x="931.8" y="157.8" fill="#E8E8E8" width="9.5" height="9.5"/>
	</g>
	<g display="inline">
		<path fill="#A7A8AA" d="M291.7,117c1.1,1.9,1.7,4.1,1.7,6.4c0,2.3-0.6,4.4-1.7,6.4s-2.7,3.5-4.6,4.6c-1.9,1.1-4.1,1.7-6.4,1.7
			c-2.3,0-4.4-0.6-6.4-1.7c-1.9-1.1-3.5-2.7-4.6-4.6s-1.7-4.1-1.7-6.4c0-2.3,0.6-4.4,1.7-6.4c1.1-1.9,2.7-3.5,4.6-4.6
			c1.9-1.1,4.1-1.7,6.4-1.7c2.3,0,4.4,0.6,6.4,1.7C289.1,113.5,290.6,115.1,291.7,117z M289.3,123.4c0-0.3-0.1-0.5-0.3-0.7l-1.5-1.5
			l-6-6c-0.2-0.2-0.4-0.3-0.7-0.3c-0.3,0-0.5,0.1-0.7,0.3l-1.5,1.5c-0.2,0.2-0.3,0.4-0.3,0.7c0,0.3,0.1,0.5,0.3,0.7l3.1,3.1h-8.3
			c-0.3,0-0.5,0.1-0.7,0.3c-0.2,0.2-0.3,0.5-0.3,0.7v2.1c0,0.3,0.1,0.5,0.3,0.7c0.2,0.2,0.5,0.3,0.7,0.3h8.3l-3.1,3.1
			c-0.2,0.2-0.3,0.5-0.3,0.7c0,0.3,0.1,0.5,0.3,0.7l1.5,1.5c0.2,0.2,0.4,0.3,0.7,0.3c0.3,0,0.5-0.1,0.7-0.3l6-6l1.5-1.5
			C289.2,124,289.3,123.7,289.3,123.4z"/>
	</g>
	<g display="inline">
		<path fill="#A7A8AA" d="M591.3,117c1.1,1.9,1.7,4.1,1.7,6.4c0,2.3-0.6,4.4-1.7,6.4s-2.7,3.5-4.6,4.6c-1.9,1.1-4.1,1.7-6.4,1.7
			c-2.3,0-4.4-0.6-6.4-1.7c-1.9-1.1-3.5-2.7-4.6-4.6s-1.7-4.1-1.7-6.4c0-2.3,0.6-4.4,1.7-6.4c1.1-1.9,2.7-3.5,4.6-4.6
			c1.9-1.1,4.1-1.7,6.4-1.7c2.3,0,4.4,0.6,6.4,1.7C588.6,113.5,590.1,115.1,591.3,117z M588.8,123.4c0-0.3-0.1-0.5-0.3-0.7l-1.5-1.5
			l-6-6c-0.2-0.2-0.4-0.3-0.7-0.3c-0.3,0-0.5,0.1-0.7,0.3l-1.5,1.5c-0.2,0.2-0.3,0.4-0.3,0.7c0,0.3,0.1,0.5,0.3,0.7l3.1,3.1h-8.3
			c-0.3,0-0.5,0.1-0.7,0.3c-0.2,0.2-0.3,0.5-0.3,0.7v2.1c0,0.3,0.1,0.5,0.3,0.7c0.2,0.2,0.5,0.3,0.7,0.3h8.3l-3.1,3.1
			c-0.2,0.2-0.3,0.5-0.3,0.7c0,0.3,0.1,0.5,0.3,0.7l1.5,1.5c0.2,0.2,0.4,0.3,0.7,0.3c0.3,0,0.5-0.1,0.7-0.3l6-6l1.5-1.5
			C588.7,124,588.8,123.7,588.8,123.4z"/>
	</g>
	<g display="inline">
		<path fill="#A7A8AA" d="M890.8,117c1.1,1.9,1.7,4.1,1.7,6.4c0,2.3-0.6,4.4-1.7,6.4s-2.7,3.5-4.6,4.6c-1.9,1.1-4.1,1.7-6.4,1.7
			c-2.3,0-4.4-0.6-6.4-1.7c-1.9-1.1-3.5-2.7-4.6-4.6s-1.7-4.1-1.7-6.4c0-2.3,0.6-4.4,1.7-6.4c1.1-1.9,2.7-3.5,4.6-4.6
			c1.9-1.1,4.1-1.7,6.4-1.7c2.3,0,4.4,0.6,6.4,1.7C888.1,113.5,889.6,115.1,890.8,117z M888.3,123.4c0-0.3-0.1-0.5-0.3-0.7l-1.5-1.5
			l-6-6c-0.2-0.2-0.4-0.3-0.7-0.3c-0.3,0-0.5,0.1-0.7,0.3l-1.5,1.5c-0.2,0.2-0.3,0.4-0.3,0.7c0,0.3,0.1,0.5,0.3,0.7l3.1,3.1h-8.3
			c-0.3,0-0.5,0.1-0.7,0.3c-0.2,0.2-0.3,0.5-0.3,0.7v2.1c0,0.3,0.1,0.5,0.3,0.7c0.2,0.2,0.5,0.3,0.7,0.3h8.3l-3.1,3.1
			c-0.2,0.2-0.3,0.5-0.3,0.7c0,0.3,0.1,0.5,0.3,0.7l1.5,1.5c0.2,0.2,0.4,0.3,0.7,0.3c0.3,0,0.5-0.1,0.7-0.3l6-6l1.5-1.5
			C888.2,124,888.3,123.7,888.3,123.4z"/>
	</g>
</g>
<g id="Single_Page" display="none">
	<rect x="-1.3" y="-4.7" display="inline" fill="#EFEFEF" stroke="#63666A" stroke-miterlimit="10" width="230.5" height="553.8"/>
	<rect x="-1.3" y="-4.7" display="inline" fill="#004C97" width="230.5" height="23.2"/>
	<g display="inline">
		<path fill="#FFFFFF" d="M20.4,7.8c0,2.3-1.1,3.5-3.2,3.5c-2.1,0-3.1-1.1-3.1-3.4V3.4h1.7v4.5c0,1.2,0.5,1.9,1.5,1.9
			c1,0,1.4-0.6,1.4-1.8V3.4h1.7V7.8z"/>
		<path fill="#FFFFFF" d="M21.7,10.8V9.1c0.3,0.3,0.7,0.5,1,0.6s0.7,0.2,1.1,0.2c0.2,0,0.4,0,0.6-0.1c0.2,0,0.3-0.1,0.4-0.2
			C24.9,9.6,25,9.5,25,9.4c0.1-0.1,0.1-0.2,0.1-0.3c0-0.2,0-0.3-0.1-0.4c-0.1-0.1-0.2-0.2-0.4-0.3c-0.1-0.1-0.3-0.2-0.5-0.3
			c-0.2-0.1-0.4-0.2-0.7-0.3c-0.6-0.3-1.1-0.6-1.3-0.9c-0.3-0.4-0.4-0.8-0.4-1.3c0-0.4,0.1-0.7,0.2-1c0.2-0.3,0.4-0.5,0.7-0.7
			c0.3-0.2,0.6-0.3,1-0.4c0.4-0.1,0.8-0.1,1.2-0.1c0.4,0,0.8,0,1.1,0.1s0.6,0.1,0.9,0.2v1.6c-0.1-0.1-0.3-0.2-0.4-0.2
			c-0.2-0.1-0.3-0.1-0.5-0.2s-0.3-0.1-0.5-0.1c-0.2,0-0.3,0-0.5,0c-0.2,0-0.4,0-0.5,0.1s-0.3,0.1-0.4,0.2c-0.1,0.1-0.2,0.1-0.3,0.2
			c-0.1,0.1-0.1,0.2-0.1,0.3c0,0.1,0,0.2,0.1,0.3c0.1,0.1,0.2,0.2,0.3,0.3c0.1,0.1,0.3,0.2,0.5,0.3s0.4,0.2,0.6,0.3
			c0.3,0.1,0.6,0.3,0.8,0.4c0.2,0.1,0.5,0.3,0.6,0.5c0.2,0.2,0.3,0.4,0.4,0.6c0.1,0.2,0.1,0.5,0.1,0.8c0,0.4-0.1,0.8-0.2,1.1
			c-0.2,0.3-0.4,0.5-0.7,0.7c-0.3,0.2-0.6,0.3-1,0.4c-0.4,0.1-0.8,0.1-1.2,0.1c-0.4,0-0.8,0-1.2-0.1C22.3,11.1,22,11,21.7,10.8z"/>
		<path fill="#FFFFFF" d="M30,8.5v2.7h-1.7V3.4h2.7c1.9,0,2.9,0.8,2.9,2.5c0,0.8-0.3,1.4-0.8,1.9c-0.6,0.5-1.3,0.7-2.2,0.7H30z
			 M30,4.7v2.4h0.7c0.9,0,1.4-0.4,1.4-1.2c0-0.8-0.5-1.2-1.4-1.2H30z"/>
		<path fill="#FFFFFF" d="M40.4,4.8h-2.2v6.3h-1.7V4.8h-2.2V3.4h6.1V4.8z"/>
		<path fill="#FFFFFF" d="M44.3,11.3c-1.1,0-2-0.4-2.7-1.1c-0.7-0.7-1-1.7-1-2.8c0-1.2,0.4-2.2,1.1-3c0.7-0.8,1.6-1.1,2.8-1.1
			c1.1,0,2,0.4,2.7,1.1c0.7,0.7,1,1.7,1,2.8c0,1.2-0.4,2.2-1.1,2.9C46.3,10.9,45.4,11.3,44.3,11.3z M44.4,4.8
			c-0.6,0-1.1,0.2-1.5,0.7c-0.4,0.5-0.5,1.1-0.5,1.8c0,0.8,0.2,1.4,0.5,1.8c0.4,0.4,0.8,0.7,1.4,0.7c0.6,0,1.1-0.2,1.4-0.6
			c0.4-0.4,0.5-1,0.5-1.8c0-0.8-0.2-1.4-0.5-1.9C45.4,5,44.9,4.8,44.4,4.8z"/>
	</g>
	<rect x="11.7" y="30.9" display="inline" fill="#FFFFFF" stroke="#A7A8AA" stroke-miterlimit="10" width="204.4" height="100.6"/>
	<rect x="11.7" y="142.9" display="inline" fill="#FFFFFF" stroke="#A7A8AA" stroke-miterlimit="10" width="204.4" height="130"/>
	<rect x="11.7" y="291.6" display="inline" fill="#FFFFFF" stroke="#A7A8AA" stroke-miterlimit="10" width="204.4" height="100.6"/>
	<rect x="11.7" y="406.4" display="inline" fill="#FFFFFF" stroke="#A7A8AA" stroke-miterlimit="10" width="204.4" height="100.6"/>
	<rect x="138.4" y="517.8" display="inline" fill="#004C97" width="77.7" height="16.7"/>
	<rect x="18.1" y="36.2" display="inline" fill="#009CDE" width="192" height="13"/>
	<rect x="18.1" y="149.2" display="inline" fill="#009CDE" width="192" height="13"/>
	<rect x="18.1" y="298.7" display="inline" fill="#009CDE" width="192" height="13"/>
	<rect x="18.1" y="411.1" display="inline" fill="#009CDE" width="192" height="13"/>
	<rect x="25.4" y="70.3" display="inline" fill="#E8E8E8" width="179.7" height="14.6"/>
	<rect x="25" y="61.2" display="inline" fill="#A7A8AA" width="91.2" height="4.9"/>
	<rect x="25.5" y="104.5" display="inline" fill="#E8E8E8" width="177.7" height="14.6"/>
	<rect x="25.6" y="95.3" display="inline" fill="#A7A8AA" width="55.7" height="4.9"/>
	<rect x="24.5" y="328.3" display="inline" fill="#E8E8E8" width="177.7" height="52.4"/>
	<rect x="24.6" y="319.2" display="inline" fill="#A7A8AA" width="55.7" height="4.9"/>
	<rect x="38.4" y="182.7" display="inline" fill="#E8E8E8" width="77.9" height="5.3"/>
	<rect x="24.6" y="169.8" display="inline" fill="#A7A8AA" width="55.7" height="4.9"/>
	<circle display="inline" fill="#004C97" cx="28.5" cy="185.2" r="4.4"/>
	<rect x="37.8" y="197.1" display="inline" fill="#E8E8E8" width="56.8" height="5.3"/>
	<circle display="inline" fill="#E8E8E8" cx="28.5" cy="199.6" r="4.4"/>
	<rect x="37.4" y="211.8" display="inline" fill="#E8E8E8" width="108.4" height="5.3"/>
	<circle display="inline" fill="#E8E8E8" cx="28.5" cy="214.3" r="4.4"/>
	<rect x="37.4" y="445.6" display="inline" fill="#E8E8E8" width="77.9" height="5.3"/>
	<rect x="23.7" y="432.8" display="inline" fill="#A7A8AA" width="55.7" height="4.9"/>
	<rect x="36.9" y="460.1" display="inline" fill="#E8E8E8" width="56.8" height="5.3"/>
	<rect x="36.5" y="474.7" display="inline" fill="#E8E8E8" width="108.4" height="5.3"/>
	<rect x="36.5" y="489.9" display="inline" fill="#E8E8E8" width="35.9" height="5.3"/>
	<rect x="24.6" y="443.8" display="inline" fill="#004C97" width="8.7" height="8.7"/>
	<rect x="24.6" y="458.4" display="inline" fill="#E8E8E8" width="8.7" height="8.7"/>
	<rect x="24.5" y="473" display="inline" fill="#E8E8E8" width="8.7" height="8.7"/>
	<rect x="24.6" y="488.2" display="inline" fill="#E8E8E8" width="8.7" height="8.7"/>
	<rect x="24.7" y="244.2" display="inline" fill="#E8E8E8" width="179.7" height="14.6"/>
	<rect x="24.3" y="235" display="inline" fill="#A7A8AA" width="91.2" height="4.9"/>
</g>
</svg>
